solid ear_fin
  facet normal 1.00000000 0.00000000 0.00000000
    outer loop
      vertex -0.00700000 -0.02400000 0.00000000
      vertex -0.00700000 0.02400000 0.00000000
      vertex -0.00700000 0.00000000 0.05800000
    endloop
  endfacet
  facet normal -1.00000000 0.00000000 -0.00000000
    outer loop
      vertex 0.00700000 0.00000000 0.05800000
      vertex 0.00700000 0.02400000 0.00000000
      vertex 0.00700000 -0.02400000 0.00000000
    endloop
  endfacet
  facet normal 0.00000000 0.00000000 1.00000000
    outer loop
      vertex -0.00700000 -0.02400000 0.00000000
      vertex 0.00700000 -0.02400000 0.00000000
      vertex 0.00700000 0.02400000 0.00000000
    endloop
  endfacet
  facet normal 0.00000000 0.00000000 1.00000000
    outer loop
      vertex -0.00700000 -0.02400000 0.00000000
      vertex 0.00700000 0.02400000 0.00000000
      vertex -0.00700000 0.02400000 0.00000000
    endloop
  endfacet
  facet normal 0.00000000 -0.92401683 -0.38235179
    outer loop
      vertex -0.00700000 0.02400000 0.00000000
      vertex 0.00700000 0.02400000 0.00000000
      vertex 0.00700000 0.00000000 0.05800000
    endloop
  endfacet
  facet normal 0.00000000 -0.92401683 -0.38235179
    outer loop
      vertex -0.00700000 0.02400000 0.00000000
      vertex 0.00700000 0.00000000 0.05800000
      vertex -0.00700000 0.00000000 0.05800000
    endloop
  endfacet
  facet normal 0.00000000 0.92401683 -0.38235179
    outer loop
      vertex -0.00700000 0.00000000 0.05800000
      vertex 0.00700000 0.00000000 0.05800000
      vertex 0.00700000 -0.02400000 0.00000000
    endloop
  endfacet
  facet normal 0.00000000 0.92401683 -0.38235179
    outer loop
      vertex -0.00700000 0.00000000 0.05800000
      vertex 0.00700000 -0.02400000 0.00000000
      vertex -0.00700000 -0.02400000 0.00000000
    endloop
  endfacet
endsolid ear_fin
