solid eye_lens
  facet normal 0.61215446 0.01648466 -0.79056637
    outer loop
      vertex 0.00000000 0.00000000 -0.02200000
      vertex 0.00134319 0.00175955 -0.02092324
      vertex 0.00139058 0.00000000 -0.02092324
    endloop
  endfacet
  facet normal 0.58441718 0.04951504 -0.80994124
    outer loop
      vertex 0.00000000 0.00000000 -0.02200000
      vertex 0.00120427 0.00339919 -0.02092324
      vertex 0.00134319 0.00175955 -0.02092324
    endloop
  endfacet
  facet normal 0.52491169 0.08238659 -0.84716006
    outer loop
      vertex 0.00000000 0.00000000 -0.02200000
      vertex 0.00098329 0.00480718 -0.02092324
      vertex 0.00120427 0.00339919 -0.02092324
    endloop
  endfacet
  facet normal 0.42660006 0.11371828 -0.89726281
    outer loop
      vertex 0.00000000 0.00000000 -0.02200000
      vertex 0.00069529 0.00588756 -0.02092324
      vertex 0.00098329 0.00480718 -0.02092324
    endloop
  endfacet
  facet normal 0.28354046 0.14001693 -0.94868333
    outer loop
      vertex 0.00000000 0.00000000 -0.02200000
      vertex 0.00035991 0.00656672 -0.02092324
      vertex 0.00069529 0.00588756 -0.02092324
    endloop
  endfacet
  facet normal 0.10018009 0.15564749 -0.98271960
    outer loop
      vertex 0.00000000 0.00000000 -0.02200000
      vertex 0.00000000 0.00679837 -0.02092324
      vertex 0.00035991 0.00656672 -0.02092324
    endloop
  endfacet
  facet normal -0.10018009 0.15564749 -0.98271960
    outer loop
      vertex 0.00000000 0.00000000 -0.02200000
      vertex -0.00035991 0.00656672 -0.02092324
      vertex 0.00000000 0.00679837 -0.02092324
    endloop
  endfacet
  facet normal -0.28354046 0.14001693 -0.94868333
    outer loop
      vertex -0.00000000 0.00000000 -0.02200000
      vertex -0.00069529 0.00588756 -0.02092324
      vertex -0.00035991 0.00656672 -0.02092324
    endloop
  endfacet
  facet normal -0.42660006 0.11371828 -0.89726281
    outer loop
      vertex -0.00000000 0.00000000 -0.02200000
      vertex -0.00098329 0.00480718 -0.02092324
      vertex -0.00069529 0.00588756 -0.02092324
    endloop
  endfacet
  facet normal -0.52491169 0.08238659 -0.84716006
    outer loop
      vertex -0.00000000 0.00000000 -0.02200000
      vertex -0.00120427 0.00339919 -0.02092324
      vertex -0.00098329 0.00480718 -0.02092324
    endloop
  endfacet
  facet normal -0.58441718 0.04951504 -0.80994124
    outer loop
      vertex -0.00000000 0.00000000 -0.02200000
      vertex -0.00134319 0.00175955 -0.02092324
      vertex -0.00120427 0.00339919 -0.02092324
    endloop
  endfacet
  facet normal -0.61215446 0.01648466 -0.79056637
    outer loop
      vertex -0.00000000 0.00000000 -0.02200000
      vertex -0.00139058 0.00000000 -0.02092324
      vertex -0.00134319 0.00175955 -0.02092324
    endloop
  endfacet
  facet normal -0.61215446 -0.01648466 -0.79056637
    outer loop
      vertex -0.00000000 0.00000000 -0.02200000
      vertex -0.00134319 -0.00175955 -0.02092324
      vertex -0.00139058 0.00000000 -0.02092324
    endloop
  endfacet
  facet normal -0.58441718 -0.04951504 -0.80994124
    outer loop
      vertex -0.00000000 -0.00000000 -0.02200000
      vertex -0.00120427 -0.00339919 -0.02092324
      vertex -0.00134319 -0.00175955 -0.02092324
    endloop
  endfacet
  facet normal -0.52491169 -0.08238659 -0.84716006
    outer loop
      vertex -0.00000000 -0.00000000 -0.02200000
      vertex -0.00098329 -0.00480718 -0.02092324
      vertex -0.00120427 -0.00339919 -0.02092324
    endloop
  endfacet
  facet normal -0.42660006 -0.11371828 -0.89726281
    outer loop
      vertex -0.00000000 -0.00000000 -0.02200000
      vertex -0.00069529 -0.00588756 -0.02092324
      vertex -0.00098329 -0.00480718 -0.02092324
    endloop
  endfacet
  facet normal -0.28354046 -0.14001693 -0.94868333
    outer loop
      vertex -0.00000000 -0.00000000 -0.02200000
      vertex -0.00035991 -0.00656672 -0.02092324
      vertex -0.00069529 -0.00588756 -0.02092324
    endloop
  endfacet
  facet normal -0.10018009 -0.15564749 -0.98271960
    outer loop
      vertex -0.00000000 -0.00000000 -0.02200000
      vertex -0.00000000 -0.00679837 -0.02092324
      vertex -0.00035991 -0.00656672 -0.02092324
    endloop
  endfacet
  facet normal 0.10018009 -0.15564749 -0.98271960
    outer loop
      vertex -0.00000000 -0.00000000 -0.02200000
      vertex 0.00035991 -0.00656672 -0.02092324
      vertex -0.00000000 -0.00679837 -0.02092324
    endloop
  endfacet
  facet normal 0.28354046 -0.14001693 -0.94868333
    outer loop
      vertex 0.00000000 -0.00000000 -0.02200000
      vertex 0.00069529 -0.00588756 -0.02092324
      vertex 0.00035991 -0.00656672 -0.02092324
    endloop
  endfacet
  facet normal 0.42660006 -0.11371828 -0.89726281
    outer loop
      vertex 0.00000000 -0.00000000 -0.02200000
      vertex 0.00098329 -0.00480718 -0.02092324
      vertex 0.00069529 -0.00588756 -0.02092324
    endloop
  endfacet
  facet normal 0.52491169 -0.08238659 -0.84716006
    outer loop
      vertex 0.00000000 -0.00000000 -0.02200000
      vertex 0.00120427 -0.00339919 -0.02092324
      vertex 0.00098329 -0.00480718 -0.02092324
    endloop
  endfacet
  facet normal 0.58441718 -0.04951504 -0.80994124
    outer loop
      vertex 0.00000000 -0.00000000 -0.02200000
      vertex 0.00134319 -0.00175955 -0.02092324
      vertex 0.00120427 -0.00339919 -0.02092324
    endloop
  endfacet
  facet normal 0.61215446 -0.01648466 -0.79056637
    outer loop
      vertex 0.00000000 -0.00000000 -0.02200000
      vertex 0.00139058 0.00000000 -0.02092324
      vertex 0.00134319 -0.00175955 -0.02092324
    endloop
  endfacet
  facet normal 0.92772454 0.02498262 -0.37242858
    outer loop
      vertex 0.00139058 0.00000000 -0.02092324
      vertex 0.00134319 0.00175955 -0.02092324
      vertex 0.00255491 0.00334686 -0.01779837
    endloop
  endfacet
  facet normal 0.92772454 0.02498262 -0.37242858
    outer loop
      vertex 0.00139058 0.00000000 -0.02092324
      vertex 0.00255491 0.00334686 -0.01779837
      vertex 0.00264503 0.00000000 -0.01779837
    endloop
  endfacet
  facet normal 0.91563409 0.07757756 -0.39445651
    outer loop
      vertex 0.00134319 0.00175955 -0.02092324
      vertex 0.00120427 0.00339919 -0.02092324
      vertex 0.00229067 0.00646564 -0.01779837
    endloop
  endfacet
  facet normal 0.91563409 0.07757756 -0.39445651
    outer loop
      vertex 0.00134319 0.00175955 -0.02092324
      vertex 0.00229067 0.00646564 -0.01779837
      vertex 0.00255491 0.00334686 -0.01779837
    endloop
  endfacet
  facet normal 0.88515817 0.13892845 -0.44406520
    outer loop
      vertex 0.00120427 0.00339919 -0.02092324
      vertex 0.00098329 0.00480718 -0.02092324
      vertex 0.00187032 0.00914379 -0.01779837
    endloop
  endfacet
  facet normal 0.88515817 0.13892845 -0.44406520
    outer loop
      vertex 0.00120427 0.00339919 -0.02092324
      vertex 0.00187032 0.00914379 -0.01779837
      vertex 0.00229067 0.00646564 -0.01779837
    endloop
  endfacet
  facet normal 0.81690123 0.21776040 -0.53409061
    outer loop
      vertex 0.00098329 0.00480718 -0.02092324
      vertex 0.00069529 0.00588756 -0.02092324
      vertex 0.00132252 0.01119881 -0.01779837
    endloop
  endfacet
  facet normal 0.81690123 0.21776040 -0.53409061
    outer loop
      vertex 0.00098329 0.00480718 -0.02092324
      vertex 0.00132252 0.01119881 -0.01779837
      vertex 0.00187032 0.00914379 -0.01779837
    endloop
  endfacet
  facet normal 0.65574801 0.32381913 -0.68200859
    outer loop
      vertex 0.00069529 0.00588756 -0.02092324
      vertex 0.00035991 0.00656672 -0.02092324
      vertex 0.00068459 0.01249065 -0.01779837
    endloop
  endfacet
  facet normal 0.65574801 0.32381913 -0.68200859
    outer loop
      vertex 0.00069529 0.00588756 -0.02092324
      vertex 0.00068459 0.01249065 -0.01779837
      vertex 0.00132252 0.01119881 -0.01779837
    endloop
  endfacet
  facet normal 0.28047522 0.43576790 -0.85524265
    outer loop
      vertex 0.00035991 0.00656672 -0.02092324
      vertex 0.00000000 0.00679837 -0.02092324
      vertex 0.00000000 0.01293128 -0.01779837
    endloop
  endfacet
  facet normal 0.28047522 0.43576790 -0.85524265
    outer loop
      vertex 0.00035991 0.00656672 -0.02092324
      vertex 0.00000000 0.01293128 -0.01779837
      vertex 0.00068459 0.01249065 -0.01779837
    endloop
  endfacet
  facet normal -0.28047522 0.43576790 -0.85524265
    outer loop
      vertex 0.00000000 0.00679837 -0.02092324
      vertex -0.00035991 0.00656672 -0.02092324
      vertex -0.00068459 0.01249065 -0.01779837
    endloop
  endfacet
  facet normal -0.28047522 0.43576790 -0.85524265
    outer loop
      vertex 0.00000000 0.00679837 -0.02092324
      vertex -0.00068459 0.01249065 -0.01779837
      vertex 0.00000000 0.01293128 -0.01779837
    endloop
  endfacet
  facet normal -0.65574801 0.32381913 -0.68200859
    outer loop
      vertex -0.00035991 0.00656672 -0.02092324
      vertex -0.00069529 0.00588756 -0.02092324
      vertex -0.00132252 0.01119881 -0.01779837
    endloop
  endfacet
  facet normal -0.65574801 0.32381913 -0.68200859
    outer loop
      vertex -0.00035991 0.00656672 -0.02092324
      vertex -0.00132252 0.01119881 -0.01779837
      vertex -0.00068459 0.01249065 -0.01779837
    endloop
  endfacet
  facet normal -0.81690123 0.21776040 -0.53409061
    outer loop
      vertex -0.00069529 0.00588756 -0.02092324
      vertex -0.00098329 0.00480718 -0.02092324
      vertex -0.00187032 0.00914379 -0.01779837
    endloop
  endfacet
  facet normal -0.81690123 0.21776040 -0.53409061
    outer loop
      vertex -0.00069529 0.00588756 -0.02092324
      vertex -0.00187032 0.00914379 -0.01779837
      vertex -0.00132252 0.01119881 -0.01779837
    endloop
  endfacet
  facet normal -0.88515817 0.13892845 -0.44406520
    outer loop
      vertex -0.00098329 0.00480718 -0.02092324
      vertex -0.00120427 0.00339919 -0.02092324
      vertex -0.00229067 0.00646564 -0.01779837
    endloop
  endfacet
  facet normal -0.88515817 0.13892845 -0.44406520
    outer loop
      vertex -0.00098329 0.00480718 -0.02092324
      vertex -0.00229067 0.00646564 -0.01779837
      vertex -0.00187032 0.00914379 -0.01779837
    endloop
  endfacet
  facet normal -0.91563409 0.07757756 -0.39445651
    outer loop
      vertex -0.00120427 0.00339919 -0.02092324
      vertex -0.00134319 0.00175955 -0.02092324
      vertex -0.00255491 0.00334686 -0.01779837
    endloop
  endfacet
  facet normal -0.91563409 0.07757756 -0.39445651
    outer loop
      vertex -0.00120427 0.00339919 -0.02092324
      vertex -0.00255491 0.00334686 -0.01779837
      vertex -0.00229067 0.00646564 -0.01779837
    endloop
  endfacet
  facet normal -0.92772454 0.02498262 -0.37242858
    outer loop
      vertex -0.00134319 0.00175955 -0.02092324
      vertex -0.00139058 0.00000000 -0.02092324
      vertex -0.00264503 0.00000000 -0.01779837
    endloop
  endfacet
  facet normal -0.92772454 0.02498262 -0.37242858
    outer loop
      vertex -0.00134319 0.00175955 -0.02092324
      vertex -0.00264503 0.00000000 -0.01779837
      vertex -0.00255491 0.00334686 -0.01779837
    endloop
  endfacet
  facet normal -0.92772454 -0.02498262 -0.37242858
    outer loop
      vertex -0.00139058 0.00000000 -0.02092324
      vertex -0.00134319 -0.00175955 -0.02092324
      vertex -0.00255491 -0.00334686 -0.01779837
    endloop
  endfacet
  facet normal -0.92772454 -0.02498262 -0.37242858
    outer loop
      vertex -0.00139058 0.00000000 -0.02092324
      vertex -0.00255491 -0.00334686 -0.01779837
      vertex -0.00264503 0.00000000 -0.01779837
    endloop
  endfacet
  facet normal -0.91563409 -0.07757756 -0.39445651
    outer loop
      vertex -0.00134319 -0.00175955 -0.02092324
      vertex -0.00120427 -0.00339919 -0.02092324
      vertex -0.00229067 -0.00646564 -0.01779837
    endloop
  endfacet
  facet normal -0.91563409 -0.07757756 -0.39445651
    outer loop
      vertex -0.00134319 -0.00175955 -0.02092324
      vertex -0.00229067 -0.00646564 -0.01779837
      vertex -0.00255491 -0.00334686 -0.01779837
    endloop
  endfacet
  facet normal -0.88515817 -0.13892845 -0.44406520
    outer loop
      vertex -0.00120427 -0.00339919 -0.02092324
      vertex -0.00098329 -0.00480718 -0.02092324
      vertex -0.00187032 -0.00914379 -0.01779837
    endloop
  endfacet
  facet normal -0.88515817 -0.13892845 -0.44406520
    outer loop
      vertex -0.00120427 -0.00339919 -0.02092324
      vertex -0.00187032 -0.00914379 -0.01779837
      vertex -0.00229067 -0.00646564 -0.01779837
    endloop
  endfacet
  facet normal -0.81690123 -0.21776040 -0.53409061
    outer loop
      vertex -0.00098329 -0.00480718 -0.02092324
      vertex -0.00069529 -0.00588756 -0.02092324
      vertex -0.00132252 -0.01119881 -0.01779837
    endloop
  endfacet
  facet normal -0.81690123 -0.21776040 -0.53409061
    outer loop
      vertex -0.00098329 -0.00480718 -0.02092324
      vertex -0.00132252 -0.01119881 -0.01779837
      vertex -0.00187032 -0.00914379 -0.01779837
    endloop
  endfacet
  facet normal -0.65574801 -0.32381913 -0.68200859
    outer loop
      vertex -0.00069529 -0.00588756 -0.02092324
      vertex -0.00035991 -0.00656672 -0.02092324
      vertex -0.00068459 -0.01249065 -0.01779837
    endloop
  endfacet
  facet normal -0.65574801 -0.32381913 -0.68200859
    outer loop
      vertex -0.00069529 -0.00588756 -0.02092324
      vertex -0.00068459 -0.01249065 -0.01779837
      vertex -0.00132252 -0.01119881 -0.01779837
    endloop
  endfacet
  facet normal -0.28047522 -0.43576790 -0.85524265
    outer loop
      vertex -0.00035991 -0.00656672 -0.02092324
      vertex -0.00000000 -0.00679837 -0.02092324
      vertex -0.00000000 -0.01293128 -0.01779837
    endloop
  endfacet
  facet normal -0.28047522 -0.43576790 -0.85524265
    outer loop
      vertex -0.00035991 -0.00656672 -0.02092324
      vertex -0.00000000 -0.01293128 -0.01779837
      vertex -0.00068459 -0.01249065 -0.01779837
    endloop
  endfacet
  facet normal 0.28047522 -0.43576790 -0.85524265
    outer loop
      vertex -0.00000000 -0.00679837 -0.02092324
      vertex 0.00035991 -0.00656672 -0.02092324
      vertex 0.00068459 -0.01249065 -0.01779837
    endloop
  endfacet
  facet normal 0.28047522 -0.43576790 -0.85524265
    outer loop
      vertex -0.00000000 -0.00679837 -0.02092324
      vertex 0.00068459 -0.01249065 -0.01779837
      vertex -0.00000000 -0.01293128 -0.01779837
    endloop
  endfacet
  facet normal 0.65574801 -0.32381913 -0.68200859
    outer loop
      vertex 0.00035991 -0.00656672 -0.02092324
      vertex 0.00069529 -0.00588756 -0.02092324
      vertex 0.00132252 -0.01119881 -0.01779837
    endloop
  endfacet
  facet normal 0.65574801 -0.32381913 -0.68200859
    outer loop
      vertex 0.00035991 -0.00656672 -0.02092324
      vertex 0.00132252 -0.01119881 -0.01779837
      vertex 0.00068459 -0.01249065 -0.01779837
    endloop
  endfacet
  facet normal 0.81690123 -0.21776040 -0.53409061
    outer loop
      vertex 0.00069529 -0.00588756 -0.02092324
      vertex 0.00098329 -0.00480718 -0.02092324
      vertex 0.00187032 -0.00914379 -0.01779837
    endloop
  endfacet
  facet normal 0.81690123 -0.21776040 -0.53409061
    outer loop
      vertex 0.00069529 -0.00588756 -0.02092324
      vertex 0.00187032 -0.00914379 -0.01779837
      vertex 0.00132252 -0.01119881 -0.01779837
    endloop
  endfacet
  facet normal 0.88515817 -0.13892845 -0.44406520
    outer loop
      vertex 0.00098329 -0.00480718 -0.02092324
      vertex 0.00120427 -0.00339919 -0.02092324
      vertex 0.00229067 -0.00646564 -0.01779837
    endloop
  endfacet
  facet normal 0.88515817 -0.13892845 -0.44406520
    outer loop
      vertex 0.00098329 -0.00480718 -0.02092324
      vertex 0.00229067 -0.00646564 -0.01779837
      vertex 0.00187032 -0.00914379 -0.01779837
    endloop
  endfacet
  facet normal 0.91563409 -0.07757756 -0.39445651
    outer loop
      vertex 0.00120427 -0.00339919 -0.02092324
      vertex 0.00134319 -0.00175955 -0.02092324
      vertex 0.00255491 -0.00334686 -0.01779837
    endloop
  endfacet
  facet normal 0.91563409 -0.07757756 -0.39445651
    outer loop
      vertex 0.00120427 -0.00339919 -0.02092324
      vertex 0.00255491 -0.00334686 -0.01779837
      vertex 0.00229067 -0.00646564 -0.01779837
    endloop
  endfacet
  facet normal 0.92772454 -0.02498262 -0.37242858
    outer loop
      vertex 0.00134319 -0.00175955 -0.02092324
      vertex 0.00139058 0.00000000 -0.02092324
      vertex 0.00264503 0.00000000 -0.01779837
    endloop
  endfacet
  facet normal 0.92772454 -0.02498262 -0.37242858
    outer loop
      vertex 0.00134319 -0.00175955 -0.02092324
      vertex 0.00264503 0.00000000 -0.01779837
      vertex 0.00255491 -0.00334686 -0.01779837
    endloop
  endfacet
  facet normal 0.97937415 0.02637349 -0.20032653
    outer loop
      vertex 0.00264503 0.00000000 -0.01779837
      vertex 0.00255491 0.00334686 -0.01779837
      vertex 0.00351653 0.00460656 -0.01293128
    endloop
  endfacet
  facet normal 0.97937415 0.02637349 -0.20032653
    outer loop
      vertex 0.00264503 0.00000000 -0.01779837
      vertex 0.00351653 0.00460656 -0.01293128
      vertex 0.00364058 0.00000000 -0.01293128
    endloop
  endfacet
  facet normal 0.97341845 0.08247337 -0.21366954
    outer loop
      vertex 0.00255491 0.00334686 -0.01779837
      vertex 0.00229067 0.00646564 -0.01779837
      vertex 0.00315283 0.00889919 -0.01293128
    endloop
  endfacet
  facet normal 0.97341845 0.08247337 -0.21366954
    outer loop
      vertex 0.00255491 0.00334686 -0.01779837
      vertex 0.00315283 0.00889919 -0.01293128
      vertex 0.00351653 0.00460656 -0.01293128
    endloop
  endfacet
  facet normal 0.95783728 0.15033567 -0.24484063
    outer loop
      vertex 0.00229067 0.00646564 -0.01779837
      vertex 0.00187032 0.00914379 -0.01779837
      vertex 0.00257428 0.01258535 -0.01293128
    endloop
  endfacet
  facet normal 0.95783728 0.15033567 -0.24484063
    outer loop
      vertex 0.00229067 0.00646564 -0.01779837
      vertex 0.00257428 0.01258535 -0.01293128
      vertex 0.00315283 0.00889919 -0.01293128
    endloop
  endfacet
  facet normal 0.91978251 0.24518535 -0.30640540
    outer loop
      vertex 0.00187032 0.00914379 -0.01779837
      vertex 0.00132252 0.01119881 -0.01779837
      vertex 0.00182029 0.01541384 -0.01293128
    endloop
  endfacet
  facet normal 0.91978251 0.24518535 -0.30640540
    outer loop
      vertex 0.00187032 0.00914379 -0.01779837
      vertex 0.00182029 0.01541384 -0.01293128
      vertex 0.00257428 0.01258535 -0.01293128
    endloop
  endfacet
  facet normal 0.80986110 0.39992270 -0.42916992
    outer loop
      vertex 0.00132252 0.01119881 -0.01779837
      vertex 0.00068459 0.01249065 -0.01779837
      vertex 0.00094225 0.01719191 -0.01293128
    endloop
  endfacet
  facet normal 0.80986110 0.39992270 -0.42916992
    outer loop
      vertex 0.00132252 0.01119881 -0.01779837
      vertex 0.00094225 0.01719191 -0.01293128
      vertex 0.00182029 0.01541384 -0.01293128
    endloop
  endfacet
  facet normal 0.41423498 0.64358736 -0.64358736
    outer loop
      vertex 0.00068459 0.01249065 -0.01779837
      vertex 0.00000000 0.01293128 -0.01779837
      vertex 0.00000000 0.01779837 -0.01293128
    endloop
  endfacet
  facet normal 0.41423498 0.64358736 -0.64358736
    outer loop
      vertex 0.00068459 0.01249065 -0.01779837
      vertex 0.00000000 0.01779837 -0.01293128
      vertex 0.00094225 0.01719191 -0.01293128
    endloop
  endfacet
  facet normal -0.41423498 0.64358736 -0.64358736
    outer loop
      vertex 0.00000000 0.01293128 -0.01779837
      vertex -0.00068459 0.01249065 -0.01779837
      vertex -0.00094225 0.01719191 -0.01293128
    endloop
  endfacet
  facet normal -0.41423498 0.64358736 -0.64358736
    outer loop
      vertex 0.00000000 0.01293128 -0.01779837
      vertex -0.00094225 0.01719191 -0.01293128
      vertex 0.00000000 0.01779837 -0.01293128
    endloop
  endfacet
  facet normal -0.80986110 0.39992270 -0.42916992
    outer loop
      vertex -0.00068459 0.01249065 -0.01779837
      vertex -0.00132252 0.01119881 -0.01779837
      vertex -0.00182029 0.01541384 -0.01293128
    endloop
  endfacet
  facet normal -0.80986110 0.39992270 -0.42916992
    outer loop
      vertex -0.00068459 0.01249065 -0.01779837
      vertex -0.00182029 0.01541384 -0.01293128
      vertex -0.00094225 0.01719191 -0.01293128
    endloop
  endfacet
  facet normal -0.91978251 0.24518535 -0.30640540
    outer loop
      vertex -0.00132252 0.01119881 -0.01779837
      vertex -0.00187032 0.00914379 -0.01779837
      vertex -0.00257428 0.01258535 -0.01293128
    endloop
  endfacet
  facet normal -0.91978251 0.24518535 -0.30640540
    outer loop
      vertex -0.00132252 0.01119881 -0.01779837
      vertex -0.00257428 0.01258535 -0.01293128
      vertex -0.00182029 0.01541384 -0.01293128
    endloop
  endfacet
  facet normal -0.95783728 0.15033567 -0.24484063
    outer loop
      vertex -0.00187032 0.00914379 -0.01779837
      vertex -0.00229067 0.00646564 -0.01779837
      vertex -0.00315283 0.00889919 -0.01293128
    endloop
  endfacet
  facet normal -0.95783728 0.15033567 -0.24484063
    outer loop
      vertex -0.00187032 0.00914379 -0.01779837
      vertex -0.00315283 0.00889919 -0.01293128
      vertex -0.00257428 0.01258535 -0.01293128
    endloop
  endfacet
  facet normal -0.97341845 0.08247337 -0.21366954
    outer loop
      vertex -0.00229067 0.00646564 -0.01779837
      vertex -0.00255491 0.00334686 -0.01779837
      vertex -0.00351653 0.00460656 -0.01293128
    endloop
  endfacet
  facet normal -0.97341845 0.08247337 -0.21366954
    outer loop
      vertex -0.00229067 0.00646564 -0.01779837
      vertex -0.00351653 0.00460656 -0.01293128
      vertex -0.00315283 0.00889919 -0.01293128
    endloop
  endfacet
  facet normal -0.97937415 0.02637349 -0.20032653
    outer loop
      vertex -0.00255491 0.00334686 -0.01779837
      vertex -0.00264503 0.00000000 -0.01779837
      vertex -0.00364058 0.00000000 -0.01293128
    endloop
  endfacet
  facet normal -0.97937415 0.02637349 -0.20032653
    outer loop
      vertex -0.00255491 0.00334686 -0.01779837
      vertex -0.00364058 0.00000000 -0.01293128
      vertex -0.00351653 0.00460656 -0.01293128
    endloop
  endfacet
  facet normal -0.97937415 -0.02637349 -0.20032653
    outer loop
      vertex -0.00264503 0.00000000 -0.01779837
      vertex -0.00255491 -0.00334686 -0.01779837
      vertex -0.00351653 -0.00460656 -0.01293128
    endloop
  endfacet
  facet normal -0.97937415 -0.02637349 -0.20032653
    outer loop
      vertex -0.00264503 0.00000000 -0.01779837
      vertex -0.00351653 -0.00460656 -0.01293128
      vertex -0.00364058 0.00000000 -0.01293128
    endloop
  endfacet
  facet normal -0.97341845 -0.08247337 -0.21366954
    outer loop
      vertex -0.00255491 -0.00334686 -0.01779837
      vertex -0.00229067 -0.00646564 -0.01779837
      vertex -0.00315283 -0.00889919 -0.01293128
    endloop
  endfacet
  facet normal -0.97341845 -0.08247337 -0.21366954
    outer loop
      vertex -0.00255491 -0.00334686 -0.01779837
      vertex -0.00315283 -0.00889919 -0.01293128
      vertex -0.00351653 -0.00460656 -0.01293128
    endloop
  endfacet
  facet normal -0.95783728 -0.15033567 -0.24484063
    outer loop
      vertex -0.00229067 -0.00646564 -0.01779837
      vertex -0.00187032 -0.00914379 -0.01779837
      vertex -0.00257428 -0.01258535 -0.01293128
    endloop
  endfacet
  facet normal -0.95783728 -0.15033567 -0.24484063
    outer loop
      vertex -0.00229067 -0.00646564 -0.01779837
      vertex -0.00257428 -0.01258535 -0.01293128
      vertex -0.00315283 -0.00889919 -0.01293128
    endloop
  endfacet
  facet normal -0.91978251 -0.24518535 -0.30640540
    outer loop
      vertex -0.00187032 -0.00914379 -0.01779837
      vertex -0.00132252 -0.01119881 -0.01779837
      vertex -0.00182029 -0.01541384 -0.01293128
    endloop
  endfacet
  facet normal -0.91978251 -0.24518535 -0.30640540
    outer loop
      vertex -0.00187032 -0.00914379 -0.01779837
      vertex -0.00182029 -0.01541384 -0.01293128
      vertex -0.00257428 -0.01258535 -0.01293128
    endloop
  endfacet
  facet normal -0.80986110 -0.39992270 -0.42916992
    outer loop
      vertex -0.00132252 -0.01119881 -0.01779837
      vertex -0.00068459 -0.01249065 -0.01779837
      vertex -0.00094225 -0.01719191 -0.01293128
    endloop
  endfacet
  facet normal -0.80986110 -0.39992270 -0.42916992
    outer loop
      vertex -0.00132252 -0.01119881 -0.01779837
      vertex -0.00094225 -0.01719191 -0.01293128
      vertex -0.00182029 -0.01541384 -0.01293128
    endloop
  endfacet
  facet normal -0.41423498 -0.64358736 -0.64358736
    outer loop
      vertex -0.00068459 -0.01249065 -0.01779837
      vertex -0.00000000 -0.01293128 -0.01779837
      vertex -0.00000000 -0.01779837 -0.01293128
    endloop
  endfacet
  facet normal -0.41423498 -0.64358736 -0.64358736
    outer loop
      vertex -0.00068459 -0.01249065 -0.01779837
      vertex -0.00000000 -0.01779837 -0.01293128
      vertex -0.00094225 -0.01719191 -0.01293128
    endloop
  endfacet
  facet normal 0.41423498 -0.64358736 -0.64358736
    outer loop
      vertex -0.00000000 -0.01293128 -0.01779837
      vertex 0.00068459 -0.01249065 -0.01779837
      vertex 0.00094225 -0.01719191 -0.01293128
    endloop
  endfacet
  facet normal 0.41423498 -0.64358736 -0.64358736
    outer loop
      vertex -0.00000000 -0.01293128 -0.01779837
      vertex 0.00094225 -0.01719191 -0.01293128
      vertex -0.00000000 -0.01779837 -0.01293128
    endloop
  endfacet
  facet normal 0.80986110 -0.39992270 -0.42916992
    outer loop
      vertex 0.00068459 -0.01249065 -0.01779837
      vertex 0.00132252 -0.01119881 -0.01779837
      vertex 0.00182029 -0.01541384 -0.01293128
    endloop
  endfacet
  facet normal 0.80986110 -0.39992270 -0.42916992
    outer loop
      vertex 0.00068459 -0.01249065 -0.01779837
      vertex 0.00182029 -0.01541384 -0.01293128
      vertex 0.00094225 -0.01719191 -0.01293128
    endloop
  endfacet
  facet normal 0.91978251 -0.24518535 -0.30640540
    outer loop
      vertex 0.00132252 -0.01119881 -0.01779837
      vertex 0.00187032 -0.00914379 -0.01779837
      vertex 0.00257428 -0.01258535 -0.01293128
    endloop
  endfacet
  facet normal 0.91978251 -0.24518535 -0.30640540
    outer loop
      vertex 0.00132252 -0.01119881 -0.01779837
      vertex 0.00257428 -0.01258535 -0.01293128
      vertex 0.00182029 -0.01541384 -0.01293128
    endloop
  endfacet
  facet normal 0.95783728 -0.15033567 -0.24484063
    outer loop
      vertex 0.00187032 -0.00914379 -0.01779837
      vertex 0.00229067 -0.00646564 -0.01779837
      vertex 0.00315283 -0.00889919 -0.01293128
    endloop
  endfacet
  facet normal 0.95783728 -0.15033567 -0.24484063
    outer loop
      vertex 0.00187032 -0.00914379 -0.01779837
      vertex 0.00315283 -0.00889919 -0.01293128
      vertex 0.00257428 -0.01258535 -0.01293128
    endloop
  endfacet
  facet normal 0.97341845 -0.08247337 -0.21366954
    outer loop
      vertex 0.00229067 -0.00646564 -0.01779837
      vertex 0.00255491 -0.00334686 -0.01779837
      vertex 0.00351653 -0.00460656 -0.01293128
    endloop
  endfacet
  facet normal 0.97341845 -0.08247337 -0.21366954
    outer loop
      vertex 0.00229067 -0.00646564 -0.01779837
      vertex 0.00351653 -0.00460656 -0.01293128
      vertex 0.00315283 -0.00889919 -0.01293128
    endloop
  endfacet
  facet normal 0.97937415 -0.02637349 -0.20032653
    outer loop
      vertex 0.00255491 -0.00334686 -0.01779837
      vertex 0.00264503 0.00000000 -0.01779837
      vertex 0.00364058 0.00000000 -0.01293128
    endloop
  endfacet
  facet normal 0.97937415 -0.02637349 -0.20032653
    outer loop
      vertex 0.00255491 -0.00334686 -0.01779837
      vertex 0.00364058 0.00000000 -0.01293128
      vertex 0.00351653 -0.00460656 -0.01293128
    endloop
  endfacet
  facet normal 0.99425626 0.02677425 -0.10362250
    outer loop
      vertex 0.00364058 0.00000000 -0.01293128
      vertex 0.00351653 0.00460656 -0.01293128
      vertex 0.00413393 0.00541533 -0.00679837
    endloop
  endfacet
  facet normal 0.99425626 0.02677425 -0.10362250
    outer loop
      vertex 0.00364058 0.00000000 -0.01293128
      vertex 0.00413393 0.00541533 -0.00679837
      vertex 0.00427975 0.00000000 -0.00679837
    endloop
  endfacet
  facet normal 0.99029936 0.08390361 -0.11075808
    outer loop
      vertex 0.00351653 0.00460656 -0.01293128
      vertex 0.00315283 0.00889919 -0.01293128
      vertex 0.00370638 0.01046162 -0.00679837
    endloop
  endfacet
  facet normal 0.99029936 0.08390361 -0.11075808
    outer loop
      vertex 0.00351653 0.00460656 -0.01293128
      vertex 0.00370638 0.01046162 -0.00679837
      vertex 0.00413393 0.00541533 -0.00679837
    endloop
  endfacet
  facet normal 0.97982828 0.15378723 -0.12761673
    outer loop
      vertex 0.00315283 0.00889919 -0.01293128
      vertex 0.00257428 0.01258535 -0.01293128
      vertex 0.00302624 0.01479497 -0.00679837
    endloop
  endfacet
  facet normal 0.97982828 0.15378723 -0.12761673
    outer loop
      vertex 0.00315283 0.00889919 -0.01293128
      vertex 0.00302624 0.01479497 -0.00679837
      vertex 0.00370638 0.01046162 -0.00679837
    endloop
  endfacet
  facet normal 0.95351908 0.25417846 -0.16184770
    outer loop
      vertex 0.00257428 0.01258535 -0.01293128
      vertex 0.00182029 0.01541384 -0.01293128
      vertex 0.00213988 0.01812006 -0.00679837
    endloop
  endfacet
  facet normal 0.95351908 0.25417846 -0.16184770
    outer loop
      vertex 0.00257428 0.01258535 -0.01293128
      vertex 0.00213988 0.01812006 -0.00679837
      vertex 0.00302624 0.01479497 -0.00679837
    endloop
  endfacet
  facet normal 0.87145791 0.43034022 -0.23530493
    outer loop
      vertex 0.00182029 0.01541384 -0.01293128
      vertex 0.00094225 0.01719191 -0.01293128
      vertex 0.00110768 0.02021030 -0.00679837
    endloop
  endfacet
  facet normal 0.87145791 0.43034022 -0.23530493
    outer loop
      vertex 0.00182029 0.01541384 -0.01293128
      vertex 0.00110768 0.02021030 -0.00679837
      vertex 0.00213988 0.01812006 -0.00679837
    endloop
  endfacet
  facet normal 0.49748148 0.77292552 -0.39382523
    outer loop
      vertex 0.00094225 0.01719191 -0.01293128
      vertex 0.00000000 0.01779837 -0.01293128
      vertex 0.00000000 0.02092324 -0.00679837
    endloop
  endfacet
  facet normal 0.49748148 0.77292552 -0.39382523
    outer loop
      vertex 0.00094225 0.01719191 -0.01293128
      vertex 0.00000000 0.02092324 -0.00679837
      vertex 0.00110768 0.02021030 -0.00679837
    endloop
  endfacet
  facet normal -0.49748148 0.77292552 -0.39382523
    outer loop
      vertex 0.00000000 0.01779837 -0.01293128
      vertex -0.00094225 0.01719191 -0.01293128
      vertex -0.00110768 0.02021030 -0.00679837
    endloop
  endfacet
  facet normal -0.49748148 0.77292552 -0.39382523
    outer loop
      vertex 0.00000000 0.01779837 -0.01293128
      vertex -0.00110768 0.02021030 -0.00679837
      vertex 0.00000000 0.02092324 -0.00679837
    endloop
  endfacet
  facet normal -0.87145791 0.43034022 -0.23530493
    outer loop
      vertex -0.00094225 0.01719191 -0.01293128
      vertex -0.00182029 0.01541384 -0.01293128
      vertex -0.00213988 0.01812006 -0.00679837
    endloop
  endfacet
  facet normal -0.87145791 0.43034022 -0.23530493
    outer loop
      vertex -0.00094225 0.01719191 -0.01293128
      vertex -0.00213988 0.01812006 -0.00679837
      vertex -0.00110768 0.02021030 -0.00679837
    endloop
  endfacet
  facet normal -0.95351908 0.25417846 -0.16184770
    outer loop
      vertex -0.00182029 0.01541384 -0.01293128
      vertex -0.00257428 0.01258535 -0.01293128
      vertex -0.00302624 0.01479497 -0.00679837
    endloop
  endfacet
  facet normal -0.95351908 0.25417846 -0.16184770
    outer loop
      vertex -0.00182029 0.01541384 -0.01293128
      vertex -0.00302624 0.01479497 -0.00679837
      vertex -0.00213988 0.01812006 -0.00679837
    endloop
  endfacet
  facet normal -0.97982828 0.15378723 -0.12761673
    outer loop
      vertex -0.00257428 0.01258535 -0.01293128
      vertex -0.00315283 0.00889919 -0.01293128
      vertex -0.00370638 0.01046162 -0.00679837
    endloop
  endfacet
  facet normal -0.97982828 0.15378723 -0.12761673
    outer loop
      vertex -0.00257428 0.01258535 -0.01293128
      vertex -0.00370638 0.01046162 -0.00679837
      vertex -0.00302624 0.01479497 -0.00679837
    endloop
  endfacet
  facet normal -0.99029936 0.08390361 -0.11075808
    outer loop
      vertex -0.00315283 0.00889919 -0.01293128
      vertex -0.00351653 0.00460656 -0.01293128
      vertex -0.00413393 0.00541533 -0.00679837
    endloop
  endfacet
  facet normal -0.99029936 0.08390361 -0.11075808
    outer loop
      vertex -0.00315283 0.00889919 -0.01293128
      vertex -0.00413393 0.00541533 -0.00679837
      vertex -0.00370638 0.01046162 -0.00679837
    endloop
  endfacet
  facet normal -0.99425626 0.02677425 -0.10362250
    outer loop
      vertex -0.00351653 0.00460656 -0.01293128
      vertex -0.00364058 0.00000000 -0.01293128
      vertex -0.00427975 0.00000000 -0.00679837
    endloop
  endfacet
  facet normal -0.99425626 0.02677425 -0.10362250
    outer loop
      vertex -0.00351653 0.00460656 -0.01293128
      vertex -0.00427975 0.00000000 -0.00679837
      vertex -0.00413393 0.00541533 -0.00679837
    endloop
  endfacet
  facet normal -0.99425626 -0.02677425 -0.10362250
    outer loop
      vertex -0.00364058 0.00000000 -0.01293128
      vertex -0.00351653 -0.00460656 -0.01293128
      vertex -0.00413393 -0.00541533 -0.00679837
    endloop
  endfacet
  facet normal -0.99425626 -0.02677425 -0.10362250
    outer loop
      vertex -0.00364058 0.00000000 -0.01293128
      vertex -0.00413393 -0.00541533 -0.00679837
      vertex -0.00427975 0.00000000 -0.00679837
    endloop
  endfacet
  facet normal -0.99029936 -0.08390361 -0.11075808
    outer loop
      vertex -0.00351653 -0.00460656 -0.01293128
      vertex -0.00315283 -0.00889919 -0.01293128
      vertex -0.00370638 -0.01046162 -0.00679837
    endloop
  endfacet
  facet normal -0.99029936 -0.08390361 -0.11075808
    outer loop
      vertex -0.00351653 -0.00460656 -0.01293128
      vertex -0.00370638 -0.01046162 -0.00679837
      vertex -0.00413393 -0.00541533 -0.00679837
    endloop
  endfacet
  facet normal -0.97982828 -0.15378723 -0.12761673
    outer loop
      vertex -0.00315283 -0.00889919 -0.01293128
      vertex -0.00257428 -0.01258535 -0.01293128
      vertex -0.00302624 -0.01479497 -0.00679837
    endloop
  endfacet
  facet normal -0.97982828 -0.15378723 -0.12761673
    outer loop
      vertex -0.00315283 -0.00889919 -0.01293128
      vertex -0.00302624 -0.01479497 -0.00679837
      vertex -0.00370638 -0.01046162 -0.00679837
    endloop
  endfacet
  facet normal -0.95351908 -0.25417846 -0.16184770
    outer loop
      vertex -0.00257428 -0.01258535 -0.01293128
      vertex -0.00182029 -0.01541384 -0.01293128
      vertex -0.00213988 -0.01812006 -0.00679837
    endloop
  endfacet
  facet normal -0.95351908 -0.25417846 -0.16184770
    outer loop
      vertex -0.00257428 -0.01258535 -0.01293128
      vertex -0.00213988 -0.01812006 -0.00679837
      vertex -0.00302624 -0.01479497 -0.00679837
    endloop
  endfacet
  facet normal -0.87145791 -0.43034022 -0.23530493
    outer loop
      vertex -0.00182029 -0.01541384 -0.01293128
      vertex -0.00094225 -0.01719191 -0.01293128
      vertex -0.00110768 -0.02021030 -0.00679837
    endloop
  endfacet
  facet normal -0.87145791 -0.43034022 -0.23530493
    outer loop
      vertex -0.00182029 -0.01541384 -0.01293128
      vertex -0.00110768 -0.02021030 -0.00679837
      vertex -0.00213988 -0.01812006 -0.00679837
    endloop
  endfacet
  facet normal -0.49748148 -0.77292552 -0.39382523
    outer loop
      vertex -0.00094225 -0.01719191 -0.01293128
      vertex -0.00000000 -0.01779837 -0.01293128
      vertex -0.00000000 -0.02092324 -0.00679837
    endloop
  endfacet
  facet normal -0.49748148 -0.77292552 -0.39382523
    outer loop
      vertex -0.00094225 -0.01719191 -0.01293128
      vertex -0.00000000 -0.02092324 -0.00679837
      vertex -0.00110768 -0.02021030 -0.00679837
    endloop
  endfacet
  facet normal 0.49748148 -0.77292552 -0.39382523
    outer loop
      vertex -0.00000000 -0.01779837 -0.01293128
      vertex 0.00094225 -0.01719191 -0.01293128
      vertex 0.00110768 -0.02021030 -0.00679837
    endloop
  endfacet
  facet normal 0.49748148 -0.77292552 -0.39382523
    outer loop
      vertex -0.00000000 -0.01779837 -0.01293128
      vertex 0.00110768 -0.02021030 -0.00679837
      vertex -0.00000000 -0.02092324 -0.00679837
    endloop
  endfacet
  facet normal 0.87145791 -0.43034022 -0.23530493
    outer loop
      vertex 0.00094225 -0.01719191 -0.01293128
      vertex 0.00182029 -0.01541384 -0.01293128
      vertex 0.00213988 -0.01812006 -0.00679837
    endloop
  endfacet
  facet normal 0.87145791 -0.43034022 -0.23530493
    outer loop
      vertex 0.00094225 -0.01719191 -0.01293128
      vertex 0.00213988 -0.01812006 -0.00679837
      vertex 0.00110768 -0.02021030 -0.00679837
    endloop
  endfacet
  facet normal 0.95351908 -0.25417846 -0.16184770
    outer loop
      vertex 0.00182029 -0.01541384 -0.01293128
      vertex 0.00257428 -0.01258535 -0.01293128
      vertex 0.00302624 -0.01479497 -0.00679837
    endloop
  endfacet
  facet normal 0.95351908 -0.25417846 -0.16184770
    outer loop
      vertex 0.00182029 -0.01541384 -0.01293128
      vertex 0.00302624 -0.01479497 -0.00679837
      vertex 0.00213988 -0.01812006 -0.00679837
    endloop
  endfacet
  facet normal 0.97982828 -0.15378723 -0.12761673
    outer loop
      vertex 0.00257428 -0.01258535 -0.01293128
      vertex 0.00315283 -0.00889919 -0.01293128
      vertex 0.00370638 -0.01046162 -0.00679837
    endloop
  endfacet
  facet normal 0.97982828 -0.15378723 -0.12761673
    outer loop
      vertex 0.00257428 -0.01258535 -0.01293128
      vertex 0.00370638 -0.01046162 -0.00679837
      vertex 0.00302624 -0.01479497 -0.00679837
    endloop
  endfacet
  facet normal 0.99029936 -0.08390361 -0.11075808
    outer loop
      vertex 0.00315283 -0.00889919 -0.01293128
      vertex 0.00351653 -0.00460656 -0.01293128
      vertex 0.00413393 -0.00541533 -0.00679837
    endloop
  endfacet
  facet normal 0.99029936 -0.08390361 -0.11075808
    outer loop
      vertex 0.00315283 -0.00889919 -0.01293128
      vertex 0.00413393 -0.00541533 -0.00679837
      vertex 0.00370638 -0.01046162 -0.00679837
    endloop
  endfacet
  facet normal 0.99425626 -0.02677425 -0.10362250
    outer loop
      vertex 0.00351653 -0.00460656 -0.01293128
      vertex 0.00364058 0.00000000 -0.01293128
      vertex 0.00427975 0.00000000 -0.00679837
    endloop
  endfacet
  facet normal 0.99425626 -0.02677425 -0.10362250
    outer loop
      vertex 0.00351653 -0.00460656 -0.01293128
      vertex 0.00427975 0.00000000 -0.00679837
      vertex 0.00413393 -0.00541533 -0.00679837
    endloop
  endfacet
  facet normal 0.99911382 0.02690506 -0.03236811
    outer loop
      vertex 0.00427975 0.00000000 -0.00679837
      vertex 0.00413393 0.00541533 -0.00679837
      vertex 0.00434667 0.00569402 0.00000000
    endloop
  endfacet
  facet normal 0.99911382 0.02690506 -0.03236811
    outer loop
      vertex 0.00427975 0.00000000 -0.00679837
      vertex 0.00434667 0.00569402 0.00000000
      vertex 0.00450000 0.00000000 0.00000000
    endloop
  endfacet
  facet normal 0.99583265 0.08437242 -0.03462119
    outer loop
      vertex 0.00413393 0.00541533 -0.00679837
      vertex 0.00370638 0.01046162 -0.00679837
      vertex 0.00389711 0.01100000 0.00000000
    endloop
  endfacet
  facet normal 0.99583265 0.08437242 -0.03462119
    outer loop
      vertex 0.00413393 0.00541533 -0.00679837
      vertex 0.00389711 0.01100000 0.00000000
      vertex 0.00434667 0.00569402 0.00000000
    endloop
  endfacet
  facet normal 0.98711660 0.15493116 -0.03996435
    outer loop
      vertex 0.00370638 0.01046162 -0.00679837
      vertex 0.00302624 0.01479497 -0.00679837
      vertex 0.00318198 0.01555635 0.00000000
    endloop
  endfacet
  facet normal 0.98711660 0.15493116 -0.03996435
    outer loop
      vertex 0.00370638 0.01046162 -0.00679837
      vertex 0.00318198 0.01555635 0.00000000
      vertex 0.00389711 0.01100000 0.00000000
    endloop
  endfacet
  facet normal 0.96500518 0.25724030 -0.05091590
    outer loop
      vertex 0.00302624 0.01479497 -0.00679837
      vertex 0.00213988 0.01812006 -0.00679837
      vertex 0.00225000 0.01905256 0.00000000
    endloop
  endfacet
  facet normal 0.96500518 0.25724030 -0.05091590
    outer loop
      vertex 0.00302624 0.01479497 -0.00679837
      vertex 0.00225000 0.01905256 0.00000000
      vertex 0.00318198 0.01555635 0.00000000
    endloop
  endfacet
  facet normal 0.89410560 0.44152402 -0.07504471
    outer loop
      vertex 0.00213988 0.01812006 -0.00679837
      vertex 0.00110768 0.02021030 -0.00679837
      vertex 0.00116469 0.02125037 0.00000000
    endloop
  endfacet
  facet normal 0.89410560 0.44152402 -0.07504471
    outer loop
      vertex 0.00213988 0.01812006 -0.00679837
      vertex 0.00116469 0.02125037 0.00000000
      vertex 0.00225000 0.01905256 0.00000000
    endloop
  endfacet
  facet normal 0.53648295 0.83352121 -0.13201679
    outer loop
      vertex 0.00110768 0.02021030 -0.00679837
      vertex 0.00000000 0.02092324 -0.00679837
      vertex 0.00000000 0.02200000 0.00000000
    endloop
  endfacet
  facet normal 0.53648295 0.83352121 -0.13201679
    outer loop
      vertex 0.00110768 0.02021030 -0.00679837
      vertex 0.00000000 0.02200000 0.00000000
      vertex 0.00116469 0.02125037 0.00000000
    endloop
  endfacet
  facet normal -0.53648295 0.83352121 -0.13201679
    outer loop
      vertex 0.00000000 0.02092324 -0.00679837
      vertex -0.00110768 0.02021030 -0.00679837
      vertex -0.00116469 0.02125037 0.00000000
    endloop
  endfacet
  facet normal -0.53648295 0.83352121 -0.13201679
    outer loop
      vertex 0.00000000 0.02092324 -0.00679837
      vertex -0.00116469 0.02125037 0.00000000
      vertex 0.00000000 0.02200000 0.00000000
    endloop
  endfacet
  facet normal -0.89410560 0.44152402 -0.07504471
    outer loop
      vertex -0.00110768 0.02021030 -0.00679837
      vertex -0.00213988 0.01812006 -0.00679837
      vertex -0.00225000 0.01905256 0.00000000
    endloop
  endfacet
  facet normal -0.89410560 0.44152402 -0.07504471
    outer loop
      vertex -0.00110768 0.02021030 -0.00679837
      vertex -0.00225000 0.01905256 0.00000000
      vertex -0.00116469 0.02125037 0.00000000
    endloop
  endfacet
  facet normal -0.96500518 0.25724030 -0.05091590
    outer loop
      vertex -0.00213988 0.01812006 -0.00679837
      vertex -0.00302624 0.01479497 -0.00679837
      vertex -0.00318198 0.01555635 0.00000000
    endloop
  endfacet
  facet normal -0.96500518 0.25724030 -0.05091590
    outer loop
      vertex -0.00213988 0.01812006 -0.00679837
      vertex -0.00318198 0.01555635 0.00000000
      vertex -0.00225000 0.01905256 0.00000000
    endloop
  endfacet
  facet normal -0.98711660 0.15493116 -0.03996435
    outer loop
      vertex -0.00302624 0.01479497 -0.00679837
      vertex -0.00370638 0.01046162 -0.00679837
      vertex -0.00389711 0.01100000 0.00000000
    endloop
  endfacet
  facet normal -0.98711660 0.15493116 -0.03996435
    outer loop
      vertex -0.00302624 0.01479497 -0.00679837
      vertex -0.00389711 0.01100000 0.00000000
      vertex -0.00318198 0.01555635 0.00000000
    endloop
  endfacet
  facet normal -0.99583265 0.08437242 -0.03462119
    outer loop
      vertex -0.00370638 0.01046162 -0.00679837
      vertex -0.00413393 0.00541533 -0.00679837
      vertex -0.00434667 0.00569402 0.00000000
    endloop
  endfacet
  facet normal -0.99583265 0.08437242 -0.03462119
    outer loop
      vertex -0.00370638 0.01046162 -0.00679837
      vertex -0.00434667 0.00569402 0.00000000
      vertex -0.00389711 0.01100000 0.00000000
    endloop
  endfacet
  facet normal -0.99911382 0.02690506 -0.03236811
    outer loop
      vertex -0.00413393 0.00541533 -0.00679837
      vertex -0.00427975 0.00000000 -0.00679837
      vertex -0.00450000 0.00000000 0.00000000
    endloop
  endfacet
  facet normal -0.99911382 0.02690506 -0.03236811
    outer loop
      vertex -0.00413393 0.00541533 -0.00679837
      vertex -0.00450000 0.00000000 0.00000000
      vertex -0.00434667 0.00569402 0.00000000
    endloop
  endfacet
  facet normal -0.99911382 -0.02690506 -0.03236811
    outer loop
      vertex -0.00427975 0.00000000 -0.00679837
      vertex -0.00413393 -0.00541533 -0.00679837
      vertex -0.00434667 -0.00569402 0.00000000
    endloop
  endfacet
  facet normal -0.99911382 -0.02690506 -0.03236811
    outer loop
      vertex -0.00427975 0.00000000 -0.00679837
      vertex -0.00434667 -0.00569402 0.00000000
      vertex -0.00450000 0.00000000 0.00000000
    endloop
  endfacet
  facet normal -0.99583265 -0.08437242 -0.03462119
    outer loop
      vertex -0.00413393 -0.00541533 -0.00679837
      vertex -0.00370638 -0.01046162 -0.00679837
      vertex -0.00389711 -0.01100000 0.00000000
    endloop
  endfacet
  facet normal -0.99583265 -0.08437242 -0.03462119
    outer loop
      vertex -0.00413393 -0.00541533 -0.00679837
      vertex -0.00389711 -0.01100000 0.00000000
      vertex -0.00434667 -0.00569402 0.00000000
    endloop
  endfacet
  facet normal -0.98711660 -0.15493116 -0.03996435
    outer loop
      vertex -0.00370638 -0.01046162 -0.00679837
      vertex -0.00302624 -0.01479497 -0.00679837
      vertex -0.00318198 -0.01555635 0.00000000
    endloop
  endfacet
  facet normal -0.98711660 -0.15493116 -0.03996435
    outer loop
      vertex -0.00370638 -0.01046162 -0.00679837
      vertex -0.00318198 -0.01555635 0.00000000
      vertex -0.00389711 -0.01100000 0.00000000
    endloop
  endfacet
  facet normal -0.96500518 -0.25724030 -0.05091590
    outer loop
      vertex -0.00302624 -0.01479497 -0.00679837
      vertex -0.00213988 -0.01812006 -0.00679837
      vertex -0.00225000 -0.01905256 0.00000000
    endloop
  endfacet
  facet normal -0.96500518 -0.25724030 -0.05091590
    outer loop
      vertex -0.00302624 -0.01479497 -0.00679837
      vertex -0.00225000 -0.01905256 0.00000000
      vertex -0.00318198 -0.01555635 0.00000000
    endloop
  endfacet
  facet normal -0.89410560 -0.44152402 -0.07504471
    outer loop
      vertex -0.00213988 -0.01812006 -0.00679837
      vertex -0.00110768 -0.02021030 -0.00679837
      vertex -0.00116469 -0.02125037 0.00000000
    endloop
  endfacet
  facet normal -0.89410560 -0.44152402 -0.07504471
    outer loop
      vertex -0.00213988 -0.01812006 -0.00679837
      vertex -0.00116469 -0.02125037 0.00000000
      vertex -0.00225000 -0.01905256 0.00000000
    endloop
  endfacet
  facet normal -0.53648295 -0.83352121 -0.13201679
    outer loop
      vertex -0.00110768 -0.02021030 -0.00679837
      vertex -0.00000000 -0.02092324 -0.00679837
      vertex -0.00000000 -0.02200000 0.00000000
    endloop
  endfacet
  facet normal -0.53648295 -0.83352121 -0.13201679
    outer loop
      vertex -0.00110768 -0.02021030 -0.00679837
      vertex -0.00000000 -0.02200000 0.00000000
      vertex -0.00116469 -0.02125037 0.00000000
    endloop
  endfacet
  facet normal 0.53648295 -0.83352121 -0.13201679
    outer loop
      vertex -0.00000000 -0.02092324 -0.00679837
      vertex 0.00110768 -0.02021030 -0.00679837
      vertex 0.00116469 -0.02125037 0.00000000
    endloop
  endfacet
  facet normal 0.53648295 -0.83352121 -0.13201679
    outer loop
      vertex -0.00000000 -0.02092324 -0.00679837
      vertex 0.00116469 -0.02125037 0.00000000
      vertex -0.00000000 -0.02200000 0.00000000
    endloop
  endfacet
  facet normal 0.89410560 -0.44152402 -0.07504471
    outer loop
      vertex 0.00110768 -0.02021030 -0.00679837
      vertex 0.00213988 -0.01812006 -0.00679837
      vertex 0.00225000 -0.01905256 0.00000000
    endloop
  endfacet
  facet normal 0.89410560 -0.44152402 -0.07504471
    outer loop
      vertex 0.00110768 -0.02021030 -0.00679837
      vertex 0.00225000 -0.01905256 0.00000000
      vertex 0.00116469 -0.02125037 0.00000000
    endloop
  endfacet
  facet normal 0.96500518 -0.25724030 -0.05091590
    outer loop
      vertex 0.00213988 -0.01812006 -0.00679837
      vertex 0.00302624 -0.01479497 -0.00679837
      vertex 0.00318198 -0.01555635 0.00000000
    endloop
  endfacet
  facet normal 0.96500518 -0.25724030 -0.05091590
    outer loop
      vertex 0.00213988 -0.01812006 -0.00679837
      vertex 0.00318198 -0.01555635 0.00000000
      vertex 0.00225000 -0.01905256 0.00000000
    endloop
  endfacet
  facet normal 0.98711660 -0.15493116 -0.03996435
    outer loop
      vertex 0.00302624 -0.01479497 -0.00679837
      vertex 0.00370638 -0.01046162 -0.00679837
      vertex 0.00389711 -0.01100000 0.00000000
    endloop
  endfacet
  facet normal 0.98711660 -0.15493116 -0.03996435
    outer loop
      vertex 0.00302624 -0.01479497 -0.00679837
      vertex 0.00389711 -0.01100000 0.00000000
      vertex 0.00318198 -0.01555635 0.00000000
    endloop
  endfacet
  facet normal 0.99583265 -0.08437242 -0.03462119
    outer loop
      vertex 0.00370638 -0.01046162 -0.00679837
      vertex 0.00413393 -0.00541533 -0.00679837
      vertex 0.00434667 -0.00569402 0.00000000
    endloop
  endfacet
  facet normal 0.99583265 -0.08437242 -0.03462119
    outer loop
      vertex 0.00370638 -0.01046162 -0.00679837
      vertex 0.00434667 -0.00569402 0.00000000
      vertex 0.00389711 -0.01100000 0.00000000
    endloop
  endfacet
  facet normal 0.99911382 -0.02690506 -0.03236811
    outer loop
      vertex 0.00413393 -0.00541533 -0.00679837
      vertex 0.00427975 0.00000000 -0.00679837
      vertex 0.00450000 0.00000000 0.00000000
    endloop
  endfacet
  facet normal 0.99911382 -0.02690506 -0.03236811
    outer loop
      vertex 0.00413393 -0.00541533 -0.00679837
      vertex 0.00450000 0.00000000 0.00000000
      vertex 0.00434667 -0.00569402 0.00000000
    endloop
  endfacet
  facet normal 0.99911382 0.02690506 0.03236811
    outer loop
      vertex 0.00450000 0.00000000 0.00000000
      vertex 0.00434667 0.00569402 0.00000000
      vertex 0.00413393 0.00541533 0.00679837
    endloop
  endfacet
  facet normal 0.99911382 0.02690506 0.03236811
    outer loop
      vertex 0.00450000 0.00000000 0.00000000
      vertex 0.00413393 0.00541533 0.00679837
      vertex 0.00427975 0.00000000 0.00679837
    endloop
  endfacet
  facet normal 0.99583265 0.08437242 0.03462119
    outer loop
      vertex 0.00434667 0.00569402 0.00000000
      vertex 0.00389711 0.01100000 0.00000000
      vertex 0.00370638 0.01046162 0.00679837
    endloop
  endfacet
  facet normal 0.99583265 0.08437242 0.03462119
    outer loop
      vertex 0.00434667 0.00569402 0.00000000
      vertex 0.00370638 0.01046162 0.00679837
      vertex 0.00413393 0.00541533 0.00679837
    endloop
  endfacet
  facet normal 0.98711660 0.15493116 0.03996435
    outer loop
      vertex 0.00389711 0.01100000 0.00000000
      vertex 0.00318198 0.01555635 0.00000000
      vertex 0.00302624 0.01479497 0.00679837
    endloop
  endfacet
  facet normal 0.98711660 0.15493116 0.03996435
    outer loop
      vertex 0.00389711 0.01100000 0.00000000
      vertex 0.00302624 0.01479497 0.00679837
      vertex 0.00370638 0.01046162 0.00679837
    endloop
  endfacet
  facet normal 0.96500518 0.25724030 0.05091590
    outer loop
      vertex 0.00318198 0.01555635 0.00000000
      vertex 0.00225000 0.01905256 0.00000000
      vertex 0.00213988 0.01812006 0.00679837
    endloop
  endfacet
  facet normal 0.96500518 0.25724030 0.05091590
    outer loop
      vertex 0.00318198 0.01555635 0.00000000
      vertex 0.00213988 0.01812006 0.00679837
      vertex 0.00302624 0.01479497 0.00679837
    endloop
  endfacet
  facet normal 0.89410560 0.44152402 0.07504471
    outer loop
      vertex 0.00225000 0.01905256 0.00000000
      vertex 0.00116469 0.02125037 0.00000000
      vertex 0.00110768 0.02021030 0.00679837
    endloop
  endfacet
  facet normal 0.89410560 0.44152402 0.07504471
    outer loop
      vertex 0.00225000 0.01905256 0.00000000
      vertex 0.00110768 0.02021030 0.00679837
      vertex 0.00213988 0.01812006 0.00679837
    endloop
  endfacet
  facet normal 0.53648295 0.83352121 0.13201679
    outer loop
      vertex 0.00116469 0.02125037 0.00000000
      vertex 0.00000000 0.02200000 0.00000000
      vertex 0.00000000 0.02092324 0.00679837
    endloop
  endfacet
  facet normal 0.53648295 0.83352121 0.13201679
    outer loop
      vertex 0.00116469 0.02125037 0.00000000
      vertex 0.00000000 0.02092324 0.00679837
      vertex 0.00110768 0.02021030 0.00679837
    endloop
  endfacet
  facet normal -0.53648295 0.83352121 0.13201679
    outer loop
      vertex 0.00000000 0.02200000 0.00000000
      vertex -0.00116469 0.02125037 0.00000000
      vertex -0.00110768 0.02021030 0.00679837
    endloop
  endfacet
  facet normal -0.53648295 0.83352121 0.13201679
    outer loop
      vertex 0.00000000 0.02200000 0.00000000
      vertex -0.00110768 0.02021030 0.00679837
      vertex 0.00000000 0.02092324 0.00679837
    endloop
  endfacet
  facet normal -0.89410560 0.44152402 0.07504471
    outer loop
      vertex -0.00116469 0.02125037 0.00000000
      vertex -0.00225000 0.01905256 0.00000000
      vertex -0.00213988 0.01812006 0.00679837
    endloop
  endfacet
  facet normal -0.89410560 0.44152402 0.07504471
    outer loop
      vertex -0.00116469 0.02125037 0.00000000
      vertex -0.00213988 0.01812006 0.00679837
      vertex -0.00110768 0.02021030 0.00679837
    endloop
  endfacet
  facet normal -0.96500518 0.25724030 0.05091590
    outer loop
      vertex -0.00225000 0.01905256 0.00000000
      vertex -0.00318198 0.01555635 0.00000000
      vertex -0.00302624 0.01479497 0.00679837
    endloop
  endfacet
  facet normal -0.96500518 0.25724030 0.05091590
    outer loop
      vertex -0.00225000 0.01905256 0.00000000
      vertex -0.00302624 0.01479497 0.00679837
      vertex -0.00213988 0.01812006 0.00679837
    endloop
  endfacet
  facet normal -0.98711660 0.15493116 0.03996435
    outer loop
      vertex -0.00318198 0.01555635 0.00000000
      vertex -0.00389711 0.01100000 0.00000000
      vertex -0.00370638 0.01046162 0.00679837
    endloop
  endfacet
  facet normal -0.98711660 0.15493116 0.03996435
    outer loop
      vertex -0.00318198 0.01555635 0.00000000
      vertex -0.00370638 0.01046162 0.00679837
      vertex -0.00302624 0.01479497 0.00679837
    endloop
  endfacet
  facet normal -0.99583265 0.08437242 0.03462119
    outer loop
      vertex -0.00389711 0.01100000 0.00000000
      vertex -0.00434667 0.00569402 0.00000000
      vertex -0.00413393 0.00541533 0.00679837
    endloop
  endfacet
  facet normal -0.99583265 0.08437242 0.03462119
    outer loop
      vertex -0.00389711 0.01100000 0.00000000
      vertex -0.00413393 0.00541533 0.00679837
      vertex -0.00370638 0.01046162 0.00679837
    endloop
  endfacet
  facet normal -0.99911382 0.02690506 0.03236811
    outer loop
      vertex -0.00434667 0.00569402 0.00000000
      vertex -0.00450000 0.00000000 0.00000000
      vertex -0.00427975 0.00000000 0.00679837
    endloop
  endfacet
  facet normal -0.99911382 0.02690506 0.03236811
    outer loop
      vertex -0.00434667 0.00569402 0.00000000
      vertex -0.00427975 0.00000000 0.00679837
      vertex -0.00413393 0.00541533 0.00679837
    endloop
  endfacet
  facet normal -0.99911382 -0.02690506 0.03236811
    outer loop
      vertex -0.00450000 0.00000000 0.00000000
      vertex -0.00434667 -0.00569402 0.00000000
      vertex -0.00413393 -0.00541533 0.00679837
    endloop
  endfacet
  facet normal -0.99911382 -0.02690506 0.03236811
    outer loop
      vertex -0.00450000 0.00000000 0.00000000
      vertex -0.00413393 -0.00541533 0.00679837
      vertex -0.00427975 0.00000000 0.00679837
    endloop
  endfacet
  facet normal -0.99583265 -0.08437242 0.03462119
    outer loop
      vertex -0.00434667 -0.00569402 0.00000000
      vertex -0.00389711 -0.01100000 0.00000000
      vertex -0.00370638 -0.01046162 0.00679837
    endloop
  endfacet
  facet normal -0.99583265 -0.08437242 0.03462119
    outer loop
      vertex -0.00434667 -0.00569402 0.00000000
      vertex -0.00370638 -0.01046162 0.00679837
      vertex -0.00413393 -0.00541533 0.00679837
    endloop
  endfacet
  facet normal -0.98711660 -0.15493116 0.03996435
    outer loop
      vertex -0.00389711 -0.01100000 0.00000000
      vertex -0.00318198 -0.01555635 0.00000000
      vertex -0.00302624 -0.01479497 0.00679837
    endloop
  endfacet
  facet normal -0.98711660 -0.15493116 0.03996435
    outer loop
      vertex -0.00389711 -0.01100000 0.00000000
      vertex -0.00302624 -0.01479497 0.00679837
      vertex -0.00370638 -0.01046162 0.00679837
    endloop
  endfacet
  facet normal -0.96500518 -0.25724030 0.05091590
    outer loop
      vertex -0.00318198 -0.01555635 0.00000000
      vertex -0.00225000 -0.01905256 0.00000000
      vertex -0.00213988 -0.01812006 0.00679837
    endloop
  endfacet
  facet normal -0.96500518 -0.25724030 0.05091590
    outer loop
      vertex -0.00318198 -0.01555635 0.00000000
      vertex -0.00213988 -0.01812006 0.00679837
      vertex -0.00302624 -0.01479497 0.00679837
    endloop
  endfacet
  facet normal -0.89410560 -0.44152402 0.07504471
    outer loop
      vertex -0.00225000 -0.01905256 0.00000000
      vertex -0.00116469 -0.02125037 0.00000000
      vertex -0.00110768 -0.02021030 0.00679837
    endloop
  endfacet
  facet normal -0.89410560 -0.44152402 0.07504471
    outer loop
      vertex -0.00225000 -0.01905256 0.00000000
      vertex -0.00110768 -0.02021030 0.00679837
      vertex -0.00213988 -0.01812006 0.00679837
    endloop
  endfacet
  facet normal -0.53648295 -0.83352121 0.13201679
    outer loop
      vertex -0.00116469 -0.02125037 0.00000000
      vertex -0.00000000 -0.02200000 0.00000000
      vertex -0.00000000 -0.02092324 0.00679837
    endloop
  endfacet
  facet normal -0.53648295 -0.83352121 0.13201679
    outer loop
      vertex -0.00116469 -0.02125037 0.00000000
      vertex -0.00000000 -0.02092324 0.00679837
      vertex -0.00110768 -0.02021030 0.00679837
    endloop
  endfacet
  facet normal 0.53648295 -0.83352121 0.13201679
    outer loop
      vertex -0.00000000 -0.02200000 0.00000000
      vertex 0.00116469 -0.02125037 0.00000000
      vertex 0.00110768 -0.02021030 0.00679837
    endloop
  endfacet
  facet normal 0.53648295 -0.83352121 0.13201679
    outer loop
      vertex -0.00000000 -0.02200000 0.00000000
      vertex 0.00110768 -0.02021030 0.00679837
      vertex -0.00000000 -0.02092324 0.00679837
    endloop
  endfacet
  facet normal 0.89410560 -0.44152402 0.07504471
    outer loop
      vertex 0.00116469 -0.02125037 0.00000000
      vertex 0.00225000 -0.01905256 0.00000000
      vertex 0.00213988 -0.01812006 0.00679837
    endloop
  endfacet
  facet normal 0.89410560 -0.44152402 0.07504471
    outer loop
      vertex 0.00116469 -0.02125037 0.00000000
      vertex 0.00213988 -0.01812006 0.00679837
      vertex 0.00110768 -0.02021030 0.00679837
    endloop
  endfacet
  facet normal 0.96500518 -0.25724030 0.05091590
    outer loop
      vertex 0.00225000 -0.01905256 0.00000000
      vertex 0.00318198 -0.01555635 0.00000000
      vertex 0.00302624 -0.01479497 0.00679837
    endloop
  endfacet
  facet normal 0.96500518 -0.25724030 0.05091590
    outer loop
      vertex 0.00225000 -0.01905256 0.00000000
      vertex 0.00302624 -0.01479497 0.00679837
      vertex 0.00213988 -0.01812006 0.00679837
    endloop
  endfacet
  facet normal 0.98711660 -0.15493116 0.03996435
    outer loop
      vertex 0.00318198 -0.01555635 0.00000000
      vertex 0.00389711 -0.01100000 0.00000000
      vertex 0.00370638 -0.01046162 0.00679837
    endloop
  endfacet
  facet normal 0.98711660 -0.15493116 0.03996435
    outer loop
      vertex 0.00318198 -0.01555635 0.00000000
      vertex 0.00370638 -0.01046162 0.00679837
      vertex 0.00302624 -0.01479497 0.00679837
    endloop
  endfacet
  facet normal 0.99583265 -0.08437242 0.03462119
    outer loop
      vertex 0.00389711 -0.01100000 0.00000000
      vertex 0.00434667 -0.00569402 0.00000000
      vertex 0.00413393 -0.00541533 0.00679837
    endloop
  endfacet
  facet normal 0.99583265 -0.08437242 0.03462119
    outer loop
      vertex 0.00389711 -0.01100000 0.00000000
      vertex 0.00413393 -0.00541533 0.00679837
      vertex 0.00370638 -0.01046162 0.00679837
    endloop
  endfacet
  facet normal 0.99911382 -0.02690506 0.03236811
    outer loop
      vertex 0.00434667 -0.00569402 0.00000000
      vertex 0.00450000 0.00000000 0.00000000
      vertex 0.00427975 0.00000000 0.00679837
    endloop
  endfacet
  facet normal 0.99911382 -0.02690506 0.03236811
    outer loop
      vertex 0.00434667 -0.00569402 0.00000000
      vertex 0.00427975 0.00000000 0.00679837
      vertex 0.00413393 -0.00541533 0.00679837
    endloop
  endfacet
  facet normal 0.99425626 0.02677425 0.10362250
    outer loop
      vertex 0.00427975 0.00000000 0.00679837
      vertex 0.00413393 0.00541533 0.00679837
      vertex 0.00351653 0.00460656 0.01293128
    endloop
  endfacet
  facet normal 0.99425626 0.02677425 0.10362250
    outer loop
      vertex 0.00427975 0.00000000 0.00679837
      vertex 0.00351653 0.00460656 0.01293128
      vertex 0.00364058 0.00000000 0.01293128
    endloop
  endfacet
  facet normal 0.99029936 0.08390361 0.11075808
    outer loop
      vertex 0.00413393 0.00541533 0.00679837
      vertex 0.00370638 0.01046162 0.00679837
      vertex 0.00315283 0.00889919 0.01293128
    endloop
  endfacet
  facet normal 0.99029936 0.08390361 0.11075808
    outer loop
      vertex 0.00413393 0.00541533 0.00679837
      vertex 0.00315283 0.00889919 0.01293128
      vertex 0.00351653 0.00460656 0.01293128
    endloop
  endfacet
  facet normal 0.97982828 0.15378723 0.12761673
    outer loop
      vertex 0.00370638 0.01046162 0.00679837
      vertex 0.00302624 0.01479497 0.00679837
      vertex 0.00257428 0.01258535 0.01293128
    endloop
  endfacet
  facet normal 0.97982828 0.15378723 0.12761673
    outer loop
      vertex 0.00370638 0.01046162 0.00679837
      vertex 0.00257428 0.01258535 0.01293128
      vertex 0.00315283 0.00889919 0.01293128
    endloop
  endfacet
  facet normal 0.95351908 0.25417846 0.16184770
    outer loop
      vertex 0.00302624 0.01479497 0.00679837
      vertex 0.00213988 0.01812006 0.00679837
      vertex 0.00182029 0.01541384 0.01293128
    endloop
  endfacet
  facet normal 0.95351908 0.25417846 0.16184770
    outer loop
      vertex 0.00302624 0.01479497 0.00679837
      vertex 0.00182029 0.01541384 0.01293128
      vertex 0.00257428 0.01258535 0.01293128
    endloop
  endfacet
  facet normal 0.87145791 0.43034022 0.23530493
    outer loop
      vertex 0.00213988 0.01812006 0.00679837
      vertex 0.00110768 0.02021030 0.00679837
      vertex 0.00094225 0.01719191 0.01293128
    endloop
  endfacet
  facet normal 0.87145791 0.43034022 0.23530493
    outer loop
      vertex 0.00213988 0.01812006 0.00679837
      vertex 0.00094225 0.01719191 0.01293128
      vertex 0.00182029 0.01541384 0.01293128
    endloop
  endfacet
  facet normal 0.49748148 0.77292552 0.39382523
    outer loop
      vertex 0.00110768 0.02021030 0.00679837
      vertex 0.00000000 0.02092324 0.00679837
      vertex 0.00000000 0.01779837 0.01293128
    endloop
  endfacet
  facet normal 0.49748148 0.77292552 0.39382523
    outer loop
      vertex 0.00110768 0.02021030 0.00679837
      vertex 0.00000000 0.01779837 0.01293128
      vertex 0.00094225 0.01719191 0.01293128
    endloop
  endfacet
  facet normal -0.49748148 0.77292552 0.39382523
    outer loop
      vertex 0.00000000 0.02092324 0.00679837
      vertex -0.00110768 0.02021030 0.00679837
      vertex -0.00094225 0.01719191 0.01293128
    endloop
  endfacet
  facet normal -0.49748148 0.77292552 0.39382523
    outer loop
      vertex 0.00000000 0.02092324 0.00679837
      vertex -0.00094225 0.01719191 0.01293128
      vertex 0.00000000 0.01779837 0.01293128
    endloop
  endfacet
  facet normal -0.87145791 0.43034022 0.23530493
    outer loop
      vertex -0.00110768 0.02021030 0.00679837
      vertex -0.00213988 0.01812006 0.00679837
      vertex -0.00182029 0.01541384 0.01293128
    endloop
  endfacet
  facet normal -0.87145791 0.43034022 0.23530493
    outer loop
      vertex -0.00110768 0.02021030 0.00679837
      vertex -0.00182029 0.01541384 0.01293128
      vertex -0.00094225 0.01719191 0.01293128
    endloop
  endfacet
  facet normal -0.95351908 0.25417846 0.16184770
    outer loop
      vertex -0.00213988 0.01812006 0.00679837
      vertex -0.00302624 0.01479497 0.00679837
      vertex -0.00257428 0.01258535 0.01293128
    endloop
  endfacet
  facet normal -0.95351908 0.25417846 0.16184770
    outer loop
      vertex -0.00213988 0.01812006 0.00679837
      vertex -0.00257428 0.01258535 0.01293128
      vertex -0.00182029 0.01541384 0.01293128
    endloop
  endfacet
  facet normal -0.97982828 0.15378723 0.12761673
    outer loop
      vertex -0.00302624 0.01479497 0.00679837
      vertex -0.00370638 0.01046162 0.00679837
      vertex -0.00315283 0.00889919 0.01293128
    endloop
  endfacet
  facet normal -0.97982828 0.15378723 0.12761673
    outer loop
      vertex -0.00302624 0.01479497 0.00679837
      vertex -0.00315283 0.00889919 0.01293128
      vertex -0.00257428 0.01258535 0.01293128
    endloop
  endfacet
  facet normal -0.99029936 0.08390361 0.11075808
    outer loop
      vertex -0.00370638 0.01046162 0.00679837
      vertex -0.00413393 0.00541533 0.00679837
      vertex -0.00351653 0.00460656 0.01293128
    endloop
  endfacet
  facet normal -0.99029936 0.08390361 0.11075808
    outer loop
      vertex -0.00370638 0.01046162 0.00679837
      vertex -0.00351653 0.00460656 0.01293128
      vertex -0.00315283 0.00889919 0.01293128
    endloop
  endfacet
  facet normal -0.99425626 0.02677425 0.10362250
    outer loop
      vertex -0.00413393 0.00541533 0.00679837
      vertex -0.00427975 0.00000000 0.00679837
      vertex -0.00364058 0.00000000 0.01293128
    endloop
  endfacet
  facet normal -0.99425626 0.02677425 0.10362250
    outer loop
      vertex -0.00413393 0.00541533 0.00679837
      vertex -0.00364058 0.00000000 0.01293128
      vertex -0.00351653 0.00460656 0.01293128
    endloop
  endfacet
  facet normal -0.99425626 -0.02677425 0.10362250
    outer loop
      vertex -0.00427975 0.00000000 0.00679837
      vertex -0.00413393 -0.00541533 0.00679837
      vertex -0.00351653 -0.00460656 0.01293128
    endloop
  endfacet
  facet normal -0.99425626 -0.02677425 0.10362250
    outer loop
      vertex -0.00427975 0.00000000 0.00679837
      vertex -0.00351653 -0.00460656 0.01293128
      vertex -0.00364058 0.00000000 0.01293128
    endloop
  endfacet
  facet normal -0.99029936 -0.08390361 0.11075808
    outer loop
      vertex -0.00413393 -0.00541533 0.00679837
      vertex -0.00370638 -0.01046162 0.00679837
      vertex -0.00315283 -0.00889919 0.01293128
    endloop
  endfacet
  facet normal -0.99029936 -0.08390361 0.11075808
    outer loop
      vertex -0.00413393 -0.00541533 0.00679837
      vertex -0.00315283 -0.00889919 0.01293128
      vertex -0.00351653 -0.00460656 0.01293128
    endloop
  endfacet
  facet normal -0.97982828 -0.15378723 0.12761673
    outer loop
      vertex -0.00370638 -0.01046162 0.00679837
      vertex -0.00302624 -0.01479497 0.00679837
      vertex -0.00257428 -0.01258535 0.01293128
    endloop
  endfacet
  facet normal -0.97982828 -0.15378723 0.12761673
    outer loop
      vertex -0.00370638 -0.01046162 0.00679837
      vertex -0.00257428 -0.01258535 0.01293128
      vertex -0.00315283 -0.00889919 0.01293128
    endloop
  endfacet
  facet normal -0.95351908 -0.25417846 0.16184770
    outer loop
      vertex -0.00302624 -0.01479497 0.00679837
      vertex -0.00213988 -0.01812006 0.00679837
      vertex -0.00182029 -0.01541384 0.01293128
    endloop
  endfacet
  facet normal -0.95351908 -0.25417846 0.16184770
    outer loop
      vertex -0.00302624 -0.01479497 0.00679837
      vertex -0.00182029 -0.01541384 0.01293128
      vertex -0.00257428 -0.01258535 0.01293128
    endloop
  endfacet
  facet normal -0.87145791 -0.43034022 0.23530493
    outer loop
      vertex -0.00213988 -0.01812006 0.00679837
      vertex -0.00110768 -0.02021030 0.00679837
      vertex -0.00094225 -0.01719191 0.01293128
    endloop
  endfacet
  facet normal -0.87145791 -0.43034022 0.23530493
    outer loop
      vertex -0.00213988 -0.01812006 0.00679837
      vertex -0.00094225 -0.01719191 0.01293128
      vertex -0.00182029 -0.01541384 0.01293128
    endloop
  endfacet
  facet normal -0.49748148 -0.77292552 0.39382523
    outer loop
      vertex -0.00110768 -0.02021030 0.00679837
      vertex -0.00000000 -0.02092324 0.00679837
      vertex -0.00000000 -0.01779837 0.01293128
    endloop
  endfacet
  facet normal -0.49748148 -0.77292552 0.39382523
    outer loop
      vertex -0.00110768 -0.02021030 0.00679837
      vertex -0.00000000 -0.01779837 0.01293128
      vertex -0.00094225 -0.01719191 0.01293128
    endloop
  endfacet
  facet normal 0.49748148 -0.77292552 0.39382523
    outer loop
      vertex -0.00000000 -0.02092324 0.00679837
      vertex 0.00110768 -0.02021030 0.00679837
      vertex 0.00094225 -0.01719191 0.01293128
    endloop
  endfacet
  facet normal 0.49748148 -0.77292552 0.39382523
    outer loop
      vertex -0.00000000 -0.02092324 0.00679837
      vertex 0.00094225 -0.01719191 0.01293128
      vertex -0.00000000 -0.01779837 0.01293128
    endloop
  endfacet
  facet normal 0.87145791 -0.43034022 0.23530493
    outer loop
      vertex 0.00110768 -0.02021030 0.00679837
      vertex 0.00213988 -0.01812006 0.00679837
      vertex 0.00182029 -0.01541384 0.01293128
    endloop
  endfacet
  facet normal 0.87145791 -0.43034022 0.23530493
    outer loop
      vertex 0.00110768 -0.02021030 0.00679837
      vertex 0.00182029 -0.01541384 0.01293128
      vertex 0.00094225 -0.01719191 0.01293128
    endloop
  endfacet
  facet normal 0.95351908 -0.25417846 0.16184770
    outer loop
      vertex 0.00213988 -0.01812006 0.00679837
      vertex 0.00302624 -0.01479497 0.00679837
      vertex 0.00257428 -0.01258535 0.01293128
    endloop
  endfacet
  facet normal 0.95351908 -0.25417846 0.16184770
    outer loop
      vertex 0.00213988 -0.01812006 0.00679837
      vertex 0.00257428 -0.01258535 0.01293128
      vertex 0.00182029 -0.01541384 0.01293128
    endloop
  endfacet
  facet normal 0.97982828 -0.15378723 0.12761673
    outer loop
      vertex 0.00302624 -0.01479497 0.00679837
      vertex 0.00370638 -0.01046162 0.00679837
      vertex 0.00315283 -0.00889919 0.01293128
    endloop
  endfacet
  facet normal 0.97982828 -0.15378723 0.12761673
    outer loop
      vertex 0.00302624 -0.01479497 0.00679837
      vertex 0.00315283 -0.00889919 0.01293128
      vertex 0.00257428 -0.01258535 0.01293128
    endloop
  endfacet
  facet normal 0.99029936 -0.08390361 0.11075808
    outer loop
      vertex 0.00370638 -0.01046162 0.00679837
      vertex 0.00413393 -0.00541533 0.00679837
      vertex 0.00351653 -0.00460656 0.01293128
    endloop
  endfacet
  facet normal 0.99029936 -0.08390361 0.11075808
    outer loop
      vertex 0.00370638 -0.01046162 0.00679837
      vertex 0.00351653 -0.00460656 0.01293128
      vertex 0.00315283 -0.00889919 0.01293128
    endloop
  endfacet
  facet normal 0.99425626 -0.02677425 0.10362250
    outer loop
      vertex 0.00413393 -0.00541533 0.00679837
      vertex 0.00427975 0.00000000 0.00679837
      vertex 0.00364058 0.00000000 0.01293128
    endloop
  endfacet
  facet normal 0.99425626 -0.02677425 0.10362250
    outer loop
      vertex 0.00413393 -0.00541533 0.00679837
      vertex 0.00364058 0.00000000 0.01293128
      vertex 0.00351653 -0.00460656 0.01293128
    endloop
  endfacet
  facet normal 0.97937415 0.02637349 0.20032653
    outer loop
      vertex 0.00364058 0.00000000 0.01293128
      vertex 0.00351653 0.00460656 0.01293128
      vertex 0.00255491 0.00334686 0.01779837
    endloop
  endfacet
  facet normal 0.97937415 0.02637349 0.20032653
    outer loop
      vertex 0.00364058 0.00000000 0.01293128
      vertex 0.00255491 0.00334686 0.01779837
      vertex 0.00264503 0.00000000 0.01779837
    endloop
  endfacet
  facet normal 0.97341845 0.08247337 0.21366954
    outer loop
      vertex 0.00351653 0.00460656 0.01293128
      vertex 0.00315283 0.00889919 0.01293128
      vertex 0.00229067 0.00646564 0.01779837
    endloop
  endfacet
  facet normal 0.97341845 0.08247337 0.21366954
    outer loop
      vertex 0.00351653 0.00460656 0.01293128
      vertex 0.00229067 0.00646564 0.01779837
      vertex 0.00255491 0.00334686 0.01779837
    endloop
  endfacet
  facet normal 0.95783728 0.15033567 0.24484063
    outer loop
      vertex 0.00315283 0.00889919 0.01293128
      vertex 0.00257428 0.01258535 0.01293128
      vertex 0.00187032 0.00914379 0.01779837
    endloop
  endfacet
  facet normal 0.95783728 0.15033567 0.24484063
    outer loop
      vertex 0.00315283 0.00889919 0.01293128
      vertex 0.00187032 0.00914379 0.01779837
      vertex 0.00229067 0.00646564 0.01779837
    endloop
  endfacet
  facet normal 0.91978251 0.24518535 0.30640540
    outer loop
      vertex 0.00257428 0.01258535 0.01293128
      vertex 0.00182029 0.01541384 0.01293128
      vertex 0.00132252 0.01119881 0.01779837
    endloop
  endfacet
  facet normal 0.91978251 0.24518535 0.30640540
    outer loop
      vertex 0.00257428 0.01258535 0.01293128
      vertex 0.00132252 0.01119881 0.01779837
      vertex 0.00187032 0.00914379 0.01779837
    endloop
  endfacet
  facet normal 0.80986110 0.39992270 0.42916992
    outer loop
      vertex 0.00182029 0.01541384 0.01293128
      vertex 0.00094225 0.01719191 0.01293128
      vertex 0.00068459 0.01249065 0.01779837
    endloop
  endfacet
  facet normal 0.80986110 0.39992270 0.42916992
    outer loop
      vertex 0.00182029 0.01541384 0.01293128
      vertex 0.00068459 0.01249065 0.01779837
      vertex 0.00132252 0.01119881 0.01779837
    endloop
  endfacet
  facet normal 0.41423498 0.64358736 0.64358736
    outer loop
      vertex 0.00094225 0.01719191 0.01293128
      vertex 0.00000000 0.01779837 0.01293128
      vertex 0.00000000 0.01293128 0.01779837
    endloop
  endfacet
  facet normal 0.41423498 0.64358736 0.64358736
    outer loop
      vertex 0.00094225 0.01719191 0.01293128
      vertex 0.00000000 0.01293128 0.01779837
      vertex 0.00068459 0.01249065 0.01779837
    endloop
  endfacet
  facet normal -0.41423498 0.64358736 0.64358736
    outer loop
      vertex 0.00000000 0.01779837 0.01293128
      vertex -0.00094225 0.01719191 0.01293128
      vertex -0.00068459 0.01249065 0.01779837
    endloop
  endfacet
  facet normal -0.41423498 0.64358736 0.64358736
    outer loop
      vertex 0.00000000 0.01779837 0.01293128
      vertex -0.00068459 0.01249065 0.01779837
      vertex 0.00000000 0.01293128 0.01779837
    endloop
  endfacet
  facet normal -0.80986110 0.39992270 0.42916992
    outer loop
      vertex -0.00094225 0.01719191 0.01293128
      vertex -0.00182029 0.01541384 0.01293128
      vertex -0.00132252 0.01119881 0.01779837
    endloop
  endfacet
  facet normal -0.80986110 0.39992270 0.42916992
    outer loop
      vertex -0.00094225 0.01719191 0.01293128
      vertex -0.00132252 0.01119881 0.01779837
      vertex -0.00068459 0.01249065 0.01779837
    endloop
  endfacet
  facet normal -0.91978251 0.24518535 0.30640540
    outer loop
      vertex -0.00182029 0.01541384 0.01293128
      vertex -0.00257428 0.01258535 0.01293128
      vertex -0.00187032 0.00914379 0.01779837
    endloop
  endfacet
  facet normal -0.91978251 0.24518535 0.30640540
    outer loop
      vertex -0.00182029 0.01541384 0.01293128
      vertex -0.00187032 0.00914379 0.01779837
      vertex -0.00132252 0.01119881 0.01779837
    endloop
  endfacet
  facet normal -0.95783728 0.15033567 0.24484063
    outer loop
      vertex -0.00257428 0.01258535 0.01293128
      vertex -0.00315283 0.00889919 0.01293128
      vertex -0.00229067 0.00646564 0.01779837
    endloop
  endfacet
  facet normal -0.95783728 0.15033567 0.24484063
    outer loop
      vertex -0.00257428 0.01258535 0.01293128
      vertex -0.00229067 0.00646564 0.01779837
      vertex -0.00187032 0.00914379 0.01779837
    endloop
  endfacet
  facet normal -0.97341845 0.08247337 0.21366954
    outer loop
      vertex -0.00315283 0.00889919 0.01293128
      vertex -0.00351653 0.00460656 0.01293128
      vertex -0.00255491 0.00334686 0.01779837
    endloop
  endfacet
  facet normal -0.97341845 0.08247337 0.21366954
    outer loop
      vertex -0.00315283 0.00889919 0.01293128
      vertex -0.00255491 0.00334686 0.01779837
      vertex -0.00229067 0.00646564 0.01779837
    endloop
  endfacet
  facet normal -0.97937415 0.02637349 0.20032653
    outer loop
      vertex -0.00351653 0.00460656 0.01293128
      vertex -0.00364058 0.00000000 0.01293128
      vertex -0.00264503 0.00000000 0.01779837
    endloop
  endfacet
  facet normal -0.97937415 0.02637349 0.20032653
    outer loop
      vertex -0.00351653 0.00460656 0.01293128
      vertex -0.00264503 0.00000000 0.01779837
      vertex -0.00255491 0.00334686 0.01779837
    endloop
  endfacet
  facet normal -0.97937415 -0.02637349 0.20032653
    outer loop
      vertex -0.00364058 0.00000000 0.01293128
      vertex -0.00351653 -0.00460656 0.01293128
      vertex -0.00255491 -0.00334686 0.01779837
    endloop
  endfacet
  facet normal -0.97937415 -0.02637349 0.20032653
    outer loop
      vertex -0.00364058 0.00000000 0.01293128
      vertex -0.00255491 -0.00334686 0.01779837
      vertex -0.00264503 0.00000000 0.01779837
    endloop
  endfacet
  facet normal -0.97341845 -0.08247337 0.21366954
    outer loop
      vertex -0.00351653 -0.00460656 0.01293128
      vertex -0.00315283 -0.00889919 0.01293128
      vertex -0.00229067 -0.00646564 0.01779837
    endloop
  endfacet
  facet normal -0.97341845 -0.08247337 0.21366954
    outer loop
      vertex -0.00351653 -0.00460656 0.01293128
      vertex -0.00229067 -0.00646564 0.01779837
      vertex -0.00255491 -0.00334686 0.01779837
    endloop
  endfacet
  facet normal -0.95783728 -0.15033567 0.24484063
    outer loop
      vertex -0.00315283 -0.00889919 0.01293128
      vertex -0.00257428 -0.01258535 0.01293128
      vertex -0.00187032 -0.00914379 0.01779837
    endloop
  endfacet
  facet normal -0.95783728 -0.15033567 0.24484063
    outer loop
      vertex -0.00315283 -0.00889919 0.01293128
      vertex -0.00187032 -0.00914379 0.01779837
      vertex -0.00229067 -0.00646564 0.01779837
    endloop
  endfacet
  facet normal -0.91978251 -0.24518535 0.30640540
    outer loop
      vertex -0.00257428 -0.01258535 0.01293128
      vertex -0.00182029 -0.01541384 0.01293128
      vertex -0.00132252 -0.01119881 0.01779837
    endloop
  endfacet
  facet normal -0.91978251 -0.24518535 0.30640540
    outer loop
      vertex -0.00257428 -0.01258535 0.01293128
      vertex -0.00132252 -0.01119881 0.01779837
      vertex -0.00187032 -0.00914379 0.01779837
    endloop
  endfacet
  facet normal -0.80986110 -0.39992270 0.42916992
    outer loop
      vertex -0.00182029 -0.01541384 0.01293128
      vertex -0.00094225 -0.01719191 0.01293128
      vertex -0.00068459 -0.01249065 0.01779837
    endloop
  endfacet
  facet normal -0.80986110 -0.39992270 0.42916992
    outer loop
      vertex -0.00182029 -0.01541384 0.01293128
      vertex -0.00068459 -0.01249065 0.01779837
      vertex -0.00132252 -0.01119881 0.01779837
    endloop
  endfacet
  facet normal -0.41423498 -0.64358736 0.64358736
    outer loop
      vertex -0.00094225 -0.01719191 0.01293128
      vertex -0.00000000 -0.01779837 0.01293128
      vertex -0.00000000 -0.01293128 0.01779837
    endloop
  endfacet
  facet normal -0.41423498 -0.64358736 0.64358736
    outer loop
      vertex -0.00094225 -0.01719191 0.01293128
      vertex -0.00000000 -0.01293128 0.01779837
      vertex -0.00068459 -0.01249065 0.01779837
    endloop
  endfacet
  facet normal 0.41423498 -0.64358736 0.64358736
    outer loop
      vertex -0.00000000 -0.01779837 0.01293128
      vertex 0.00094225 -0.01719191 0.01293128
      vertex 0.00068459 -0.01249065 0.01779837
    endloop
  endfacet
  facet normal 0.41423498 -0.64358736 0.64358736
    outer loop
      vertex -0.00000000 -0.01779837 0.01293128
      vertex 0.00068459 -0.01249065 0.01779837
      vertex -0.00000000 -0.01293128 0.01779837
    endloop
  endfacet
  facet normal 0.80986110 -0.39992270 0.42916992
    outer loop
      vertex 0.00094225 -0.01719191 0.01293128
      vertex 0.00182029 -0.01541384 0.01293128
      vertex 0.00132252 -0.01119881 0.01779837
    endloop
  endfacet
  facet normal 0.80986110 -0.39992270 0.42916992
    outer loop
      vertex 0.00094225 -0.01719191 0.01293128
      vertex 0.00132252 -0.01119881 0.01779837
      vertex 0.00068459 -0.01249065 0.01779837
    endloop
  endfacet
  facet normal 0.91978251 -0.24518535 0.30640540
    outer loop
      vertex 0.00182029 -0.01541384 0.01293128
      vertex 0.00257428 -0.01258535 0.01293128
      vertex 0.00187032 -0.00914379 0.01779837
    endloop
  endfacet
  facet normal 0.91978251 -0.24518535 0.30640540
    outer loop
      vertex 0.00182029 -0.01541384 0.01293128
      vertex 0.00187032 -0.00914379 0.01779837
      vertex 0.00132252 -0.01119881 0.01779837
    endloop
  endfacet
  facet normal 0.95783728 -0.15033567 0.24484063
    outer loop
      vertex 0.00257428 -0.01258535 0.01293128
      vertex 0.00315283 -0.00889919 0.01293128
      vertex 0.00229067 -0.00646564 0.01779837
    endloop
  endfacet
  facet normal 0.95783728 -0.15033567 0.24484063
    outer loop
      vertex 0.00257428 -0.01258535 0.01293128
      vertex 0.00229067 -0.00646564 0.01779837
      vertex 0.00187032 -0.00914379 0.01779837
    endloop
  endfacet
  facet normal 0.97341845 -0.08247337 0.21366954
    outer loop
      vertex 0.00315283 -0.00889919 0.01293128
      vertex 0.00351653 -0.00460656 0.01293128
      vertex 0.00255491 -0.00334686 0.01779837
    endloop
  endfacet
  facet normal 0.97341845 -0.08247337 0.21366954
    outer loop
      vertex 0.00315283 -0.00889919 0.01293128
      vertex 0.00255491 -0.00334686 0.01779837
      vertex 0.00229067 -0.00646564 0.01779837
    endloop
  endfacet
  facet normal 0.97937415 -0.02637349 0.20032653
    outer loop
      vertex 0.00351653 -0.00460656 0.01293128
      vertex 0.00364058 0.00000000 0.01293128
      vertex 0.00264503 0.00000000 0.01779837
    endloop
  endfacet
  facet normal 0.97937415 -0.02637349 0.20032653
    outer loop
      vertex 0.00351653 -0.00460656 0.01293128
      vertex 0.00264503 0.00000000 0.01779837
      vertex 0.00255491 -0.00334686 0.01779837
    endloop
  endfacet
  facet normal 0.92772454 0.02498262 0.37242858
    outer loop
      vertex 0.00264503 0.00000000 0.01779837
      vertex 0.00255491 0.00334686 0.01779837
      vertex 0.00134319 0.00175955 0.02092324
    endloop
  endfacet
  facet normal 0.92772454 0.02498262 0.37242858
    outer loop
      vertex 0.00264503 0.00000000 0.01779837
      vertex 0.00134319 0.00175955 0.02092324
      vertex 0.00139058 0.00000000 0.02092324
    endloop
  endfacet
  facet normal 0.91563409 0.07757756 0.39445651
    outer loop
      vertex 0.00255491 0.00334686 0.01779837
      vertex 0.00229067 0.00646564 0.01779837
      vertex 0.00120427 0.00339919 0.02092324
    endloop
  endfacet
  facet normal 0.91563409 0.07757756 0.39445651
    outer loop
      vertex 0.00255491 0.00334686 0.01779837
      vertex 0.00120427 0.00339919 0.02092324
      vertex 0.00134319 0.00175955 0.02092324
    endloop
  endfacet
  facet normal 0.88515817 0.13892845 0.44406520
    outer loop
      vertex 0.00229067 0.00646564 0.01779837
      vertex 0.00187032 0.00914379 0.01779837
      vertex 0.00098329 0.00480718 0.02092324
    endloop
  endfacet
  facet normal 0.88515817 0.13892845 0.44406520
    outer loop
      vertex 0.00229067 0.00646564 0.01779837
      vertex 0.00098329 0.00480718 0.02092324
      vertex 0.00120427 0.00339919 0.02092324
    endloop
  endfacet
  facet normal 0.81690123 0.21776040 0.53409061
    outer loop
      vertex 0.00187032 0.00914379 0.01779837
      vertex 0.00132252 0.01119881 0.01779837
      vertex 0.00069529 0.00588756 0.02092324
    endloop
  endfacet
  facet normal 0.81690123 0.21776040 0.53409061
    outer loop
      vertex 0.00187032 0.00914379 0.01779837
      vertex 0.00069529 0.00588756 0.02092324
      vertex 0.00098329 0.00480718 0.02092324
    endloop
  endfacet
  facet normal 0.65574801 0.32381913 0.68200859
    outer loop
      vertex 0.00132252 0.01119881 0.01779837
      vertex 0.00068459 0.01249065 0.01779837
      vertex 0.00035991 0.00656672 0.02092324
    endloop
  endfacet
  facet normal 0.65574801 0.32381913 0.68200859
    outer loop
      vertex 0.00132252 0.01119881 0.01779837
      vertex 0.00035991 0.00656672 0.02092324
      vertex 0.00069529 0.00588756 0.02092324
    endloop
  endfacet
  facet normal 0.28047522 0.43576790 0.85524265
    outer loop
      vertex 0.00068459 0.01249065 0.01779837
      vertex 0.00000000 0.01293128 0.01779837
      vertex 0.00000000 0.00679837 0.02092324
    endloop
  endfacet
  facet normal 0.28047522 0.43576790 0.85524265
    outer loop
      vertex 0.00068459 0.01249065 0.01779837
      vertex 0.00000000 0.00679837 0.02092324
      vertex 0.00035991 0.00656672 0.02092324
    endloop
  endfacet
  facet normal -0.28047522 0.43576790 0.85524265
    outer loop
      vertex 0.00000000 0.01293128 0.01779837
      vertex -0.00068459 0.01249065 0.01779837
      vertex -0.00035991 0.00656672 0.02092324
    endloop
  endfacet
  facet normal -0.28047522 0.43576790 0.85524265
    outer loop
      vertex 0.00000000 0.01293128 0.01779837
      vertex -0.00035991 0.00656672 0.02092324
      vertex 0.00000000 0.00679837 0.02092324
    endloop
  endfacet
  facet normal -0.65574801 0.32381913 0.68200859
    outer loop
      vertex -0.00068459 0.01249065 0.01779837
      vertex -0.00132252 0.01119881 0.01779837
      vertex -0.00069529 0.00588756 0.02092324
    endloop
  endfacet
  facet normal -0.65574801 0.32381913 0.68200859
    outer loop
      vertex -0.00068459 0.01249065 0.01779837
      vertex -0.00069529 0.00588756 0.02092324
      vertex -0.00035991 0.00656672 0.02092324
    endloop
  endfacet
  facet normal -0.81690123 0.21776040 0.53409061
    outer loop
      vertex -0.00132252 0.01119881 0.01779837
      vertex -0.00187032 0.00914379 0.01779837
      vertex -0.00098329 0.00480718 0.02092324
    endloop
  endfacet
  facet normal -0.81690123 0.21776040 0.53409061
    outer loop
      vertex -0.00132252 0.01119881 0.01779837
      vertex -0.00098329 0.00480718 0.02092324
      vertex -0.00069529 0.00588756 0.02092324
    endloop
  endfacet
  facet normal -0.88515817 0.13892845 0.44406520
    outer loop
      vertex -0.00187032 0.00914379 0.01779837
      vertex -0.00229067 0.00646564 0.01779837
      vertex -0.00120427 0.00339919 0.02092324
    endloop
  endfacet
  facet normal -0.88515817 0.13892845 0.44406520
    outer loop
      vertex -0.00187032 0.00914379 0.01779837
      vertex -0.00120427 0.00339919 0.02092324
      vertex -0.00098329 0.00480718 0.02092324
    endloop
  endfacet
  facet normal -0.91563409 0.07757756 0.39445651
    outer loop
      vertex -0.00229067 0.00646564 0.01779837
      vertex -0.00255491 0.00334686 0.01779837
      vertex -0.00134319 0.00175955 0.02092324
    endloop
  endfacet
  facet normal -0.91563409 0.07757756 0.39445651
    outer loop
      vertex -0.00229067 0.00646564 0.01779837
      vertex -0.00134319 0.00175955 0.02092324
      vertex -0.00120427 0.00339919 0.02092324
    endloop
  endfacet
  facet normal -0.92772454 0.02498262 0.37242858
    outer loop
      vertex -0.00255491 0.00334686 0.01779837
      vertex -0.00264503 0.00000000 0.01779837
      vertex -0.00139058 0.00000000 0.02092324
    endloop
  endfacet
  facet normal -0.92772454 0.02498262 0.37242858
    outer loop
      vertex -0.00255491 0.00334686 0.01779837
      vertex -0.00139058 0.00000000 0.02092324
      vertex -0.00134319 0.00175955 0.02092324
    endloop
  endfacet
  facet normal -0.92772454 -0.02498262 0.37242858
    outer loop
      vertex -0.00264503 0.00000000 0.01779837
      vertex -0.00255491 -0.00334686 0.01779837
      vertex -0.00134319 -0.00175955 0.02092324
    endloop
  endfacet
  facet normal -0.92772454 -0.02498262 0.37242858
    outer loop
      vertex -0.00264503 0.00000000 0.01779837
      vertex -0.00134319 -0.00175955 0.02092324
      vertex -0.00139058 0.00000000 0.02092324
    endloop
  endfacet
  facet normal -0.91563409 -0.07757756 0.39445651
    outer loop
      vertex -0.00255491 -0.00334686 0.01779837
      vertex -0.00229067 -0.00646564 0.01779837
      vertex -0.00120427 -0.00339919 0.02092324
    endloop
  endfacet
  facet normal -0.91563409 -0.07757756 0.39445651
    outer loop
      vertex -0.00255491 -0.00334686 0.01779837
      vertex -0.00120427 -0.00339919 0.02092324
      vertex -0.00134319 -0.00175955 0.02092324
    endloop
  endfacet
  facet normal -0.88515817 -0.13892845 0.44406520
    outer loop
      vertex -0.00229067 -0.00646564 0.01779837
      vertex -0.00187032 -0.00914379 0.01779837
      vertex -0.00098329 -0.00480718 0.02092324
    endloop
  endfacet
  facet normal -0.88515817 -0.13892845 0.44406520
    outer loop
      vertex -0.00229067 -0.00646564 0.01779837
      vertex -0.00098329 -0.00480718 0.02092324
      vertex -0.00120427 -0.00339919 0.02092324
    endloop
  endfacet
  facet normal -0.81690123 -0.21776040 0.53409061
    outer loop
      vertex -0.00187032 -0.00914379 0.01779837
      vertex -0.00132252 -0.01119881 0.01779837
      vertex -0.00069529 -0.00588756 0.02092324
    endloop
  endfacet
  facet normal -0.81690123 -0.21776040 0.53409061
    outer loop
      vertex -0.00187032 -0.00914379 0.01779837
      vertex -0.00069529 -0.00588756 0.02092324
      vertex -0.00098329 -0.00480718 0.02092324
    endloop
  endfacet
  facet normal -0.65574801 -0.32381913 0.68200859
    outer loop
      vertex -0.00132252 -0.01119881 0.01779837
      vertex -0.00068459 -0.01249065 0.01779837
      vertex -0.00035991 -0.00656672 0.02092324
    endloop
  endfacet
  facet normal -0.65574801 -0.32381913 0.68200859
    outer loop
      vertex -0.00132252 -0.01119881 0.01779837
      vertex -0.00035991 -0.00656672 0.02092324
      vertex -0.00069529 -0.00588756 0.02092324
    endloop
  endfacet
  facet normal -0.28047522 -0.43576790 0.85524265
    outer loop
      vertex -0.00068459 -0.01249065 0.01779837
      vertex -0.00000000 -0.01293128 0.01779837
      vertex -0.00000000 -0.00679837 0.02092324
    endloop
  endfacet
  facet normal -0.28047522 -0.43576790 0.85524265
    outer loop
      vertex -0.00068459 -0.01249065 0.01779837
      vertex -0.00000000 -0.00679837 0.02092324
      vertex -0.00035991 -0.00656672 0.02092324
    endloop
  endfacet
  facet normal 0.28047522 -0.43576790 0.85524265
    outer loop
      vertex -0.00000000 -0.01293128 0.01779837
      vertex 0.00068459 -0.01249065 0.01779837
      vertex 0.00035991 -0.00656672 0.02092324
    endloop
  endfacet
  facet normal 0.28047522 -0.43576790 0.85524265
    outer loop
      vertex -0.00000000 -0.01293128 0.01779837
      vertex 0.00035991 -0.00656672 0.02092324
      vertex -0.00000000 -0.00679837 0.02092324
    endloop
  endfacet
  facet normal 0.65574801 -0.32381913 0.68200859
    outer loop
      vertex 0.00068459 -0.01249065 0.01779837
      vertex 0.00132252 -0.01119881 0.01779837
      vertex 0.00069529 -0.00588756 0.02092324
    endloop
  endfacet
  facet normal 0.65574801 -0.32381913 0.68200859
    outer loop
      vertex 0.00068459 -0.01249065 0.01779837
      vertex 0.00069529 -0.00588756 0.02092324
      vertex 0.00035991 -0.00656672 0.02092324
    endloop
  endfacet
  facet normal 0.81690123 -0.21776040 0.53409061
    outer loop
      vertex 0.00132252 -0.01119881 0.01779837
      vertex 0.00187032 -0.00914379 0.01779837
      vertex 0.00098329 -0.00480718 0.02092324
    endloop
  endfacet
  facet normal 0.81690123 -0.21776040 0.53409061
    outer loop
      vertex 0.00132252 -0.01119881 0.01779837
      vertex 0.00098329 -0.00480718 0.02092324
      vertex 0.00069529 -0.00588756 0.02092324
    endloop
  endfacet
  facet normal 0.88515817 -0.13892845 0.44406520
    outer loop
      vertex 0.00187032 -0.00914379 0.01779837
      vertex 0.00229067 -0.00646564 0.01779837
      vertex 0.00120427 -0.00339919 0.02092324
    endloop
  endfacet
  facet normal 0.88515817 -0.13892845 0.44406520
    outer loop
      vertex 0.00187032 -0.00914379 0.01779837
      vertex 0.00120427 -0.00339919 0.02092324
      vertex 0.00098329 -0.00480718 0.02092324
    endloop
  endfacet
  facet normal 0.91563409 -0.07757756 0.39445651
    outer loop
      vertex 0.00229067 -0.00646564 0.01779837
      vertex 0.00255491 -0.00334686 0.01779837
      vertex 0.00134319 -0.00175955 0.02092324
    endloop
  endfacet
  facet normal 0.91563409 -0.07757756 0.39445651
    outer loop
      vertex 0.00229067 -0.00646564 0.01779837
      vertex 0.00134319 -0.00175955 0.02092324
      vertex 0.00120427 -0.00339919 0.02092324
    endloop
  endfacet
  facet normal 0.92772454 -0.02498262 0.37242858
    outer loop
      vertex 0.00255491 -0.00334686 0.01779837
      vertex 0.00264503 0.00000000 0.01779837
      vertex 0.00139058 0.00000000 0.02092324
    endloop
  endfacet
  facet normal 0.92772454 -0.02498262 0.37242858
    outer loop
      vertex 0.00255491 -0.00334686 0.01779837
      vertex 0.00139058 0.00000000 0.02092324
      vertex 0.00134319 -0.00175955 0.02092324
    endloop
  endfacet
  facet normal 0.61215446 0.01648466 0.79056637
    outer loop
      vertex 0.00139058 0.00000000 0.02092324
      vertex 0.00134319 0.00175955 0.02092324
      vertex 0.00000000 0.00000000 0.02200000
    endloop
  endfacet
  facet normal 0.58441718 0.04951504 0.80994124
    outer loop
      vertex 0.00134319 0.00175955 0.02092324
      vertex 0.00120427 0.00339919 0.02092324
      vertex 0.00000000 0.00000000 0.02200000
    endloop
  endfacet
  facet normal 0.52491169 0.08238659 0.84716006
    outer loop
      vertex 0.00120427 0.00339919 0.02092324
      vertex 0.00098329 0.00480718 0.02092324
      vertex 0.00000000 0.00000000 0.02200000
    endloop
  endfacet
  facet normal 0.42660006 0.11371828 0.89726281
    outer loop
      vertex 0.00098329 0.00480718 0.02092324
      vertex 0.00069529 0.00588756 0.02092324
      vertex 0.00000000 0.00000000 0.02200000
    endloop
  endfacet
  facet normal 0.28354046 0.14001693 0.94868333
    outer loop
      vertex 0.00069529 0.00588756 0.02092324
      vertex 0.00035991 0.00656672 0.02092324
      vertex 0.00000000 0.00000000 0.02200000
    endloop
  endfacet
  facet normal 0.10018009 0.15564749 0.98271960
    outer loop
      vertex 0.00035991 0.00656672 0.02092324
      vertex 0.00000000 0.00679837 0.02092324
      vertex 0.00000000 0.00000000 0.02200000
    endloop
  endfacet
  facet normal -0.10018009 0.15564749 0.98271960
    outer loop
      vertex 0.00000000 0.00679837 0.02092324
      vertex -0.00035991 0.00656672 0.02092324
      vertex 0.00000000 0.00000000 0.02200000
    endloop
  endfacet
  facet normal -0.28354046 0.14001693 0.94868333
    outer loop
      vertex -0.00035991 0.00656672 0.02092324
      vertex -0.00069529 0.00588756 0.02092324
      vertex -0.00000000 0.00000000 0.02200000
    endloop
  endfacet
  facet normal -0.42660006 0.11371828 0.89726281
    outer loop
      vertex -0.00069529 0.00588756 0.02092324
      vertex -0.00098329 0.00480718 0.02092324
      vertex -0.00000000 0.00000000 0.02200000
    endloop
  endfacet
  facet normal -0.52491169 0.08238659 0.84716006
    outer loop
      vertex -0.00098329 0.00480718 0.02092324
      vertex -0.00120427 0.00339919 0.02092324
      vertex -0.00000000 0.00000000 0.02200000
    endloop
  endfacet
  facet normal -0.58441718 0.04951504 0.80994124
    outer loop
      vertex -0.00120427 0.00339919 0.02092324
      vertex -0.00134319 0.00175955 0.02092324
      vertex -0.00000000 0.00000000 0.02200000
    endloop
  endfacet
  facet normal -0.61215446 0.01648466 0.79056637
    outer loop
      vertex -0.00134319 0.00175955 0.02092324
      vertex -0.00139058 0.00000000 0.02092324
      vertex -0.00000000 0.00000000 0.02200000
    endloop
  endfacet
  facet normal -0.61215446 -0.01648466 0.79056637
    outer loop
      vertex -0.00139058 0.00000000 0.02092324
      vertex -0.00134319 -0.00175955 0.02092324
      vertex -0.00000000 0.00000000 0.02200000
    endloop
  endfacet
  facet normal -0.58441718 -0.04951504 0.80994124
    outer loop
      vertex -0.00134319 -0.00175955 0.02092324
      vertex -0.00120427 -0.00339919 0.02092324
      vertex -0.00000000 -0.00000000 0.02200000
    endloop
  endfacet
  facet normal -0.52491169 -0.08238659 0.84716006
    outer loop
      vertex -0.00120427 -0.00339919 0.02092324
      vertex -0.00098329 -0.00480718 0.02092324
      vertex -0.00000000 -0.00000000 0.02200000
    endloop
  endfacet
  facet normal -0.42660006 -0.11371828 0.89726281
    outer loop
      vertex -0.00098329 -0.00480718 0.02092324
      vertex -0.00069529 -0.00588756 0.02092324
      vertex -0.00000000 -0.00000000 0.02200000
    endloop
  endfacet
  facet normal -0.28354046 -0.14001693 0.94868333
    outer loop
      vertex -0.00069529 -0.00588756 0.02092324
      vertex -0.00035991 -0.00656672 0.02092324
      vertex -0.00000000 -0.00000000 0.02200000
    endloop
  endfacet
  facet normal -0.10018009 -0.15564749 0.98271960
    outer loop
      vertex -0.00035991 -0.00656672 0.02092324
      vertex -0.00000000 -0.00679837 0.02092324
      vertex -0.00000000 -0.00000000 0.02200000
    endloop
  endfacet
  facet normal 0.10018009 -0.15564749 0.98271960
    outer loop
      vertex -0.00000000 -0.00679837 0.02092324
      vertex 0.00035991 -0.00656672 0.02092324
      vertex -0.00000000 -0.00000000 0.02200000
    endloop
  endfacet
  facet normal 0.28354046 -0.14001693 0.94868333
    outer loop
      vertex 0.00035991 -0.00656672 0.02092324
      vertex 0.00069529 -0.00588756 0.02092324
      vertex 0.00000000 -0.00000000 0.02200000
    endloop
  endfacet
  facet normal 0.42660006 -0.11371828 0.89726281
    outer loop
      vertex 0.00069529 -0.00588756 0.02092324
      vertex 0.00098329 -0.00480718 0.02092324
      vertex 0.00000000 -0.00000000 0.02200000
    endloop
  endfacet
  facet normal 0.52491169 -0.08238659 0.84716006
    outer loop
      vertex 0.00098329 -0.00480718 0.02092324
      vertex 0.00120427 -0.00339919 0.02092324
      vertex 0.00000000 -0.00000000 0.02200000
    endloop
  endfacet
  facet normal 0.58441718 -0.04951504 0.80994124
    outer loop
      vertex 0.00120427 -0.00339919 0.02092324
      vertex 0.00134319 -0.00175955 0.02092324
      vertex 0.00000000 -0.00000000 0.02200000
    endloop
  endfacet
  facet normal 0.61215446 -0.01648466 0.79056637
    outer loop
      vertex 0.00134319 -0.00175955 0.02092324
      vertex 0.00139058 0.00000000 0.02092324
      vertex 0.00000000 -0.00000000 0.02200000
    endloop
  endfacet
endsolid eye_lens
