solid nose_diamond
  facet normal -0.86377890 -0.30232262 -0.40309682
    outer loop
      vertex 0.00350000 0.00000000 0.00000000
      vertex 0.00000000 0.00000000 0.00750000
      vertex 0.00000000 0.01000000 0.00000000
    endloop
  endfacet
  facet normal -0.86377890 0.30232262 -0.40309682
    outer loop
      vertex 0.00350000 0.00000000 0.00000000
      vertex 0.00000000 -0.01000000 0.00000000
      vertex 0.00000000 0.00000000 0.00750000
    endloop
  endfacet
  facet normal -0.86377890 0.30232262 0.40309682
    outer loop
      vertex 0.00350000 0.00000000 0.00000000
      vertex 0.00000000 0.00000000 -0.00750000
      vertex 0.00000000 -0.01000000 0.00000000
    endloop
  endfacet
  facet normal -0.86377890 -0.30232262 0.40309682
    outer loop
      vertex 0.00350000 0.00000000 0.00000000
      vertex 0.00000000 0.01000000 0.00000000
      vertex 0.00000000 0.00000000 -0.00750000
    endloop
  endfacet
  facet normal 0.86377890 -0.30232262 -0.40309682
    outer loop
      vertex -0.00350000 0.00000000 0.00000000
      vertex 0.00000000 0.01000000 0.00000000
      vertex 0.00000000 0.00000000 0.00750000
    endloop
  endfacet
  facet normal 0.86377890 0.30232262 -0.40309682
    outer loop
      vertex -0.00350000 0.00000000 0.00000000
      vertex 0.00000000 0.00000000 0.00750000
      vertex 0.00000000 -0.01000000 0.00000000
    endloop
  endfacet
  facet normal 0.86377890 0.30232262 0.40309682
    outer loop
      vertex -0.00350000 0.00000000 0.00000000
      vertex 0.00000000 -0.01000000 0.00000000
      vertex 0.00000000 0.00000000 -0.00750000
    endloop
  endfacet
  facet normal 0.86377890 -0.30232262 0.40309682
    outer loop
      vertex -0.00350000 0.00000000 0.00000000
      vertex 0.00000000 0.00000000 -0.00750000
      vertex 0.00000000 0.01000000 0.00000000
    endloop
  endfacet
endsolid nose_diamond
