solid pupil
  facet normal 0.39184775 0.03637357 -0.91931078
    outer loop
      vertex 0.00000000 0.00000000 -0.00750000
      vertex 0.00123744 0.00109835 -0.00692910
      vertex 0.00133939 0.00000000 -0.00692910
    endloop
  endfacet
  facet normal 0.33795060 0.10537864 -0.93524582
    outer loop
      vertex 0.00000000 0.00000000 -0.00750000
      vertex 0.00094709 0.00202949 -0.00692910
      vertex 0.00123744 0.00109835 -0.00692910
    endloop
  endfacet
  facet normal 0.23161078 0.16176068 -0.95926531
    outer loop
      vertex 0.00000000 0.00000000 -0.00750000
      vertex 0.00051256 0.00265165 -0.00692910
      vertex 0.00094709 0.00202949 -0.00692910
    endloop
  endfacet
  facet normal 0.08286943 0.19441929 -0.97741178
    outer loop
      vertex 0.00000000 0.00000000 -0.00750000
      vertex 0.00000000 0.00287013 -0.00692910
      vertex 0.00051256 0.00265165 -0.00692910
    endloop
  endfacet
  facet normal -0.08286943 0.19441929 -0.97741178
    outer loop
      vertex 0.00000000 0.00000000 -0.00750000
      vertex -0.00051256 0.00265165 -0.00692910
      vertex 0.00000000 0.00287013 -0.00692910
    endloop
  endfacet
  facet normal -0.23161078 0.16176068 -0.95926531
    outer loop
      vertex -0.00000000 0.00000000 -0.00750000
      vertex -0.00094709 0.00202949 -0.00692910
      vertex -0.00051256 0.00265165 -0.00692910
    endloop
  endfacet
  facet normal -0.33795060 0.10537864 -0.93524582
    outer loop
      vertex -0.00000000 0.00000000 -0.00750000
      vertex -0.00123744 0.00109835 -0.00692910
      vertex -0.00094709 0.00202949 -0.00692910
    endloop
  endfacet
  facet normal -0.39184775 0.03637357 -0.91931078
    outer loop
      vertex -0.00000000 0.00000000 -0.00750000
      vertex -0.00133939 0.00000000 -0.00692910
      vertex -0.00123744 0.00109835 -0.00692910
    endloop
  endfacet
  facet normal -0.39184775 -0.03637357 -0.91931078
    outer loop
      vertex -0.00000000 0.00000000 -0.00750000
      vertex -0.00123744 -0.00109835 -0.00692910
      vertex -0.00133939 0.00000000 -0.00692910
    endloop
  endfacet
  facet normal -0.33795060 -0.10537864 -0.93524582
    outer loop
      vertex -0.00000000 -0.00000000 -0.00750000
      vertex -0.00094709 -0.00202949 -0.00692910
      vertex -0.00123744 -0.00109835 -0.00692910
    endloop
  endfacet
  facet normal -0.23161078 -0.16176068 -0.95926531
    outer loop
      vertex -0.00000000 -0.00000000 -0.00750000
      vertex -0.00051256 -0.00265165 -0.00692910
      vertex -0.00094709 -0.00202949 -0.00692910
    endloop
  endfacet
  facet normal -0.08286943 -0.19441929 -0.97741178
    outer loop
      vertex -0.00000000 -0.00000000 -0.00750000
      vertex -0.00000000 -0.00287013 -0.00692910
      vertex -0.00051256 -0.00265165 -0.00692910
    endloop
  endfacet
  facet normal 0.08286943 -0.19441929 -0.97741178
    outer loop
      vertex -0.00000000 -0.00000000 -0.00750000
      vertex 0.00051256 -0.00265165 -0.00692910
      vertex -0.00000000 -0.00287013 -0.00692910
    endloop
  endfacet
  facet normal 0.23161078 -0.16176068 -0.95926531
    outer loop
      vertex 0.00000000 -0.00000000 -0.00750000
      vertex 0.00094709 -0.00202949 -0.00692910
      vertex 0.00051256 -0.00265165 -0.00692910
    endloop
  endfacet
  facet normal 0.33795060 -0.10537864 -0.93524582
    outer loop
      vertex 0.00000000 -0.00000000 -0.00750000
      vertex 0.00123744 -0.00109835 -0.00692910
      vertex 0.00094709 -0.00202949 -0.00692910
    endloop
  endfacet
  facet normal 0.39184775 -0.03637357 -0.91931078
    outer loop
      vertex 0.00000000 -0.00000000 -0.00750000
      vertex 0.00133939 0.00000000 -0.00692910
      vertex 0.00123744 -0.00109835 -0.00692910
    endloop
  endfacet
  facet normal 0.81747772 0.07588300 -0.57093954
    outer loop
      vertex 0.00133939 0.00000000 -0.00692910
      vertex 0.00123744 0.00109835 -0.00692910
      vertex 0.00228649 0.00202949 -0.00530330
    endloop
  endfacet
  facet normal 0.81747772 0.07588300 -0.57093954
    outer loop
      vertex 0.00133939 0.00000000 -0.00692910
      vertex 0.00228649 0.00202949 -0.00530330
      vertex 0.00247487 0.00000000 -0.00530330
    endloop
  endfacet
  facet normal 0.75038828 0.23398359 -0.61819828
    outer loop
      vertex 0.00123744 0.00109835 -0.00692910
      vertex 0.00094709 0.00202949 -0.00692910
      vertex 0.00175000 0.00375000 -0.00530330
    endloop
  endfacet
  facet normal 0.75038828 0.23398359 -0.61819828
    outer loop
      vertex 0.00123744 0.00109835 -0.00692910
      vertex 0.00175000 0.00375000 -0.00530330
      vertex 0.00228649 0.00202949 -0.00530330
    endloop
  endfacet
  facet normal 0.57658425 0.40269568 -0.71090561
    outer loop
      vertex 0.00094709 0.00202949 -0.00692910
      vertex 0.00051256 0.00265165 -0.00692910
      vertex 0.00094709 0.00489961 -0.00530330
    endloop
  endfacet
  facet normal 0.57658425 0.40269568 -0.71090561
    outer loop
      vertex 0.00094709 0.00202949 -0.00692910
      vertex 0.00094709 0.00489961 -0.00530330
      vertex 0.00175000 0.00375000 -0.00530330
    endloop
  endfacet
  facet normal 0.23043376 0.54061874 -0.80909311
    outer loop
      vertex 0.00051256 0.00265165 -0.00692910
      vertex 0.00000000 0.00287013 -0.00692910
      vertex 0.00000000 0.00530330 -0.00530330
    endloop
  endfacet
  facet normal 0.23043376 0.54061874 -0.80909311
    outer loop
      vertex 0.00051256 0.00265165 -0.00692910
      vertex 0.00000000 0.00530330 -0.00530330
      vertex 0.00094709 0.00489961 -0.00530330
    endloop
  endfacet
  facet normal -0.23043376 0.54061874 -0.80909311
    outer loop
      vertex 0.00000000 0.00287013 -0.00692910
      vertex -0.00051256 0.00265165 -0.00692910
      vertex -0.00094709 0.00489961 -0.00530330
    endloop
  endfacet
  facet normal -0.23043376 0.54061874 -0.80909311
    outer loop
      vertex 0.00000000 0.00287013 -0.00692910
      vertex -0.00094709 0.00489961 -0.00530330
      vertex 0.00000000 0.00530330 -0.00530330
    endloop
  endfacet
  facet normal -0.57658425 0.40269568 -0.71090561
    outer loop
      vertex -0.00051256 0.00265165 -0.00692910
      vertex -0.00094709 0.00202949 -0.00692910
      vertex -0.00175000 0.00375000 -0.00530330
    endloop
  endfacet
  facet normal -0.57658425 0.40269568 -0.71090561
    outer loop
      vertex -0.00051256 0.00265165 -0.00692910
      vertex -0.00175000 0.00375000 -0.00530330
      vertex -0.00094709 0.00489961 -0.00530330
    endloop
  endfacet
  facet normal -0.75038828 0.23398359 -0.61819828
    outer loop
      vertex -0.00094709 0.00202949 -0.00692910
      vertex -0.00123744 0.00109835 -0.00692910
      vertex -0.00228649 0.00202949 -0.00530330
    endloop
  endfacet
  facet normal -0.75038828 0.23398359 -0.61819828
    outer loop
      vertex -0.00094709 0.00202949 -0.00692910
      vertex -0.00228649 0.00202949 -0.00530330
      vertex -0.00175000 0.00375000 -0.00530330
    endloop
  endfacet
  facet normal -0.81747772 0.07588300 -0.57093954
    outer loop
      vertex -0.00123744 0.00109835 -0.00692910
      vertex -0.00133939 0.00000000 -0.00692910
      vertex -0.00247487 0.00000000 -0.00530330
    endloop
  endfacet
  facet normal -0.81747772 0.07588300 -0.57093954
    outer loop
      vertex -0.00123744 0.00109835 -0.00692910
      vertex -0.00247487 0.00000000 -0.00530330
      vertex -0.00228649 0.00202949 -0.00530330
    endloop
  endfacet
  facet normal -0.81747772 -0.07588300 -0.57093954
    outer loop
      vertex -0.00133939 0.00000000 -0.00692910
      vertex -0.00123744 -0.00109835 -0.00692910
      vertex -0.00228649 -0.00202949 -0.00530330
    endloop
  endfacet
  facet normal -0.81747772 -0.07588300 -0.57093954
    outer loop
      vertex -0.00133939 0.00000000 -0.00692910
      vertex -0.00228649 -0.00202949 -0.00530330
      vertex -0.00247487 0.00000000 -0.00530330
    endloop
  endfacet
  facet normal -0.75038828 -0.23398359 -0.61819828
    outer loop
      vertex -0.00123744 -0.00109835 -0.00692910
      vertex -0.00094709 -0.00202949 -0.00692910
      vertex -0.00175000 -0.00375000 -0.00530330
    endloop
  endfacet
  facet normal -0.75038828 -0.23398359 -0.61819828
    outer loop
      vertex -0.00123744 -0.00109835 -0.00692910
      vertex -0.00175000 -0.00375000 -0.00530330
      vertex -0.00228649 -0.00202949 -0.00530330
    endloop
  endfacet
  facet normal -0.57658425 -0.40269568 -0.71090561
    outer loop
      vertex -0.00094709 -0.00202949 -0.00692910
      vertex -0.00051256 -0.00265165 -0.00692910
      vertex -0.00094709 -0.00489961 -0.00530330
    endloop
  endfacet
  facet normal -0.57658425 -0.40269568 -0.71090561
    outer loop
      vertex -0.00094709 -0.00202949 -0.00692910
      vertex -0.00094709 -0.00489961 -0.00530330
      vertex -0.00175000 -0.00375000 -0.00530330
    endloop
  endfacet
  facet normal -0.23043376 -0.54061874 -0.80909311
    outer loop
      vertex -0.00051256 -0.00265165 -0.00692910
      vertex -0.00000000 -0.00287013 -0.00692910
      vertex -0.00000000 -0.00530330 -0.00530330
    endloop
  endfacet
  facet normal -0.23043376 -0.54061874 -0.80909311
    outer loop
      vertex -0.00051256 -0.00265165 -0.00692910
      vertex -0.00000000 -0.00530330 -0.00530330
      vertex -0.00094709 -0.00489961 -0.00530330
    endloop
  endfacet
  facet normal 0.23043376 -0.54061874 -0.80909311
    outer loop
      vertex -0.00000000 -0.00287013 -0.00692910
      vertex 0.00051256 -0.00265165 -0.00692910
      vertex 0.00094709 -0.00489961 -0.00530330
    endloop
  endfacet
  facet normal 0.23043376 -0.54061874 -0.80909311
    outer loop
      vertex -0.00000000 -0.00287013 -0.00692910
      vertex 0.00094709 -0.00489961 -0.00530330
      vertex -0.00000000 -0.00530330 -0.00530330
    endloop
  endfacet
  facet normal 0.57658425 -0.40269568 -0.71090561
    outer loop
      vertex 0.00051256 -0.00265165 -0.00692910
      vertex 0.00094709 -0.00202949 -0.00692910
      vertex 0.00175000 -0.00375000 -0.00530330
    endloop
  endfacet
  facet normal 0.57658425 -0.40269568 -0.71090561
    outer loop
      vertex 0.00051256 -0.00265165 -0.00692910
      vertex 0.00175000 -0.00375000 -0.00530330
      vertex 0.00094709 -0.00489961 -0.00530330
    endloop
  endfacet
  facet normal 0.75038828 -0.23398359 -0.61819828
    outer loop
      vertex 0.00094709 -0.00202949 -0.00692910
      vertex 0.00123744 -0.00109835 -0.00692910
      vertex 0.00228649 -0.00202949 -0.00530330
    endloop
  endfacet
  facet normal 0.75038828 -0.23398359 -0.61819828
    outer loop
      vertex 0.00094709 -0.00202949 -0.00692910
      vertex 0.00228649 -0.00202949 -0.00530330
      vertex 0.00175000 -0.00375000 -0.00530330
    endloop
  endfacet
  facet normal 0.81747772 -0.07588300 -0.57093954
    outer loop
      vertex 0.00123744 -0.00109835 -0.00692910
      vertex 0.00133939 0.00000000 -0.00692910
      vertex 0.00247487 0.00000000 -0.00530330
    endloop
  endfacet
  facet normal 0.81747772 -0.07588300 -0.57093954
    outer loop
      vertex 0.00123744 -0.00109835 -0.00692910
      vertex 0.00247487 0.00000000 -0.00530330
      vertex 0.00228649 -0.00202949 -0.00530330
    endloop
  endfacet
  facet normal 0.95093891 0.08827164 -0.29651863
    outer loop
      vertex 0.00247487 0.00000000 -0.00530330
      vertex 0.00228649 0.00202949 -0.00530330
      vertex 0.00298744 0.00265165 -0.00287013
    endloop
  endfacet
  facet normal 0.95093891 0.08827164 -0.29651863
    outer loop
      vertex 0.00247487 0.00000000 -0.00530330
      vertex 0.00298744 0.00265165 -0.00287013
      vertex 0.00323358 0.00000000 -0.00287013
    endloop
  endfacet
  facet normal 0.90074887 0.28086854 -0.33130703
    outer loop
      vertex 0.00228649 0.00202949 -0.00530330
      vertex 0.00175000 0.00375000 -0.00530330
      vertex 0.00228649 0.00489961 -0.00287013
    endloop
  endfacet
  facet normal 0.90074887 0.28086854 -0.33130703
    outer loop
      vertex 0.00228649 0.00202949 -0.00530330
      vertex 0.00228649 0.00489961 -0.00287013
      vertex 0.00298744 0.00265165 -0.00287013
    endloop
  endfacet
  facet normal 0.74726747 0.52190358 -0.41134897
    outer loop
      vertex 0.00175000 0.00375000 -0.00530330
      vertex 0.00094709 0.00489961 -0.00530330
      vertex 0.00123744 0.00640165 -0.00287013
    endloop
  endfacet
  facet normal 0.74726747 0.52190358 -0.41134897
    outer loop
      vertex 0.00175000 0.00375000 -0.00530330
      vertex 0.00123744 0.00640165 -0.00287013
      vertex 0.00228649 0.00489961 -0.00287013
    endloop
  endfacet
  facet normal 0.33404780 0.78370678 -0.52365613
    outer loop
      vertex 0.00094709 0.00489961 -0.00530330
      vertex 0.00000000 0.00530330 -0.00530330
      vertex 0.00000000 0.00692910 -0.00287013
    endloop
  endfacet
  facet normal 0.33404780 0.78370678 -0.52365613
    outer loop
      vertex 0.00094709 0.00489961 -0.00530330
      vertex 0.00000000 0.00692910 -0.00287013
      vertex 0.00123744 0.00640165 -0.00287013
    endloop
  endfacet
  facet normal -0.33404780 0.78370678 -0.52365613
    outer loop
      vertex 0.00000000 0.00530330 -0.00530330
      vertex -0.00094709 0.00489961 -0.00530330
      vertex -0.00123744 0.00640165 -0.00287013
    endloop
  endfacet
  facet normal -0.33404780 0.78370678 -0.52365613
    outer loop
      vertex 0.00000000 0.00530330 -0.00530330
      vertex -0.00123744 0.00640165 -0.00287013
      vertex 0.00000000 0.00692910 -0.00287013
    endloop
  endfacet
  facet normal -0.74726747 0.52190358 -0.41134897
    outer loop
      vertex -0.00094709 0.00489961 -0.00530330
      vertex -0.00175000 0.00375000 -0.00530330
      vertex -0.00228649 0.00489961 -0.00287013
    endloop
  endfacet
  facet normal -0.74726747 0.52190358 -0.41134897
    outer loop
      vertex -0.00094709 0.00489961 -0.00530330
      vertex -0.00228649 0.00489961 -0.00287013
      vertex -0.00123744 0.00640165 -0.00287013
    endloop
  endfacet
  facet normal -0.90074887 0.28086854 -0.33130703
    outer loop
      vertex -0.00175000 0.00375000 -0.00530330
      vertex -0.00228649 0.00202949 -0.00530330
      vertex -0.00298744 0.00265165 -0.00287013
    endloop
  endfacet
  facet normal -0.90074887 0.28086854 -0.33130703
    outer loop
      vertex -0.00175000 0.00375000 -0.00530330
      vertex -0.00298744 0.00265165 -0.00287013
      vertex -0.00228649 0.00489961 -0.00287013
    endloop
  endfacet
  facet normal -0.95093891 0.08827164 -0.29651863
    outer loop
      vertex -0.00228649 0.00202949 -0.00530330
      vertex -0.00247487 0.00000000 -0.00530330
      vertex -0.00323358 0.00000000 -0.00287013
    endloop
  endfacet
  facet normal -0.95093891 0.08827164 -0.29651863
    outer loop
      vertex -0.00228649 0.00202949 -0.00530330
      vertex -0.00323358 0.00000000 -0.00287013
      vertex -0.00298744 0.00265165 -0.00287013
    endloop
  endfacet
  facet normal -0.95093891 -0.08827164 -0.29651863
    outer loop
      vertex -0.00247487 0.00000000 -0.00530330
      vertex -0.00228649 -0.00202949 -0.00530330
      vertex -0.00298744 -0.00265165 -0.00287013
    endloop
  endfacet
  facet normal -0.95093891 -0.08827164 -0.29651863
    outer loop
      vertex -0.00247487 0.00000000 -0.00530330
      vertex -0.00298744 -0.00265165 -0.00287013
      vertex -0.00323358 0.00000000 -0.00287013
    endloop
  endfacet
  facet normal -0.90074887 -0.28086854 -0.33130703
    outer loop
      vertex -0.00228649 -0.00202949 -0.00530330
      vertex -0.00175000 -0.00375000 -0.00530330
      vertex -0.00228649 -0.00489961 -0.00287013
    endloop
  endfacet
  facet normal -0.90074887 -0.28086854 -0.33130703
    outer loop
      vertex -0.00228649 -0.00202949 -0.00530330
      vertex -0.00228649 -0.00489961 -0.00287013
      vertex -0.00298744 -0.00265165 -0.00287013
    endloop
  endfacet
  facet normal -0.74726747 -0.52190358 -0.41134897
    outer loop
      vertex -0.00175000 -0.00375000 -0.00530330
      vertex -0.00094709 -0.00489961 -0.00530330
      vertex -0.00123744 -0.00640165 -0.00287013
    endloop
  endfacet
  facet normal -0.74726747 -0.52190358 -0.41134897
    outer loop
      vertex -0.00175000 -0.00375000 -0.00530330
      vertex -0.00123744 -0.00640165 -0.00287013
      vertex -0.00228649 -0.00489961 -0.00287013
    endloop
  endfacet
  facet normal -0.33404780 -0.78370678 -0.52365613
    outer loop
      vertex -0.00094709 -0.00489961 -0.00530330
      vertex -0.00000000 -0.00530330 -0.00530330
      vertex -0.00000000 -0.00692910 -0.00287013
    endloop
  endfacet
  facet normal -0.33404780 -0.78370678 -0.52365613
    outer loop
      vertex -0.00094709 -0.00489961 -0.00530330
      vertex -0.00000000 -0.00692910 -0.00287013
      vertex -0.00123744 -0.00640165 -0.00287013
    endloop
  endfacet
  facet normal 0.33404780 -0.78370678 -0.52365613
    outer loop
      vertex -0.00000000 -0.00530330 -0.00530330
      vertex 0.00094709 -0.00489961 -0.00530330
      vertex 0.00123744 -0.00640165 -0.00287013
    endloop
  endfacet
  facet normal 0.33404780 -0.78370678 -0.52365613
    outer loop
      vertex -0.00000000 -0.00530330 -0.00530330
      vertex 0.00123744 -0.00640165 -0.00287013
      vertex -0.00000000 -0.00692910 -0.00287013
    endloop
  endfacet
  facet normal 0.74726747 -0.52190358 -0.41134897
    outer loop
      vertex 0.00094709 -0.00489961 -0.00530330
      vertex 0.00175000 -0.00375000 -0.00530330
      vertex 0.00228649 -0.00489961 -0.00287013
    endloop
  endfacet
  facet normal 0.74726747 -0.52190358 -0.41134897
    outer loop
      vertex 0.00094709 -0.00489961 -0.00530330
      vertex 0.00228649 -0.00489961 -0.00287013
      vertex 0.00123744 -0.00640165 -0.00287013
    endloop
  endfacet
  facet normal 0.90074887 -0.28086854 -0.33130703
    outer loop
      vertex 0.00175000 -0.00375000 -0.00530330
      vertex 0.00228649 -0.00202949 -0.00530330
      vertex 0.00298744 -0.00265165 -0.00287013
    endloop
  endfacet
  facet normal 0.90074887 -0.28086854 -0.33130703
    outer loop
      vertex 0.00175000 -0.00375000 -0.00530330
      vertex 0.00298744 -0.00265165 -0.00287013
      vertex 0.00228649 -0.00489961 -0.00287013
    endloop
  endfacet
  facet normal 0.95093891 -0.08827164 -0.29651863
    outer loop
      vertex 0.00228649 -0.00202949 -0.00530330
      vertex 0.00247487 0.00000000 -0.00530330
      vertex 0.00323358 0.00000000 -0.00287013
    endloop
  endfacet
  facet normal 0.95093891 -0.08827164 -0.29651863
    outer loop
      vertex 0.00228649 -0.00202949 -0.00530330
      vertex 0.00323358 0.00000000 -0.00287013
      vertex 0.00298744 -0.00265165 -0.00287013
    endloop
  endfacet
  facet normal 0.99149317 0.09203612 -0.09203612
    outer loop
      vertex 0.00323358 0.00000000 -0.00287013
      vertex 0.00298744 0.00265165 -0.00287013
      vertex 0.00323358 0.00287013 0.00000000
    endloop
  endfacet
  facet normal 0.99149317 0.09203612 -0.09203612
    outer loop
      vertex 0.00323358 0.00000000 -0.00287013
      vertex 0.00323358 0.00287013 0.00000000
      vertex 0.00350000 0.00000000 0.00000000
    endloop
  endfacet
  facet normal 0.94949213 0.29606750 -0.10396508
    outer loop
      vertex 0.00298744 0.00265165 -0.00287013
      vertex 0.00228649 0.00489961 -0.00287013
      vertex 0.00247487 0.00530330 0.00000000
    endloop
  endfacet
  facet normal 0.94949213 0.29606750 -0.10396508
    outer loop
      vertex 0.00298744 0.00265165 -0.00287013
      vertex 0.00247487 0.00530330 0.00000000
      vertex 0.00323358 0.00287013 0.00000000
    endloop
  endfacet
  facet normal 0.81254132 0.56749188 -0.13315240
    outer loop
      vertex 0.00228649 0.00489961 -0.00287013
      vertex 0.00123744 0.00640165 -0.00287013
      vertex 0.00133939 0.00692910 0.00000000
    endloop
  endfacet
  facet normal 0.81254132 0.56749188 -0.13315240
    outer loop
      vertex 0.00228649 0.00489961 -0.00287013
      vertex 0.00133939 0.00692910 0.00000000
      vertex 0.00247487 0.00530330 0.00000000
    endloop
  endfacet
  facet normal 0.38570315 0.90489499 -0.17999481
    outer loop
      vertex 0.00123744 0.00640165 -0.00287013
      vertex 0.00000000 0.00692910 -0.00287013
      vertex 0.00000000 0.00750000 0.00000000
    endloop
  endfacet
  facet normal 0.38570315 0.90489499 -0.17999481
    outer loop
      vertex 0.00123744 0.00640165 -0.00287013
      vertex 0.00000000 0.00750000 0.00000000
      vertex 0.00133939 0.00692910 0.00000000
    endloop
  endfacet
  facet normal -0.38570315 0.90489499 -0.17999481
    outer loop
      vertex 0.00000000 0.00692910 -0.00287013
      vertex -0.00123744 0.00640165 -0.00287013
      vertex -0.00133939 0.00692910 0.00000000
    endloop
  endfacet
  facet normal -0.38570315 0.90489499 -0.17999481
    outer loop
      vertex 0.00000000 0.00692910 -0.00287013
      vertex -0.00133939 0.00692910 0.00000000
      vertex 0.00000000 0.00750000 0.00000000
    endloop
  endfacet
  facet normal -0.81254132 0.56749188 -0.13315240
    outer loop
      vertex -0.00123744 0.00640165 -0.00287013
      vertex -0.00228649 0.00489961 -0.00287013
      vertex -0.00247487 0.00530330 0.00000000
    endloop
  endfacet
  facet normal -0.81254132 0.56749188 -0.13315240
    outer loop
      vertex -0.00123744 0.00640165 -0.00287013
      vertex -0.00247487 0.00530330 0.00000000
      vertex -0.00133939 0.00692910 0.00000000
    endloop
  endfacet
  facet normal -0.94949213 0.29606750 -0.10396508
    outer loop
      vertex -0.00228649 0.00489961 -0.00287013
      vertex -0.00298744 0.00265165 -0.00287013
      vertex -0.00323358 0.00287013 0.00000000
    endloop
  endfacet
  facet normal -0.94949213 0.29606750 -0.10396508
    outer loop
      vertex -0.00228649 0.00489961 -0.00287013
      vertex -0.00323358 0.00287013 0.00000000
      vertex -0.00247487 0.00530330 0.00000000
    endloop
  endfacet
  facet normal -0.99149317 0.09203612 -0.09203612
    outer loop
      vertex -0.00298744 0.00265165 -0.00287013
      vertex -0.00323358 0.00000000 -0.00287013
      vertex -0.00350000 0.00000000 0.00000000
    endloop
  endfacet
  facet normal -0.99149317 0.09203612 -0.09203612
    outer loop
      vertex -0.00298744 0.00265165 -0.00287013
      vertex -0.00350000 0.00000000 0.00000000
      vertex -0.00323358 0.00287013 0.00000000
    endloop
  endfacet
  facet normal -0.99149317 -0.09203612 -0.09203612
    outer loop
      vertex -0.00323358 0.00000000 -0.00287013
      vertex -0.00298744 -0.00265165 -0.00287013
      vertex -0.00323358 -0.00287013 0.00000000
    endloop
  endfacet
  facet normal -0.99149317 -0.09203612 -0.09203612
    outer loop
      vertex -0.00323358 0.00000000 -0.00287013
      vertex -0.00323358 -0.00287013 0.00000000
      vertex -0.00350000 0.00000000 0.00000000
    endloop
  endfacet
  facet normal -0.94949213 -0.29606750 -0.10396508
    outer loop
      vertex -0.00298744 -0.00265165 -0.00287013
      vertex -0.00228649 -0.00489961 -0.00287013
      vertex -0.00247487 -0.00530330 0.00000000
    endloop
  endfacet
  facet normal -0.94949213 -0.29606750 -0.10396508
    outer loop
      vertex -0.00298744 -0.00265165 -0.00287013
      vertex -0.00247487 -0.00530330 0.00000000
      vertex -0.00323358 -0.00287013 0.00000000
    endloop
  endfacet
  facet normal -0.81254132 -0.56749188 -0.13315240
    outer loop
      vertex -0.00228649 -0.00489961 -0.00287013
      vertex -0.00123744 -0.00640165 -0.00287013
      vertex -0.00133939 -0.00692910 0.00000000
    endloop
  endfacet
  facet normal -0.81254132 -0.56749188 -0.13315240
    outer loop
      vertex -0.00228649 -0.00489961 -0.00287013
      vertex -0.00133939 -0.00692910 0.00000000
      vertex -0.00247487 -0.00530330 0.00000000
    endloop
  endfacet
  facet normal -0.38570315 -0.90489499 -0.17999481
    outer loop
      vertex -0.00123744 -0.00640165 -0.00287013
      vertex -0.00000000 -0.00692910 -0.00287013
      vertex -0.00000000 -0.00750000 0.00000000
    endloop
  endfacet
  facet normal -0.38570315 -0.90489499 -0.17999481
    outer loop
      vertex -0.00123744 -0.00640165 -0.00287013
      vertex -0.00000000 -0.00750000 0.00000000
      vertex -0.00133939 -0.00692910 0.00000000
    endloop
  endfacet
  facet normal 0.38570315 -0.90489499 -0.17999481
    outer loop
      vertex -0.00000000 -0.00692910 -0.00287013
      vertex 0.00123744 -0.00640165 -0.00287013
      vertex 0.00133939 -0.00692910 0.00000000
    endloop
  endfacet
  facet normal 0.38570315 -0.90489499 -0.17999481
    outer loop
      vertex -0.00000000 -0.00692910 -0.00287013
      vertex 0.00133939 -0.00692910 0.00000000
      vertex -0.00000000 -0.00750000 0.00000000
    endloop
  endfacet
  facet normal 0.81254132 -0.56749188 -0.13315240
    outer loop
      vertex 0.00123744 -0.00640165 -0.00287013
      vertex 0.00228649 -0.00489961 -0.00287013
      vertex 0.00247487 -0.00530330 0.00000000
    endloop
  endfacet
  facet normal 0.81254132 -0.56749188 -0.13315240
    outer loop
      vertex 0.00123744 -0.00640165 -0.00287013
      vertex 0.00247487 -0.00530330 0.00000000
      vertex 0.00133939 -0.00692910 0.00000000
    endloop
  endfacet
  facet normal 0.94949213 -0.29606750 -0.10396508
    outer loop
      vertex 0.00228649 -0.00489961 -0.00287013
      vertex 0.00298744 -0.00265165 -0.00287013
      vertex 0.00323358 -0.00287013 0.00000000
    endloop
  endfacet
  facet normal 0.94949213 -0.29606750 -0.10396508
    outer loop
      vertex 0.00228649 -0.00489961 -0.00287013
      vertex 0.00323358 -0.00287013 0.00000000
      vertex 0.00247487 -0.00530330 0.00000000
    endloop
  endfacet
  facet normal 0.99149317 -0.09203612 -0.09203612
    outer loop
      vertex 0.00298744 -0.00265165 -0.00287013
      vertex 0.00323358 0.00000000 -0.00287013
      vertex 0.00350000 0.00000000 0.00000000
    endloop
  endfacet
  facet normal 0.99149317 -0.09203612 -0.09203612
    outer loop
      vertex 0.00298744 -0.00265165 -0.00287013
      vertex 0.00350000 0.00000000 0.00000000
      vertex 0.00323358 -0.00287013 0.00000000
    endloop
  endfacet
  facet normal 0.99149317 0.09203612 0.09203612
    outer loop
      vertex 0.00350000 0.00000000 0.00000000
      vertex 0.00323358 0.00287013 0.00000000
      vertex 0.00298744 0.00265165 0.00287013
    endloop
  endfacet
  facet normal 0.99149317 0.09203612 0.09203612
    outer loop
      vertex 0.00350000 0.00000000 0.00000000
      vertex 0.00298744 0.00265165 0.00287013
      vertex 0.00323358 0.00000000 0.00287013
    endloop
  endfacet
  facet normal 0.94949213 0.29606750 0.10396508
    outer loop
      vertex 0.00323358 0.00287013 0.00000000
      vertex 0.00247487 0.00530330 0.00000000
      vertex 0.00228649 0.00489961 0.00287013
    endloop
  endfacet
  facet normal 0.94949213 0.29606750 0.10396508
    outer loop
      vertex 0.00323358 0.00287013 0.00000000
      vertex 0.00228649 0.00489961 0.00287013
      vertex 0.00298744 0.00265165 0.00287013
    endloop
  endfacet
  facet normal 0.81254132 0.56749188 0.13315240
    outer loop
      vertex 0.00247487 0.00530330 0.00000000
      vertex 0.00133939 0.00692910 0.00000000
      vertex 0.00123744 0.00640165 0.00287013
    endloop
  endfacet
  facet normal 0.81254132 0.56749188 0.13315240
    outer loop
      vertex 0.00247487 0.00530330 0.00000000
      vertex 0.00123744 0.00640165 0.00287013
      vertex 0.00228649 0.00489961 0.00287013
    endloop
  endfacet
  facet normal 0.38570315 0.90489499 0.17999481
    outer loop
      vertex 0.00133939 0.00692910 0.00000000
      vertex 0.00000000 0.00750000 0.00000000
      vertex 0.00000000 0.00692910 0.00287013
    endloop
  endfacet
  facet normal 0.38570315 0.90489499 0.17999481
    outer loop
      vertex 0.00133939 0.00692910 0.00000000
      vertex 0.00000000 0.00692910 0.00287013
      vertex 0.00123744 0.00640165 0.00287013
    endloop
  endfacet
  facet normal -0.38570315 0.90489499 0.17999481
    outer loop
      vertex 0.00000000 0.00750000 0.00000000
      vertex -0.00133939 0.00692910 0.00000000
      vertex -0.00123744 0.00640165 0.00287013
    endloop
  endfacet
  facet normal -0.38570315 0.90489499 0.17999481
    outer loop
      vertex 0.00000000 0.00750000 0.00000000
      vertex -0.00123744 0.00640165 0.00287013
      vertex 0.00000000 0.00692910 0.00287013
    endloop
  endfacet
  facet normal -0.81254132 0.56749188 0.13315240
    outer loop
      vertex -0.00133939 0.00692910 0.00000000
      vertex -0.00247487 0.00530330 0.00000000
      vertex -0.00228649 0.00489961 0.00287013
    endloop
  endfacet
  facet normal -0.81254132 0.56749188 0.13315240
    outer loop
      vertex -0.00133939 0.00692910 0.00000000
      vertex -0.00228649 0.00489961 0.00287013
      vertex -0.00123744 0.00640165 0.00287013
    endloop
  endfacet
  facet normal -0.94949213 0.29606750 0.10396508
    outer loop
      vertex -0.00247487 0.00530330 0.00000000
      vertex -0.00323358 0.00287013 0.00000000
      vertex -0.00298744 0.00265165 0.00287013
    endloop
  endfacet
  facet normal -0.94949213 0.29606750 0.10396508
    outer loop
      vertex -0.00247487 0.00530330 0.00000000
      vertex -0.00298744 0.00265165 0.00287013
      vertex -0.00228649 0.00489961 0.00287013
    endloop
  endfacet
  facet normal -0.99149317 0.09203612 0.09203612
    outer loop
      vertex -0.00323358 0.00287013 0.00000000
      vertex -0.00350000 0.00000000 0.00000000
      vertex -0.00323358 0.00000000 0.00287013
    endloop
  endfacet
  facet normal -0.99149317 0.09203612 0.09203612
    outer loop
      vertex -0.00323358 0.00287013 0.00000000
      vertex -0.00323358 0.00000000 0.00287013
      vertex -0.00298744 0.00265165 0.00287013
    endloop
  endfacet
  facet normal -0.99149317 -0.09203612 0.09203612
    outer loop
      vertex -0.00350000 0.00000000 0.00000000
      vertex -0.00323358 -0.00287013 0.00000000
      vertex -0.00298744 -0.00265165 0.00287013
    endloop
  endfacet
  facet normal -0.99149317 -0.09203612 0.09203612
    outer loop
      vertex -0.00350000 0.00000000 0.00000000
      vertex -0.00298744 -0.00265165 0.00287013
      vertex -0.00323358 0.00000000 0.00287013
    endloop
  endfacet
  facet normal -0.94949213 -0.29606750 0.10396508
    outer loop
      vertex -0.00323358 -0.00287013 0.00000000
      vertex -0.00247487 -0.00530330 0.00000000
      vertex -0.00228649 -0.00489961 0.00287013
    endloop
  endfacet
  facet normal -0.94949213 -0.29606750 0.10396508
    outer loop
      vertex -0.00323358 -0.00287013 0.00000000
      vertex -0.00228649 -0.00489961 0.00287013
      vertex -0.00298744 -0.00265165 0.00287013
    endloop
  endfacet
  facet normal -0.81254132 -0.56749188 0.13315240
    outer loop
      vertex -0.00247487 -0.00530330 0.00000000
      vertex -0.00133939 -0.00692910 0.00000000
      vertex -0.00123744 -0.00640165 0.00287013
    endloop
  endfacet
  facet normal -0.81254132 -0.56749188 0.13315240
    outer loop
      vertex -0.00247487 -0.00530330 0.00000000
      vertex -0.00123744 -0.00640165 0.00287013
      vertex -0.00228649 -0.00489961 0.00287013
    endloop
  endfacet
  facet normal -0.38570315 -0.90489499 0.17999481
    outer loop
      vertex -0.00133939 -0.00692910 0.00000000
      vertex -0.00000000 -0.00750000 0.00000000
      vertex -0.00000000 -0.00692910 0.00287013
    endloop
  endfacet
  facet normal -0.38570315 -0.90489499 0.17999481
    outer loop
      vertex -0.00133939 -0.00692910 0.00000000
      vertex -0.00000000 -0.00692910 0.00287013
      vertex -0.00123744 -0.00640165 0.00287013
    endloop
  endfacet
  facet normal 0.38570315 -0.90489499 0.17999481
    outer loop
      vertex -0.00000000 -0.00750000 0.00000000
      vertex 0.00133939 -0.00692910 0.00000000
      vertex 0.00123744 -0.00640165 0.00287013
    endloop
  endfacet
  facet normal 0.38570315 -0.90489499 0.17999481
    outer loop
      vertex -0.00000000 -0.00750000 0.00000000
      vertex 0.00123744 -0.00640165 0.00287013
      vertex -0.00000000 -0.00692910 0.00287013
    endloop
  endfacet
  facet normal 0.81254132 -0.56749188 0.13315240
    outer loop
      vertex 0.00133939 -0.00692910 0.00000000
      vertex 0.00247487 -0.00530330 0.00000000
      vertex 0.00228649 -0.00489961 0.00287013
    endloop
  endfacet
  facet normal 0.81254132 -0.56749188 0.13315240
    outer loop
      vertex 0.00133939 -0.00692910 0.00000000
      vertex 0.00228649 -0.00489961 0.00287013
      vertex 0.00123744 -0.00640165 0.00287013
    endloop
  endfacet
  facet normal 0.94949213 -0.29606750 0.10396508
    outer loop
      vertex 0.00247487 -0.00530330 0.00000000
      vertex 0.00323358 -0.00287013 0.00000000
      vertex 0.00298744 -0.00265165 0.00287013
    endloop
  endfacet
  facet normal 0.94949213 -0.29606750 0.10396508
    outer loop
      vertex 0.00247487 -0.00530330 0.00000000
      vertex 0.00298744 -0.00265165 0.00287013
      vertex 0.00228649 -0.00489961 0.00287013
    endloop
  endfacet
  facet normal 0.99149317 -0.09203612 0.09203612
    outer loop
      vertex 0.00323358 -0.00287013 0.00000000
      vertex 0.00350000 0.00000000 0.00000000
      vertex 0.00323358 0.00000000 0.00287013
    endloop
  endfacet
  facet normal 0.99149317 -0.09203612 0.09203612
    outer loop
      vertex 0.00323358 -0.00287013 0.00000000
      vertex 0.00323358 0.00000000 0.00287013
      vertex 0.00298744 -0.00265165 0.00287013
    endloop
  endfacet
  facet normal 0.95093891 0.08827164 0.29651863
    outer loop
      vertex 0.00323358 0.00000000 0.00287013
      vertex 0.00298744 0.00265165 0.00287013
      vertex 0.00228649 0.00202949 0.00530330
    endloop
  endfacet
  facet normal 0.95093891 0.08827164 0.29651863
    outer loop
      vertex 0.00323358 0.00000000 0.00287013
      vertex 0.00228649 0.00202949 0.00530330
      vertex 0.00247487 0.00000000 0.00530330
    endloop
  endfacet
  facet normal 0.90074887 0.28086854 0.33130703
    outer loop
      vertex 0.00298744 0.00265165 0.00287013
      vertex 0.00228649 0.00489961 0.00287013
      vertex 0.00175000 0.00375000 0.00530330
    endloop
  endfacet
  facet normal 0.90074887 0.28086854 0.33130703
    outer loop
      vertex 0.00298744 0.00265165 0.00287013
      vertex 0.00175000 0.00375000 0.00530330
      vertex 0.00228649 0.00202949 0.00530330
    endloop
  endfacet
  facet normal 0.74726747 0.52190358 0.41134897
    outer loop
      vertex 0.00228649 0.00489961 0.00287013
      vertex 0.00123744 0.00640165 0.00287013
      vertex 0.00094709 0.00489961 0.00530330
    endloop
  endfacet
  facet normal 0.74726747 0.52190358 0.41134897
    outer loop
      vertex 0.00228649 0.00489961 0.00287013
      vertex 0.00094709 0.00489961 0.00530330
      vertex 0.00175000 0.00375000 0.00530330
    endloop
  endfacet
  facet normal 0.33404780 0.78370678 0.52365613
    outer loop
      vertex 0.00123744 0.00640165 0.00287013
      vertex 0.00000000 0.00692910 0.00287013
      vertex 0.00000000 0.00530330 0.00530330
    endloop
  endfacet
  facet normal 0.33404780 0.78370678 0.52365613
    outer loop
      vertex 0.00123744 0.00640165 0.00287013
      vertex 0.00000000 0.00530330 0.00530330
      vertex 0.00094709 0.00489961 0.00530330
    endloop
  endfacet
  facet normal -0.33404780 0.78370678 0.52365613
    outer loop
      vertex 0.00000000 0.00692910 0.00287013
      vertex -0.00123744 0.00640165 0.00287013
      vertex -0.00094709 0.00489961 0.00530330
    endloop
  endfacet
  facet normal -0.33404780 0.78370678 0.52365613
    outer loop
      vertex 0.00000000 0.00692910 0.00287013
      vertex -0.00094709 0.00489961 0.00530330
      vertex 0.00000000 0.00530330 0.00530330
    endloop
  endfacet
  facet normal -0.74726747 0.52190358 0.41134897
    outer loop
      vertex -0.00123744 0.00640165 0.00287013
      vertex -0.00228649 0.00489961 0.00287013
      vertex -0.00175000 0.00375000 0.00530330
    endloop
  endfacet
  facet normal -0.74726747 0.52190358 0.41134897
    outer loop
      vertex -0.00123744 0.00640165 0.00287013
      vertex -0.00175000 0.00375000 0.00530330
      vertex -0.00094709 0.00489961 0.00530330
    endloop
  endfacet
  facet normal -0.90074887 0.28086854 0.33130703
    outer loop
      vertex -0.00228649 0.00489961 0.00287013
      vertex -0.00298744 0.00265165 0.00287013
      vertex -0.00228649 0.00202949 0.00530330
    endloop
  endfacet
  facet normal -0.90074887 0.28086854 0.33130703
    outer loop
      vertex -0.00228649 0.00489961 0.00287013
      vertex -0.00228649 0.00202949 0.00530330
      vertex -0.00175000 0.00375000 0.00530330
    endloop
  endfacet
  facet normal -0.95093891 0.08827164 0.29651863
    outer loop
      vertex -0.00298744 0.00265165 0.00287013
      vertex -0.00323358 0.00000000 0.00287013
      vertex -0.00247487 0.00000000 0.00530330
    endloop
  endfacet
  facet normal -0.95093891 0.08827164 0.29651863
    outer loop
      vertex -0.00298744 0.00265165 0.00287013
      vertex -0.00247487 0.00000000 0.00530330
      vertex -0.00228649 0.00202949 0.00530330
    endloop
  endfacet
  facet normal -0.95093891 -0.08827164 0.29651863
    outer loop
      vertex -0.00323358 0.00000000 0.00287013
      vertex -0.00298744 -0.00265165 0.00287013
      vertex -0.00228649 -0.00202949 0.00530330
    endloop
  endfacet
  facet normal -0.95093891 -0.08827164 0.29651863
    outer loop
      vertex -0.00323358 0.00000000 0.00287013
      vertex -0.00228649 -0.00202949 0.00530330
      vertex -0.00247487 0.00000000 0.00530330
    endloop
  endfacet
  facet normal -0.90074887 -0.28086854 0.33130703
    outer loop
      vertex -0.00298744 -0.00265165 0.00287013
      vertex -0.00228649 -0.00489961 0.00287013
      vertex -0.00175000 -0.00375000 0.00530330
    endloop
  endfacet
  facet normal -0.90074887 -0.28086854 0.33130703
    outer loop
      vertex -0.00298744 -0.00265165 0.00287013
      vertex -0.00175000 -0.00375000 0.00530330
      vertex -0.00228649 -0.00202949 0.00530330
    endloop
  endfacet
  facet normal -0.74726747 -0.52190358 0.41134897
    outer loop
      vertex -0.00228649 -0.00489961 0.00287013
      vertex -0.00123744 -0.00640165 0.00287013
      vertex -0.00094709 -0.00489961 0.00530330
    endloop
  endfacet
  facet normal -0.74726747 -0.52190358 0.41134897
    outer loop
      vertex -0.00228649 -0.00489961 0.00287013
      vertex -0.00094709 -0.00489961 0.00530330
      vertex -0.00175000 -0.00375000 0.00530330
    endloop
  endfacet
  facet normal -0.33404780 -0.78370678 0.52365613
    outer loop
      vertex -0.00123744 -0.00640165 0.00287013
      vertex -0.00000000 -0.00692910 0.00287013
      vertex -0.00000000 -0.00530330 0.00530330
    endloop
  endfacet
  facet normal -0.33404780 -0.78370678 0.52365613
    outer loop
      vertex -0.00123744 -0.00640165 0.00287013
      vertex -0.00000000 -0.00530330 0.00530330
      vertex -0.00094709 -0.00489961 0.00530330
    endloop
  endfacet
  facet normal 0.33404780 -0.78370678 0.52365613
    outer loop
      vertex -0.00000000 -0.00692910 0.00287013
      vertex 0.00123744 -0.00640165 0.00287013
      vertex 0.00094709 -0.00489961 0.00530330
    endloop
  endfacet
  facet normal 0.33404780 -0.78370678 0.52365613
    outer loop
      vertex -0.00000000 -0.00692910 0.00287013
      vertex 0.00094709 -0.00489961 0.00530330
      vertex -0.00000000 -0.00530330 0.00530330
    endloop
  endfacet
  facet normal 0.74726747 -0.52190358 0.41134897
    outer loop
      vertex 0.00123744 -0.00640165 0.00287013
      vertex 0.00228649 -0.00489961 0.00287013
      vertex 0.00175000 -0.00375000 0.00530330
    endloop
  endfacet
  facet normal 0.74726747 -0.52190358 0.41134897
    outer loop
      vertex 0.00123744 -0.00640165 0.00287013
      vertex 0.00175000 -0.00375000 0.00530330
      vertex 0.00094709 -0.00489961 0.00530330
    endloop
  endfacet
  facet normal 0.90074887 -0.28086854 0.33130703
    outer loop
      vertex 0.00228649 -0.00489961 0.00287013
      vertex 0.00298744 -0.00265165 0.00287013
      vertex 0.00228649 -0.00202949 0.00530330
    endloop
  endfacet
  facet normal 0.90074887 -0.28086854 0.33130703
    outer loop
      vertex 0.00228649 -0.00489961 0.00287013
      vertex 0.00228649 -0.00202949 0.00530330
      vertex 0.00175000 -0.00375000 0.00530330
    endloop
  endfacet
  facet normal 0.95093891 -0.08827164 0.29651863
    outer loop
      vertex 0.00298744 -0.00265165 0.00287013
      vertex 0.00323358 0.00000000 0.00287013
      vertex 0.00247487 0.00000000 0.00530330
    endloop
  endfacet
  facet normal 0.95093891 -0.08827164 0.29651863
    outer loop
      vertex 0.00298744 -0.00265165 0.00287013
      vertex 0.00247487 0.00000000 0.00530330
      vertex 0.00228649 -0.00202949 0.00530330
    endloop
  endfacet
  facet normal 0.81747772 0.07588300 0.57093954
    outer loop
      vertex 0.00247487 0.00000000 0.00530330
      vertex 0.00228649 0.00202949 0.00530330
      vertex 0.00123744 0.00109835 0.00692910
    endloop
  endfacet
  facet normal 0.81747772 0.07588300 0.57093954
    outer loop
      vertex 0.00247487 0.00000000 0.00530330
      vertex 0.00123744 0.00109835 0.00692910
      vertex 0.00133939 0.00000000 0.00692910
    endloop
  endfacet
  facet normal 0.75038828 0.23398359 0.61819828
    outer loop
      vertex 0.00228649 0.00202949 0.00530330
      vertex 0.00175000 0.00375000 0.00530330
      vertex 0.00094709 0.00202949 0.00692910
    endloop
  endfacet
  facet normal 0.75038828 0.23398359 0.61819828
    outer loop
      vertex 0.00228649 0.00202949 0.00530330
      vertex 0.00094709 0.00202949 0.00692910
      vertex 0.00123744 0.00109835 0.00692910
    endloop
  endfacet
  facet normal 0.57658425 0.40269568 0.71090561
    outer loop
      vertex 0.00175000 0.00375000 0.00530330
      vertex 0.00094709 0.00489961 0.00530330
      vertex 0.00051256 0.00265165 0.00692910
    endloop
  endfacet
  facet normal 0.57658425 0.40269568 0.71090561
    outer loop
      vertex 0.00175000 0.00375000 0.00530330
      vertex 0.00051256 0.00265165 0.00692910
      vertex 0.00094709 0.00202949 0.00692910
    endloop
  endfacet
  facet normal 0.23043376 0.54061874 0.80909311
    outer loop
      vertex 0.00094709 0.00489961 0.00530330
      vertex 0.00000000 0.00530330 0.00530330
      vertex 0.00000000 0.00287013 0.00692910
    endloop
  endfacet
  facet normal 0.23043376 0.54061874 0.80909311
    outer loop
      vertex 0.00094709 0.00489961 0.00530330
      vertex 0.00000000 0.00287013 0.00692910
      vertex 0.00051256 0.00265165 0.00692910
    endloop
  endfacet
  facet normal -0.23043376 0.54061874 0.80909311
    outer loop
      vertex 0.00000000 0.00530330 0.00530330
      vertex -0.00094709 0.00489961 0.00530330
      vertex -0.00051256 0.00265165 0.00692910
    endloop
  endfacet
  facet normal -0.23043376 0.54061874 0.80909311
    outer loop
      vertex 0.00000000 0.00530330 0.00530330
      vertex -0.00051256 0.00265165 0.00692910
      vertex 0.00000000 0.00287013 0.00692910
    endloop
  endfacet
  facet normal -0.57658425 0.40269568 0.71090561
    outer loop
      vertex -0.00094709 0.00489961 0.00530330
      vertex -0.00175000 0.00375000 0.00530330
      vertex -0.00094709 0.00202949 0.00692910
    endloop
  endfacet
  facet normal -0.57658425 0.40269568 0.71090561
    outer loop
      vertex -0.00094709 0.00489961 0.00530330
      vertex -0.00094709 0.00202949 0.00692910
      vertex -0.00051256 0.00265165 0.00692910
    endloop
  endfacet
  facet normal -0.75038828 0.23398359 0.61819828
    outer loop
      vertex -0.00175000 0.00375000 0.00530330
      vertex -0.00228649 0.00202949 0.00530330
      vertex -0.00123744 0.00109835 0.00692910
    endloop
  endfacet
  facet normal -0.75038828 0.23398359 0.61819828
    outer loop
      vertex -0.00175000 0.00375000 0.00530330
      vertex -0.00123744 0.00109835 0.00692910
      vertex -0.00094709 0.00202949 0.00692910
    endloop
  endfacet
  facet normal -0.81747772 0.07588300 0.57093954
    outer loop
      vertex -0.00228649 0.00202949 0.00530330
      vertex -0.00247487 0.00000000 0.00530330
      vertex -0.00133939 0.00000000 0.00692910
    endloop
  endfacet
  facet normal -0.81747772 0.07588300 0.57093954
    outer loop
      vertex -0.00228649 0.00202949 0.00530330
      vertex -0.00133939 0.00000000 0.00692910
      vertex -0.00123744 0.00109835 0.00692910
    endloop
  endfacet
  facet normal -0.81747772 -0.07588300 0.57093954
    outer loop
      vertex -0.00247487 0.00000000 0.00530330
      vertex -0.00228649 -0.00202949 0.00530330
      vertex -0.00123744 -0.00109835 0.00692910
    endloop
  endfacet
  facet normal -0.81747772 -0.07588300 0.57093954
    outer loop
      vertex -0.00247487 0.00000000 0.00530330
      vertex -0.00123744 -0.00109835 0.00692910
      vertex -0.00133939 0.00000000 0.00692910
    endloop
  endfacet
  facet normal -0.75038828 -0.23398359 0.61819828
    outer loop
      vertex -0.00228649 -0.00202949 0.00530330
      vertex -0.00175000 -0.00375000 0.00530330
      vertex -0.00094709 -0.00202949 0.00692910
    endloop
  endfacet
  facet normal -0.75038828 -0.23398359 0.61819828
    outer loop
      vertex -0.00228649 -0.00202949 0.00530330
      vertex -0.00094709 -0.00202949 0.00692910
      vertex -0.00123744 -0.00109835 0.00692910
    endloop
  endfacet
  facet normal -0.57658425 -0.40269568 0.71090561
    outer loop
      vertex -0.00175000 -0.00375000 0.00530330
      vertex -0.00094709 -0.00489961 0.00530330
      vertex -0.00051256 -0.00265165 0.00692910
    endloop
  endfacet
  facet normal -0.57658425 -0.40269568 0.71090561
    outer loop
      vertex -0.00175000 -0.00375000 0.00530330
      vertex -0.00051256 -0.00265165 0.00692910
      vertex -0.00094709 -0.00202949 0.00692910
    endloop
  endfacet
  facet normal -0.23043376 -0.54061874 0.80909311
    outer loop
      vertex -0.00094709 -0.00489961 0.00530330
      vertex -0.00000000 -0.00530330 0.00530330
      vertex -0.00000000 -0.00287013 0.00692910
    endloop
  endfacet
  facet normal -0.23043376 -0.54061874 0.80909311
    outer loop
      vertex -0.00094709 -0.00489961 0.00530330
      vertex -0.00000000 -0.00287013 0.00692910
      vertex -0.00051256 -0.00265165 0.00692910
    endloop
  endfacet
  facet normal 0.23043376 -0.54061874 0.80909311
    outer loop
      vertex -0.00000000 -0.00530330 0.00530330
      vertex 0.00094709 -0.00489961 0.00530330
      vertex 0.00051256 -0.00265165 0.00692910
    endloop
  endfacet
  facet normal 0.23043376 -0.54061874 0.80909311
    outer loop
      vertex -0.00000000 -0.00530330 0.00530330
      vertex 0.00051256 -0.00265165 0.00692910
      vertex -0.00000000 -0.00287013 0.00692910
    endloop
  endfacet
  facet normal 0.57658425 -0.40269568 0.71090561
    outer loop
      vertex 0.00094709 -0.00489961 0.00530330
      vertex 0.00175000 -0.00375000 0.00530330
      vertex 0.00094709 -0.00202949 0.00692910
    endloop
  endfacet
  facet normal 0.57658425 -0.40269568 0.71090561
    outer loop
      vertex 0.00094709 -0.00489961 0.00530330
      vertex 0.00094709 -0.00202949 0.00692910
      vertex 0.00051256 -0.00265165 0.00692910
    endloop
  endfacet
  facet normal 0.75038828 -0.23398359 0.61819828
    outer loop
      vertex 0.00175000 -0.00375000 0.00530330
      vertex 0.00228649 -0.00202949 0.00530330
      vertex 0.00123744 -0.00109835 0.00692910
    endloop
  endfacet
  facet normal 0.75038828 -0.23398359 0.61819828
    outer loop
      vertex 0.00175000 -0.00375000 0.00530330
      vertex 0.00123744 -0.00109835 0.00692910
      vertex 0.00094709 -0.00202949 0.00692910
    endloop
  endfacet
  facet normal 0.81747772 -0.07588300 0.57093954
    outer loop
      vertex 0.00228649 -0.00202949 0.00530330
      vertex 0.00247487 0.00000000 0.00530330
      vertex 0.00133939 0.00000000 0.00692910
    endloop
  endfacet
  facet normal 0.81747772 -0.07588300 0.57093954
    outer loop
      vertex 0.00228649 -0.00202949 0.00530330
      vertex 0.00133939 0.00000000 0.00692910
      vertex 0.00123744 -0.00109835 0.00692910
    endloop
  endfacet
  facet normal 0.39184775 0.03637357 0.91931078
    outer loop
      vertex 0.00133939 0.00000000 0.00692910
      vertex 0.00123744 0.00109835 0.00692910
      vertex 0.00000000 0.00000000 0.00750000
    endloop
  endfacet
  facet normal 0.33795060 0.10537864 0.93524582
    outer loop
      vertex 0.00123744 0.00109835 0.00692910
      vertex 0.00094709 0.00202949 0.00692910
      vertex 0.00000000 0.00000000 0.00750000
    endloop
  endfacet
  facet normal 0.23161078 0.16176068 0.95926531
    outer loop
      vertex 0.00094709 0.00202949 0.00692910
      vertex 0.00051256 0.00265165 0.00692910
      vertex 0.00000000 0.00000000 0.00750000
    endloop
  endfacet
  facet normal 0.08286943 0.19441929 0.97741178
    outer loop
      vertex 0.00051256 0.00265165 0.00692910
      vertex 0.00000000 0.00287013 0.00692910
      vertex 0.00000000 0.00000000 0.00750000
    endloop
  endfacet
  facet normal -0.08286943 0.19441929 0.97741178
    outer loop
      vertex 0.00000000 0.00287013 0.00692910
      vertex -0.00051256 0.00265165 0.00692910
      vertex 0.00000000 0.00000000 0.00750000
    endloop
  endfacet
  facet normal -0.23161078 0.16176068 0.95926531
    outer loop
      vertex -0.00051256 0.00265165 0.00692910
      vertex -0.00094709 0.00202949 0.00692910
      vertex -0.00000000 0.00000000 0.00750000
    endloop
  endfacet
  facet normal -0.33795060 0.10537864 0.93524582
    outer loop
      vertex -0.00094709 0.00202949 0.00692910
      vertex -0.00123744 0.00109835 0.00692910
      vertex -0.00000000 0.00000000 0.00750000
    endloop
  endfacet
  facet normal -0.39184775 0.03637357 0.91931078
    outer loop
      vertex -0.00123744 0.00109835 0.00692910
      vertex -0.00133939 0.00000000 0.00692910
      vertex -0.00000000 0.00000000 0.00750000
    endloop
  endfacet
  facet normal -0.39184775 -0.03637357 0.91931078
    outer loop
      vertex -0.00133939 0.00000000 0.00692910
      vertex -0.00123744 -0.00109835 0.00692910
      vertex -0.00000000 0.00000000 0.00750000
    endloop
  endfacet
  facet normal -0.33795060 -0.10537864 0.93524582
    outer loop
      vertex -0.00123744 -0.00109835 0.00692910
      vertex -0.00094709 -0.00202949 0.00692910
      vertex -0.00000000 -0.00000000 0.00750000
    endloop
  endfacet
  facet normal -0.23161078 -0.16176068 0.95926531
    outer loop
      vertex -0.00094709 -0.00202949 0.00692910
      vertex -0.00051256 -0.00265165 0.00692910
      vertex -0.00000000 -0.00000000 0.00750000
    endloop
  endfacet
  facet normal -0.08286943 -0.19441929 0.97741178
    outer loop
      vertex -0.00051256 -0.00265165 0.00692910
      vertex -0.00000000 -0.00287013 0.00692910
      vertex -0.00000000 -0.00000000 0.00750000
    endloop
  endfacet
  facet normal 0.08286943 -0.19441929 0.97741178
    outer loop
      vertex -0.00000000 -0.00287013 0.00692910
      vertex 0.00051256 -0.00265165 0.00692910
      vertex -0.00000000 -0.00000000 0.00750000
    endloop
  endfacet
  facet normal 0.23161078 -0.16176068 0.95926531
    outer loop
      vertex 0.00051256 -0.00265165 0.00692910
      vertex 0.00094709 -0.00202949 0.00692910
      vertex 0.00000000 -0.00000000 0.00750000
    endloop
  endfacet
  facet normal 0.33795060 -0.10537864 0.93524582
    outer loop
      vertex 0.00094709 -0.00202949 0.00692910
      vertex 0.00123744 -0.00109835 0.00692910
      vertex 0.00000000 -0.00000000 0.00750000
    endloop
  endfacet
  facet normal 0.39184775 -0.03637357 0.91931078
    outer loop
      vertex 0.00123744 -0.00109835 0.00692910
      vertex 0.00133939 0.00000000 0.00692910
      vertex 0.00000000 -0.00000000 0.00750000
    endloop
  endfacet
endsolid pupil
