solid side_fin
  facet normal 0.31124297 0.10270009 -0.94476479
    outer loop
      vertex 0.00000000 0.00000000 -0.05200000
      vertex 0.00734732 0.00114590 -0.04945494
      vertex 0.00772542 0.00000000 -0.04945494
    endloop
  endfacet
  facet normal 0.27268219 0.28945524 -0.91752934
    outer loop
      vertex 0.00000000 0.00000000 -0.05200000
      vertex 0.00625000 0.00217963 -0.04945494
      vertex 0.00734732 0.00114590 -0.04945494
    endloop
  endfacet
  facet normal 0.20709076 0.43143908 -0.87805110
    outer loop
      vertex 0.00000000 0.00000000 -0.05200000
      vertex 0.00454089 0.00300000 -0.04945494
      vertex 0.00625000 0.00217963 -0.04945494
    endloop
  endfacet
  facet normal 0.12769308 0.52210788 -0.84326617
    outer loop
      vertex 0.00000000 0.00000000 -0.05200000
      vertex 0.00238729 0.00352671 -0.04945494
      vertex 0.00454089 0.00300000 -0.04945494
    endloop
  endfacet
  facet normal 0.04298063 0.56535212 -0.82372911
    outer loop
      vertex 0.00000000 0.00000000 -0.05200000
      vertex 0.00000000 0.00370820 -0.04945494
      vertex 0.00238729 0.00352671 -0.04945494
    endloop
  endfacet
  facet normal -0.04298063 0.56535212 -0.82372911
    outer loop
      vertex 0.00000000 0.00000000 -0.05200000
      vertex -0.00238729 0.00352671 -0.04945494
      vertex 0.00000000 0.00370820 -0.04945494
    endloop
  endfacet
  facet normal -0.12769308 0.52210788 -0.84326617
    outer loop
      vertex -0.00000000 0.00000000 -0.05200000
      vertex -0.00454089 0.00300000 -0.04945494
      vertex -0.00238729 0.00352671 -0.04945494
    endloop
  endfacet
  facet normal -0.20709076 0.43143908 -0.87805110
    outer loop
      vertex -0.00000000 0.00000000 -0.05200000
      vertex -0.00625000 0.00217963 -0.04945494
      vertex -0.00454089 0.00300000 -0.04945494
    endloop
  endfacet
  facet normal -0.27268219 0.28945524 -0.91752934
    outer loop
      vertex -0.00000000 0.00000000 -0.05200000
      vertex -0.00734732 0.00114590 -0.04945494
      vertex -0.00625000 0.00217963 -0.04945494
    endloop
  endfacet
  facet normal -0.31124297 0.10270009 -0.94476479
    outer loop
      vertex -0.00000000 0.00000000 -0.05200000
      vertex -0.00772542 0.00000000 -0.04945494
      vertex -0.00734732 0.00114590 -0.04945494
    endloop
  endfacet
  facet normal -0.31124297 -0.10270009 -0.94476479
    outer loop
      vertex -0.00000000 0.00000000 -0.05200000
      vertex -0.00734732 -0.00114590 -0.04945494
      vertex -0.00772542 0.00000000 -0.04945494
    endloop
  endfacet
  facet normal -0.27268219 -0.28945524 -0.91752934
    outer loop
      vertex -0.00000000 -0.00000000 -0.05200000
      vertex -0.00625000 -0.00217963 -0.04945494
      vertex -0.00734732 -0.00114590 -0.04945494
    endloop
  endfacet
  facet normal -0.20709076 -0.43143908 -0.87805110
    outer loop
      vertex -0.00000000 -0.00000000 -0.05200000
      vertex -0.00454089 -0.00300000 -0.04945494
      vertex -0.00625000 -0.00217963 -0.04945494
    endloop
  endfacet
  facet normal -0.12769308 -0.52210788 -0.84326617
    outer loop
      vertex -0.00000000 -0.00000000 -0.05200000
      vertex -0.00238729 -0.00352671 -0.04945494
      vertex -0.00454089 -0.00300000 -0.04945494
    endloop
  endfacet
  facet normal -0.04298063 -0.56535212 -0.82372911
    outer loop
      vertex -0.00000000 -0.00000000 -0.05200000
      vertex -0.00000000 -0.00370820 -0.04945494
      vertex -0.00238729 -0.00352671 -0.04945494
    endloop
  endfacet
  facet normal 0.04298063 -0.56535212 -0.82372911
    outer loop
      vertex -0.00000000 -0.00000000 -0.05200000
      vertex 0.00238729 -0.00352671 -0.04945494
      vertex -0.00000000 -0.00370820 -0.04945494
    endloop
  endfacet
  facet normal 0.12769308 -0.52210788 -0.84326617
    outer loop
      vertex 0.00000000 -0.00000000 -0.05200000
      vertex 0.00454089 -0.00300000 -0.04945494
      vertex 0.00238729 -0.00352671 -0.04945494
    endloop
  endfacet
  facet normal 0.20709076 -0.43143908 -0.87805110
    outer loop
      vertex 0.00000000 -0.00000000 -0.05200000
      vertex 0.00625000 -0.00217963 -0.04945494
      vertex 0.00454089 -0.00300000 -0.04945494
    endloop
  endfacet
  facet normal 0.27268219 -0.28945524 -0.91752934
    outer loop
      vertex 0.00000000 -0.00000000 -0.05200000
      vertex 0.00734732 -0.00114590 -0.04945494
      vertex 0.00625000 -0.00217963 -0.04945494
    endloop
  endfacet
  facet normal 0.31124297 -0.10270009 -0.94476479
    outer loop
      vertex 0.00000000 -0.00000000 -0.05200000
      vertex 0.00772542 0.00000000 -0.04945494
      vertex 0.00734732 -0.00114590 -0.04945494
    endloop
  endfacet
  facet normal 0.70725015 0.23336962 -0.66733489
    outer loop
      vertex 0.00772542 0.00000000 -0.04945494
      vertex 0.00734732 0.00114590 -0.04945494
      vertex 0.01397542 0.00217963 -0.04206888
    endloop
  endfacet
  facet normal 0.70725015 0.23336962 -0.66733489
    outer loop
      vertex 0.00772542 0.00000000 -0.04945494
      vertex 0.01397542 0.00217963 -0.04206888
      vertex 0.01469463 0.00000000 -0.04206888
    endloop
  endfacet
  facet normal 0.55720794 0.59148255 -0.58281017
    outer loop
      vertex 0.00734732 0.00114590 -0.04945494
      vertex 0.00625000 0.00217963 -0.04945494
      vertex 0.01188821 0.00414590 -0.04206888
    endloop
  endfacet
  facet normal 0.55720794 0.59148255 -0.58281017
    outer loop
      vertex 0.00734732 0.00114590 -0.04945494
      vertex 0.01188821 0.00414590 -0.04206888
      vertex 0.01397542 0.00217963 -0.04206888
    endloop
  endfacet
  facet normal 0.37589405 0.78311261 -0.49541730
    outer loop
      vertex 0.00625000 0.00217963 -0.04945494
      vertex 0.00454089 0.00300000 -0.04945494
      vertex 0.00863729 0.00570634 -0.04206888
    endloop
  endfacet
  facet normal 0.37589405 0.78311261 -0.49541730
    outer loop
      vertex 0.00625000 0.00217963 -0.04945494
      vertex 0.00863729 0.00570634 -0.04206888
      vertex 0.01188821 0.00414590 -0.04206888
    endloop
  endfacet
  facet normal 0.21353102 0.87307962 -0.43833375
    outer loop
      vertex 0.00454089 0.00300000 -0.04945494
      vertex 0.00238729 0.00352671 -0.04945494
      vertex 0.00454089 0.00670820 -0.04206888
    endloop
  endfacet
  facet normal 0.21353102 0.87307962 -0.43833375
    outer loop
      vertex 0.00454089 0.00300000 -0.04945494
      vertex 0.00454089 0.00670820 -0.04206888
      vertex 0.00863729 0.00570634 -0.04206888
    endloop
  endfacet
  facet normal 0.06908731 0.90875027 -0.41158219
    outer loop
      vertex 0.00238729 0.00352671 -0.04945494
      vertex 0.00000000 0.00370820 -0.04945494
      vertex 0.00000000 0.00705342 -0.04206888
    endloop
  endfacet
  facet normal 0.06908731 0.90875027 -0.41158219
    outer loop
      vertex 0.00238729 0.00352671 -0.04945494
      vertex 0.00000000 0.00705342 -0.04206888
      vertex 0.00454089 0.00670820 -0.04206888
    endloop
  endfacet
  facet normal -0.06908731 0.90875027 -0.41158219
    outer loop
      vertex 0.00000000 0.00370820 -0.04945494
      vertex -0.00238729 0.00352671 -0.04945494
      vertex -0.00454089 0.00670820 -0.04206888
    endloop
  endfacet
  facet normal -0.06908731 0.90875027 -0.41158219
    outer loop
      vertex 0.00000000 0.00370820 -0.04945494
      vertex -0.00454089 0.00670820 -0.04206888
      vertex 0.00000000 0.00705342 -0.04206888
    endloop
  endfacet
  facet normal -0.21353102 0.87307962 -0.43833375
    outer loop
      vertex -0.00238729 0.00352671 -0.04945494
      vertex -0.00454089 0.00300000 -0.04945494
      vertex -0.00863729 0.00570634 -0.04206888
    endloop
  endfacet
  facet normal -0.21353102 0.87307962 -0.43833375
    outer loop
      vertex -0.00238729 0.00352671 -0.04945494
      vertex -0.00863729 0.00570634 -0.04206888
      vertex -0.00454089 0.00670820 -0.04206888
    endloop
  endfacet
  facet normal -0.37589405 0.78311261 -0.49541730
    outer loop
      vertex -0.00454089 0.00300000 -0.04945494
      vertex -0.00625000 0.00217963 -0.04945494
      vertex -0.01188821 0.00414590 -0.04206888
    endloop
  endfacet
  facet normal -0.37589405 0.78311261 -0.49541730
    outer loop
      vertex -0.00454089 0.00300000 -0.04945494
      vertex -0.01188821 0.00414590 -0.04206888
      vertex -0.00863729 0.00570634 -0.04206888
    endloop
  endfacet
  facet normal -0.55720794 0.59148255 -0.58281017
    outer loop
      vertex -0.00625000 0.00217963 -0.04945494
      vertex -0.00734732 0.00114590 -0.04945494
      vertex -0.01397542 0.00217963 -0.04206888
    endloop
  endfacet
  facet normal -0.55720794 0.59148255 -0.58281017
    outer loop
      vertex -0.00625000 0.00217963 -0.04945494
      vertex -0.01397542 0.00217963 -0.04206888
      vertex -0.01188821 0.00414590 -0.04206888
    endloop
  endfacet
  facet normal -0.70725015 0.23336962 -0.66733489
    outer loop
      vertex -0.00734732 0.00114590 -0.04945494
      vertex -0.00772542 0.00000000 -0.04945494
      vertex -0.01469463 0.00000000 -0.04206888
    endloop
  endfacet
  facet normal -0.70725015 0.23336962 -0.66733489
    outer loop
      vertex -0.00734732 0.00114590 -0.04945494
      vertex -0.01469463 0.00000000 -0.04206888
      vertex -0.01397542 0.00217963 -0.04206888
    endloop
  endfacet
  facet normal -0.70725015 -0.23336962 -0.66733489
    outer loop
      vertex -0.00772542 0.00000000 -0.04945494
      vertex -0.00734732 -0.00114590 -0.04945494
      vertex -0.01397542 -0.00217963 -0.04206888
    endloop
  endfacet
  facet normal -0.70725015 -0.23336962 -0.66733489
    outer loop
      vertex -0.00772542 0.00000000 -0.04945494
      vertex -0.01397542 -0.00217963 -0.04206888
      vertex -0.01469463 0.00000000 -0.04206888
    endloop
  endfacet
  facet normal -0.55720794 -0.59148255 -0.58281017
    outer loop
      vertex -0.00734732 -0.00114590 -0.04945494
      vertex -0.00625000 -0.00217963 -0.04945494
      vertex -0.01188821 -0.00414590 -0.04206888
    endloop
  endfacet
  facet normal -0.55720794 -0.59148255 -0.58281017
    outer loop
      vertex -0.00734732 -0.00114590 -0.04945494
      vertex -0.01188821 -0.00414590 -0.04206888
      vertex -0.01397542 -0.00217963 -0.04206888
    endloop
  endfacet
  facet normal -0.37589405 -0.78311261 -0.49541730
    outer loop
      vertex -0.00625000 -0.00217963 -0.04945494
      vertex -0.00454089 -0.00300000 -0.04945494
      vertex -0.00863729 -0.00570634 -0.04206888
    endloop
  endfacet
  facet normal -0.37589405 -0.78311261 -0.49541730
    outer loop
      vertex -0.00625000 -0.00217963 -0.04945494
      vertex -0.00863729 -0.00570634 -0.04206888
      vertex -0.01188821 -0.00414590 -0.04206888
    endloop
  endfacet
  facet normal -0.21353102 -0.87307962 -0.43833375
    outer loop
      vertex -0.00454089 -0.00300000 -0.04945494
      vertex -0.00238729 -0.00352671 -0.04945494
      vertex -0.00454089 -0.00670820 -0.04206888
    endloop
  endfacet
  facet normal -0.21353102 -0.87307962 -0.43833375
    outer loop
      vertex -0.00454089 -0.00300000 -0.04945494
      vertex -0.00454089 -0.00670820 -0.04206888
      vertex -0.00863729 -0.00570634 -0.04206888
    endloop
  endfacet
  facet normal -0.06908731 -0.90875027 -0.41158219
    outer loop
      vertex -0.00238729 -0.00352671 -0.04945494
      vertex -0.00000000 -0.00370820 -0.04945494
      vertex -0.00000000 -0.00705342 -0.04206888
    endloop
  endfacet
  facet normal -0.06908731 -0.90875027 -0.41158219
    outer loop
      vertex -0.00238729 -0.00352671 -0.04945494
      vertex -0.00000000 -0.00705342 -0.04206888
      vertex -0.00454089 -0.00670820 -0.04206888
    endloop
  endfacet
  facet normal 0.06908731 -0.90875027 -0.41158219
    outer loop
      vertex -0.00000000 -0.00370820 -0.04945494
      vertex 0.00238729 -0.00352671 -0.04945494
      vertex 0.00454089 -0.00670820 -0.04206888
    endloop
  endfacet
  facet normal 0.06908731 -0.90875027 -0.41158219
    outer loop
      vertex -0.00000000 -0.00370820 -0.04945494
      vertex 0.00454089 -0.00670820 -0.04206888
      vertex -0.00000000 -0.00705342 -0.04206888
    endloop
  endfacet
  facet normal 0.21353102 -0.87307962 -0.43833375
    outer loop
      vertex 0.00238729 -0.00352671 -0.04945494
      vertex 0.00454089 -0.00300000 -0.04945494
      vertex 0.00863729 -0.00570634 -0.04206888
    endloop
  endfacet
  facet normal 0.21353102 -0.87307962 -0.43833375
    outer loop
      vertex 0.00238729 -0.00352671 -0.04945494
      vertex 0.00863729 -0.00570634 -0.04206888
      vertex 0.00454089 -0.00670820 -0.04206888
    endloop
  endfacet
  facet normal 0.37589405 -0.78311261 -0.49541730
    outer loop
      vertex 0.00454089 -0.00300000 -0.04945494
      vertex 0.00625000 -0.00217963 -0.04945494
      vertex 0.01188821 -0.00414590 -0.04206888
    endloop
  endfacet
  facet normal 0.37589405 -0.78311261 -0.49541730
    outer loop
      vertex 0.00454089 -0.00300000 -0.04945494
      vertex 0.01188821 -0.00414590 -0.04206888
      vertex 0.00863729 -0.00570634 -0.04206888
    endloop
  endfacet
  facet normal 0.55720794 -0.59148255 -0.58281017
    outer loop
      vertex 0.00625000 -0.00217963 -0.04945494
      vertex 0.00734732 -0.00114590 -0.04945494
      vertex 0.01397542 -0.00217963 -0.04206888
    endloop
  endfacet
  facet normal 0.55720794 -0.59148255 -0.58281017
    outer loop
      vertex 0.00625000 -0.00217963 -0.04945494
      vertex 0.01397542 -0.00217963 -0.04206888
      vertex 0.01188821 -0.00414590 -0.04206888
    endloop
  endfacet
  facet normal 0.70725015 -0.23336962 -0.66733489
    outer loop
      vertex 0.00734732 -0.00114590 -0.04945494
      vertex 0.00772542 0.00000000 -0.04945494
      vertex 0.01469463 0.00000000 -0.04206888
    endloop
  endfacet
  facet normal 0.70725015 -0.23336962 -0.66733489
    outer loop
      vertex 0.00734732 -0.00114590 -0.04945494
      vertex 0.01469463 0.00000000 -0.04206888
      vertex 0.01397542 -0.00217963 -0.04206888
    endloop
  endfacet
  facet normal 0.86386273 0.28504670 -0.41531862
    outer loop
      vertex 0.01469463 0.00000000 -0.04206888
      vertex 0.01397542 0.00217963 -0.04206888
      vertex 0.01923552 0.00300000 -0.03056483
    endloop
  endfacet
  facet normal 0.86386273 0.28504670 -0.41531862
    outer loop
      vertex 0.01469463 0.00000000 -0.04206888
      vertex 0.01923552 0.00300000 -0.03056483
      vertex 0.02022542 0.00000000 -0.03056483
    endloop
  endfacet
  facet normal 0.64404600 0.68366214 -0.34323581
    outer loop
      vertex 0.01397542 0.00217963 -0.04206888
      vertex 0.01188821 0.00414590 -0.04206888
      vertex 0.01636271 0.00570634 -0.03056483
    endloop
  endfacet
  facet normal 0.64404600 0.68366214 -0.34323581
    outer loop
      vertex 0.01397542 0.00217963 -0.04206888
      vertex 0.01636271 0.00570634 -0.03056483
      vertex 0.01923552 0.00300000 -0.03056483
    endloop
  endfacet
  facet normal 0.41554121 0.86571086 -0.27905235
    outer loop
      vertex 0.01188821 0.00414590 -0.04206888
      vertex 0.00863729 0.00570634 -0.04206888
      vertex 0.01188821 0.00785410 -0.03056483
    endloop
  endfacet
  facet normal 0.41554121 0.86571086 -0.27905235
    outer loop
      vertex 0.01188821 0.00414590 -0.04206888
      vertex 0.01188821 0.00785410 -0.03056483
      vertex 0.01636271 0.00570634 -0.03056483
    endloop
  endfacet
  facet normal 0.23055885 0.94270256 -0.24115242
    outer loop
      vertex 0.00863729 0.00570634 -0.04206888
      vertex 0.00454089 0.00670820 -0.04206888
      vertex 0.00625000 0.00923305 -0.03056483
    endloop
  endfacet
  facet normal 0.23055885 0.94270256 -0.24115242
    outer loop
      vertex 0.00863729 0.00570634 -0.04206888
      vertex 0.00625000 0.00923305 -0.03056483
      vertex 0.01188821 0.00785410 -0.03056483
    endloop
  endfacet
  facet normal 0.07387522 0.97172866 -0.22424508
    outer loop
      vertex 0.00454089 0.00670820 -0.04206888
      vertex 0.00000000 0.00705342 -0.04206888
      vertex 0.00000000 0.00970820 -0.03056483
    endloop
  endfacet
  facet normal 0.07387522 0.97172866 -0.22424508
    outer loop
      vertex 0.00454089 0.00670820 -0.04206888
      vertex 0.00000000 0.00970820 -0.03056483
      vertex 0.00625000 0.00923305 -0.03056483
    endloop
  endfacet
  facet normal -0.07387522 0.97172866 -0.22424508
    outer loop
      vertex 0.00000000 0.00705342 -0.04206888
      vertex -0.00454089 0.00670820 -0.04206888
      vertex -0.00625000 0.00923305 -0.03056483
    endloop
  endfacet
  facet normal -0.07387522 0.97172866 -0.22424508
    outer loop
      vertex 0.00000000 0.00705342 -0.04206888
      vertex -0.00625000 0.00923305 -0.03056483
      vertex 0.00000000 0.00970820 -0.03056483
    endloop
  endfacet
  facet normal -0.23055885 0.94270256 -0.24115242
    outer loop
      vertex -0.00454089 0.00670820 -0.04206888
      vertex -0.00863729 0.00570634 -0.04206888
      vertex -0.01188821 0.00785410 -0.03056483
    endloop
  endfacet
  facet normal -0.23055885 0.94270256 -0.24115242
    outer loop
      vertex -0.00454089 0.00670820 -0.04206888
      vertex -0.01188821 0.00785410 -0.03056483
      vertex -0.00625000 0.00923305 -0.03056483
    endloop
  endfacet
  facet normal -0.41554121 0.86571086 -0.27905235
    outer loop
      vertex -0.00863729 0.00570634 -0.04206888
      vertex -0.01188821 0.00414590 -0.04206888
      vertex -0.01636271 0.00570634 -0.03056483
    endloop
  endfacet
  facet normal -0.41554121 0.86571086 -0.27905235
    outer loop
      vertex -0.00863729 0.00570634 -0.04206888
      vertex -0.01636271 0.00570634 -0.03056483
      vertex -0.01188821 0.00785410 -0.03056483
    endloop
  endfacet
  facet normal -0.64404600 0.68366214 -0.34323581
    outer loop
      vertex -0.01188821 0.00414590 -0.04206888
      vertex -0.01397542 0.00217963 -0.04206888
      vertex -0.01923552 0.00300000 -0.03056483
    endloop
  endfacet
  facet normal -0.64404600 0.68366214 -0.34323581
    outer loop
      vertex -0.01188821 0.00414590 -0.04206888
      vertex -0.01923552 0.00300000 -0.03056483
      vertex -0.01636271 0.00570634 -0.03056483
    endloop
  endfacet
  facet normal -0.86386273 0.28504670 -0.41531862
    outer loop
      vertex -0.01397542 0.00217963 -0.04206888
      vertex -0.01469463 0.00000000 -0.04206888
      vertex -0.02022542 0.00000000 -0.03056483
    endloop
  endfacet
  facet normal -0.86386273 0.28504670 -0.41531862
    outer loop
      vertex -0.01397542 0.00217963 -0.04206888
      vertex -0.02022542 0.00000000 -0.03056483
      vertex -0.01923552 0.00300000 -0.03056483
    endloop
  endfacet
  facet normal -0.86386273 -0.28504670 -0.41531862
    outer loop
      vertex -0.01469463 0.00000000 -0.04206888
      vertex -0.01397542 -0.00217963 -0.04206888
      vertex -0.01923552 -0.00300000 -0.03056483
    endloop
  endfacet
  facet normal -0.86386273 -0.28504670 -0.41531862
    outer loop
      vertex -0.01469463 0.00000000 -0.04206888
      vertex -0.01923552 -0.00300000 -0.03056483
      vertex -0.02022542 0.00000000 -0.03056483
    endloop
  endfacet
  facet normal -0.64404600 -0.68366214 -0.34323581
    outer loop
      vertex -0.01397542 -0.00217963 -0.04206888
      vertex -0.01188821 -0.00414590 -0.04206888
      vertex -0.01636271 -0.00570634 -0.03056483
    endloop
  endfacet
  facet normal -0.64404600 -0.68366214 -0.34323581
    outer loop
      vertex -0.01397542 -0.00217963 -0.04206888
      vertex -0.01636271 -0.00570634 -0.03056483
      vertex -0.01923552 -0.00300000 -0.03056483
    endloop
  endfacet
  facet normal -0.41554121 -0.86571086 -0.27905235
    outer loop
      vertex -0.01188821 -0.00414590 -0.04206888
      vertex -0.00863729 -0.00570634 -0.04206888
      vertex -0.01188821 -0.00785410 -0.03056483
    endloop
  endfacet
  facet normal -0.41554121 -0.86571086 -0.27905235
    outer loop
      vertex -0.01188821 -0.00414590 -0.04206888
      vertex -0.01188821 -0.00785410 -0.03056483
      vertex -0.01636271 -0.00570634 -0.03056483
    endloop
  endfacet
  facet normal -0.23055885 -0.94270256 -0.24115242
    outer loop
      vertex -0.00863729 -0.00570634 -0.04206888
      vertex -0.00454089 -0.00670820 -0.04206888
      vertex -0.00625000 -0.00923305 -0.03056483
    endloop
  endfacet
  facet normal -0.23055885 -0.94270256 -0.24115242
    outer loop
      vertex -0.00863729 -0.00570634 -0.04206888
      vertex -0.00625000 -0.00923305 -0.03056483
      vertex -0.01188821 -0.00785410 -0.03056483
    endloop
  endfacet
  facet normal -0.07387522 -0.97172866 -0.22424508
    outer loop
      vertex -0.00454089 -0.00670820 -0.04206888
      vertex -0.00000000 -0.00705342 -0.04206888
      vertex -0.00000000 -0.00970820 -0.03056483
    endloop
  endfacet
  facet normal -0.07387522 -0.97172866 -0.22424508
    outer loop
      vertex -0.00454089 -0.00670820 -0.04206888
      vertex -0.00000000 -0.00970820 -0.03056483
      vertex -0.00625000 -0.00923305 -0.03056483
    endloop
  endfacet
  facet normal 0.07387522 -0.97172866 -0.22424508
    outer loop
      vertex -0.00000000 -0.00705342 -0.04206888
      vertex 0.00454089 -0.00670820 -0.04206888
      vertex 0.00625000 -0.00923305 -0.03056483
    endloop
  endfacet
  facet normal 0.07387522 -0.97172866 -0.22424508
    outer loop
      vertex -0.00000000 -0.00705342 -0.04206888
      vertex 0.00625000 -0.00923305 -0.03056483
      vertex -0.00000000 -0.00970820 -0.03056483
    endloop
  endfacet
  facet normal 0.23055885 -0.94270256 -0.24115242
    outer loop
      vertex 0.00454089 -0.00670820 -0.04206888
      vertex 0.00863729 -0.00570634 -0.04206888
      vertex 0.01188821 -0.00785410 -0.03056483
    endloop
  endfacet
  facet normal 0.23055885 -0.94270256 -0.24115242
    outer loop
      vertex 0.00454089 -0.00670820 -0.04206888
      vertex 0.01188821 -0.00785410 -0.03056483
      vertex 0.00625000 -0.00923305 -0.03056483
    endloop
  endfacet
  facet normal 0.41554121 -0.86571086 -0.27905235
    outer loop
      vertex 0.00863729 -0.00570634 -0.04206888
      vertex 0.01188821 -0.00414590 -0.04206888
      vertex 0.01636271 -0.00570634 -0.03056483
    endloop
  endfacet
  facet normal 0.41554121 -0.86571086 -0.27905235
    outer loop
      vertex 0.00863729 -0.00570634 -0.04206888
      vertex 0.01636271 -0.00570634 -0.03056483
      vertex 0.01188821 -0.00785410 -0.03056483
    endloop
  endfacet
  facet normal 0.64404600 -0.68366214 -0.34323581
    outer loop
      vertex 0.01188821 -0.00414590 -0.04206888
      vertex 0.01397542 -0.00217963 -0.04206888
      vertex 0.01923552 -0.00300000 -0.03056483
    endloop
  endfacet
  facet normal 0.64404600 -0.68366214 -0.34323581
    outer loop
      vertex 0.01188821 -0.00414590 -0.04206888
      vertex 0.01923552 -0.00300000 -0.03056483
      vertex 0.01636271 -0.00570634 -0.03056483
    endloop
  endfacet
  facet normal 0.86386273 -0.28504670 -0.41531862
    outer loop
      vertex 0.01397542 -0.00217963 -0.04206888
      vertex 0.01469463 0.00000000 -0.04206888
      vertex 0.02022542 0.00000000 -0.03056483
    endloop
  endfacet
  facet normal 0.86386273 -0.28504670 -0.41531862
    outer loop
      vertex 0.01397542 -0.00217963 -0.04206888
      vertex 0.02022542 0.00000000 -0.03056483
      vertex 0.01923552 -0.00300000 -0.03056483
    endloop
  endfacet
  facet normal 0.92494075 0.30520046 -0.22657733
    outer loop
      vertex 0.02022542 0.00000000 -0.03056483
      vertex 0.01923552 0.00300000 -0.03056483
      vertex 0.02261271 0.00352671 -0.01606888
    endloop
  endfacet
  facet normal 0.92494075 0.30520046 -0.22657733
    outer loop
      vertex 0.02022542 0.00000000 -0.03056483
      vertex 0.02261271 0.00352671 -0.01606888
      vertex 0.02377641 0.00000000 -0.01606888
    endloop
  endfacet
  facet normal 0.67411668 0.71558251 -0.18305292
    outer loop
      vertex 0.01923552 0.00300000 -0.03056483
      vertex 0.01636271 0.00570634 -0.03056483
      vertex 0.01923552 0.00670820 -0.01606888
    endloop
  endfacet
  facet normal 0.67411668 0.71558251 -0.18305292
    outer loop
      vertex 0.01923552 0.00300000 -0.03056483
      vertex 0.01923552 0.00670820 -0.01606888
      vertex 0.02261271 0.00352671 -0.01606888
    endloop
  endfacet
  facet normal 0.42806416 0.89180034 -0.14646921
    outer loop
      vertex 0.01636271 0.00570634 -0.03056483
      vertex 0.01188821 0.00785410 -0.03056483
      vertex 0.01397542 0.00923305 -0.01606888
    endloop
  endfacet
  facet normal 0.42806416 0.89180034 -0.14646921
    outer loop
      vertex 0.01636271 0.00570634 -0.03056483
      vertex 0.01397542 0.00923305 -0.01606888
      vertex 0.01923552 0.00670820 -0.01606888
    endloop
  endfacet
  facet normal 0.23568866 0.96367717 -0.12560716
    outer loop
      vertex 0.01188821 0.00785410 -0.03056483
      vertex 0.00625000 0.00923305 -0.03056483
      vertex 0.00734732 0.01085410 -0.01606888
    endloop
  endfacet
  facet normal 0.23568866 0.96367717 -0.12560716
    outer loop
      vertex 0.01188821 0.00785410 -0.03056483
      vertex 0.00734732 0.01085410 -0.01606888
      vertex 0.01397542 0.00923305 -0.01606888
    endloop
  endfacet
  facet normal 0.07529007 0.99033910 -0.11644684
    outer loop
      vertex 0.00625000 0.00923305 -0.03056483
      vertex 0.00000000 0.00970820 -0.03056483
      vertex 0.00000000 0.01141268 -0.01606888
    endloop
  endfacet
  facet normal 0.07529007 0.99033910 -0.11644684
    outer loop
      vertex 0.00625000 0.00923305 -0.03056483
      vertex 0.00000000 0.01141268 -0.01606888
      vertex 0.00734732 0.01085410 -0.01606888
    endloop
  endfacet
  facet normal -0.07529007 0.99033910 -0.11644684
    outer loop
      vertex 0.00000000 0.00970820 -0.03056483
      vertex -0.00625000 0.00923305 -0.03056483
      vertex -0.00734732 0.01085410 -0.01606888
    endloop
  endfacet
  facet normal -0.07529007 0.99033910 -0.11644684
    outer loop
      vertex 0.00000000 0.00970820 -0.03056483
      vertex -0.00734732 0.01085410 -0.01606888
      vertex 0.00000000 0.01141268 -0.01606888
    endloop
  endfacet
  facet normal -0.23568866 0.96367717 -0.12560716
    outer loop
      vertex -0.00625000 0.00923305 -0.03056483
      vertex -0.01188821 0.00785410 -0.03056483
      vertex -0.01397542 0.00923305 -0.01606888
    endloop
  endfacet
  facet normal -0.23568866 0.96367717 -0.12560716
    outer loop
      vertex -0.00625000 0.00923305 -0.03056483
      vertex -0.01397542 0.00923305 -0.01606888
      vertex -0.00734732 0.01085410 -0.01606888
    endloop
  endfacet
  facet normal -0.42806416 0.89180034 -0.14646921
    outer loop
      vertex -0.01188821 0.00785410 -0.03056483
      vertex -0.01636271 0.00570634 -0.03056483
      vertex -0.01923552 0.00670820 -0.01606888
    endloop
  endfacet
  facet normal -0.42806416 0.89180034 -0.14646921
    outer loop
      vertex -0.01188821 0.00785410 -0.03056483
      vertex -0.01923552 0.00670820 -0.01606888
      vertex -0.01397542 0.00923305 -0.01606888
    endloop
  endfacet
  facet normal -0.67411668 0.71558251 -0.18305292
    outer loop
      vertex -0.01636271 0.00570634 -0.03056483
      vertex -0.01923552 0.00300000 -0.03056483
      vertex -0.02261271 0.00352671 -0.01606888
    endloop
  endfacet
  facet normal -0.67411668 0.71558251 -0.18305292
    outer loop
      vertex -0.01636271 0.00570634 -0.03056483
      vertex -0.02261271 0.00352671 -0.01606888
      vertex -0.01923552 0.00670820 -0.01606888
    endloop
  endfacet
  facet normal -0.92494075 0.30520046 -0.22657733
    outer loop
      vertex -0.01923552 0.00300000 -0.03056483
      vertex -0.02022542 0.00000000 -0.03056483
      vertex -0.02377641 0.00000000 -0.01606888
    endloop
  endfacet
  facet normal -0.92494075 0.30520046 -0.22657733
    outer loop
      vertex -0.01923552 0.00300000 -0.03056483
      vertex -0.02377641 0.00000000 -0.01606888
      vertex -0.02261271 0.00352671 -0.01606888
    endloop
  endfacet
  facet normal -0.92494075 -0.30520046 -0.22657733
    outer loop
      vertex -0.02022542 0.00000000 -0.03056483
      vertex -0.01923552 -0.00300000 -0.03056483
      vertex -0.02261271 -0.00352671 -0.01606888
    endloop
  endfacet
  facet normal -0.92494075 -0.30520046 -0.22657733
    outer loop
      vertex -0.02022542 0.00000000 -0.03056483
      vertex -0.02261271 -0.00352671 -0.01606888
      vertex -0.02377641 0.00000000 -0.01606888
    endloop
  endfacet
  facet normal -0.67411668 -0.71558251 -0.18305292
    outer loop
      vertex -0.01923552 -0.00300000 -0.03056483
      vertex -0.01636271 -0.00570634 -0.03056483
      vertex -0.01923552 -0.00670820 -0.01606888
    endloop
  endfacet
  facet normal -0.67411668 -0.71558251 -0.18305292
    outer loop
      vertex -0.01923552 -0.00300000 -0.03056483
      vertex -0.01923552 -0.00670820 -0.01606888
      vertex -0.02261271 -0.00352671 -0.01606888
    endloop
  endfacet
  facet normal -0.42806416 -0.89180034 -0.14646921
    outer loop
      vertex -0.01636271 -0.00570634 -0.03056483
      vertex -0.01188821 -0.00785410 -0.03056483
      vertex -0.01397542 -0.00923305 -0.01606888
    endloop
  endfacet
  facet normal -0.42806416 -0.89180034 -0.14646921
    outer loop
      vertex -0.01636271 -0.00570634 -0.03056483
      vertex -0.01397542 -0.00923305 -0.01606888
      vertex -0.01923552 -0.00670820 -0.01606888
    endloop
  endfacet
  facet normal -0.23568866 -0.96367717 -0.12560716
    outer loop
      vertex -0.01188821 -0.00785410 -0.03056483
      vertex -0.00625000 -0.00923305 -0.03056483
      vertex -0.00734732 -0.01085410 -0.01606888
    endloop
  endfacet
  facet normal -0.23568866 -0.96367717 -0.12560716
    outer loop
      vertex -0.01188821 -0.00785410 -0.03056483
      vertex -0.00734732 -0.01085410 -0.01606888
      vertex -0.01397542 -0.00923305 -0.01606888
    endloop
  endfacet
  facet normal -0.07529007 -0.99033910 -0.11644684
    outer loop
      vertex -0.00625000 -0.00923305 -0.03056483
      vertex -0.00000000 -0.00970820 -0.03056483
      vertex -0.00000000 -0.01141268 -0.01606888
    endloop
  endfacet
  facet normal -0.07529007 -0.99033910 -0.11644684
    outer loop
      vertex -0.00625000 -0.00923305 -0.03056483
      vertex -0.00000000 -0.01141268 -0.01606888
      vertex -0.00734732 -0.01085410 -0.01606888
    endloop
  endfacet
  facet normal 0.07529007 -0.99033910 -0.11644684
    outer loop
      vertex -0.00000000 -0.00970820 -0.03056483
      vertex 0.00625000 -0.00923305 -0.03056483
      vertex 0.00734732 -0.01085410 -0.01606888
    endloop
  endfacet
  facet normal 0.07529007 -0.99033910 -0.11644684
    outer loop
      vertex -0.00000000 -0.00970820 -0.03056483
      vertex 0.00734732 -0.01085410 -0.01606888
      vertex -0.00000000 -0.01141268 -0.01606888
    endloop
  endfacet
  facet normal 0.23568866 -0.96367717 -0.12560716
    outer loop
      vertex 0.00625000 -0.00923305 -0.03056483
      vertex 0.01188821 -0.00785410 -0.03056483
      vertex 0.01397542 -0.00923305 -0.01606888
    endloop
  endfacet
  facet normal 0.23568866 -0.96367717 -0.12560716
    outer loop
      vertex 0.00625000 -0.00923305 -0.03056483
      vertex 0.01397542 -0.00923305 -0.01606888
      vertex 0.00734732 -0.01085410 -0.01606888
    endloop
  endfacet
  facet normal 0.42806416 -0.89180034 -0.14646921
    outer loop
      vertex 0.01188821 -0.00785410 -0.03056483
      vertex 0.01636271 -0.00570634 -0.03056483
      vertex 0.01923552 -0.00670820 -0.01606888
    endloop
  endfacet
  facet normal 0.42806416 -0.89180034 -0.14646921
    outer loop
      vertex 0.01188821 -0.00785410 -0.03056483
      vertex 0.01923552 -0.00670820 -0.01606888
      vertex 0.01397542 -0.00923305 -0.01606888
    endloop
  endfacet
  facet normal 0.67411668 -0.71558251 -0.18305292
    outer loop
      vertex 0.01636271 -0.00570634 -0.03056483
      vertex 0.01923552 -0.00300000 -0.03056483
      vertex 0.02261271 -0.00352671 -0.01606888
    endloop
  endfacet
  facet normal 0.67411668 -0.71558251 -0.18305292
    outer loop
      vertex 0.01636271 -0.00570634 -0.03056483
      vertex 0.02261271 -0.00352671 -0.01606888
      vertex 0.01923552 -0.00670820 -0.01606888
    endloop
  endfacet
  facet normal 0.92494075 -0.30520046 -0.22657733
    outer loop
      vertex 0.01923552 -0.00300000 -0.03056483
      vertex 0.02022542 0.00000000 -0.03056483
      vertex 0.02377641 0.00000000 -0.01606888
    endloop
  endfacet
  facet normal 0.92494075 -0.30520046 -0.22657733
    outer loop
      vertex 0.01923552 -0.00300000 -0.03056483
      vertex 0.02377641 0.00000000 -0.01606888
      vertex 0.02261271 -0.00352671 -0.01606888
    endloop
  endfacet
  facet normal 0.94716470 0.31253365 -0.07212315
    outer loop
      vertex 0.02377641 0.00000000 -0.01606888
      vertex 0.02261271 0.00352671 -0.01606888
      vertex 0.02377641 0.00370820 0.00000000
    endloop
  endfacet
  facet normal 0.94716470 0.31253365 -0.07212315
    outer loop
      vertex 0.02377641 0.00000000 -0.01606888
      vertex 0.02377641 0.00370820 0.00000000
      vertex 0.02500000 0.00000000 0.00000000
    endloop
  endfacet
  facet normal 0.68455728 0.72666532 -0.05778272
    outer loop
      vertex 0.02261271 0.00352671 -0.01606888
      vertex 0.01923552 0.00670820 -0.01606888
      vertex 0.02022542 0.00705342 0.00000000
    endloop
  endfacet
  facet normal 0.68455728 0.72666532 -0.05778272
    outer loop
      vertex 0.02261271 0.00352671 -0.01606888
      vertex 0.02022542 0.00705342 0.00000000
      vertex 0.02377641 0.00370820 0.00000000
    endloop
  endfacet
  facet normal 0.43227345 0.90056969 -0.04597722
    outer loop
      vertex 0.01923552 0.00670820 -0.01606888
      vertex 0.01397542 0.00923305 -0.01606888
      vertex 0.01469463 0.00970820 0.00000000
    endloop
  endfacet
  facet normal 0.43227345 0.90056969 -0.04597722
    outer loop
      vertex 0.01923552 0.00670820 -0.01606888
      vertex 0.01469463 0.00970820 0.00000000
      vertex 0.02022542 0.00705342 0.00000000
    endloop
  endfacet
  facet normal 0.23738643 0.97061896 -0.03932586
    outer loop
      vertex 0.01397542 0.00923305 -0.01606888
      vertex 0.00734732 0.01085410 -0.01606888
      vertex 0.00772542 0.01141268 0.00000000
    endloop
  endfacet
  facet normal 0.23738643 0.97061896 -0.03932586
    outer loop
      vertex 0.01397542 0.00923305 -0.01606888
      vertex 0.00772542 0.01141268 0.00000000
      vertex 0.01469463 0.00970820 0.00000000
    endloop
  endfacet
  facet normal 0.07575548 0.99646105 -0.03642091
    outer loop
      vertex 0.00734732 0.01085410 -0.01606888
      vertex 0.00000000 0.01141268 -0.01606888
      vertex 0.00000000 0.01200000 0.00000000
    endloop
  endfacet
  facet normal 0.07575548 0.99646105 -0.03642091
    outer loop
      vertex 0.00734732 0.01085410 -0.01606888
      vertex 0.00000000 0.01200000 0.00000000
      vertex 0.00772542 0.01141268 0.00000000
    endloop
  endfacet
  facet normal -0.07575548 0.99646105 -0.03642091
    outer loop
      vertex 0.00000000 0.01141268 -0.01606888
      vertex -0.00734732 0.01085410 -0.01606888
      vertex -0.00772542 0.01141268 0.00000000
    endloop
  endfacet
  facet normal -0.07575548 0.99646105 -0.03642091
    outer loop
      vertex 0.00000000 0.01141268 -0.01606888
      vertex -0.00772542 0.01141268 0.00000000
      vertex 0.00000000 0.01200000 0.00000000
    endloop
  endfacet
  facet normal -0.23738643 0.97061896 -0.03932586
    outer loop
      vertex -0.00734732 0.01085410 -0.01606888
      vertex -0.01397542 0.00923305 -0.01606888
      vertex -0.01469463 0.00970820 0.00000000
    endloop
  endfacet
  facet normal -0.23738643 0.97061896 -0.03932586
    outer loop
      vertex -0.00734732 0.01085410 -0.01606888
      vertex -0.01469463 0.00970820 0.00000000
      vertex -0.00772542 0.01141268 0.00000000
    endloop
  endfacet
  facet normal -0.43227345 0.90056969 -0.04597722
    outer loop
      vertex -0.01397542 0.00923305 -0.01606888
      vertex -0.01923552 0.00670820 -0.01606888
      vertex -0.02022542 0.00705342 0.00000000
    endloop
  endfacet
  facet normal -0.43227345 0.90056969 -0.04597722
    outer loop
      vertex -0.01397542 0.00923305 -0.01606888
      vertex -0.02022542 0.00705342 0.00000000
      vertex -0.01469463 0.00970820 0.00000000
    endloop
  endfacet
  facet normal -0.68455728 0.72666532 -0.05778272
    outer loop
      vertex -0.01923552 0.00670820 -0.01606888
      vertex -0.02261271 0.00352671 -0.01606888
      vertex -0.02377641 0.00370820 0.00000000
    endloop
  endfacet
  facet normal -0.68455728 0.72666532 -0.05778272
    outer loop
      vertex -0.01923552 0.00670820 -0.01606888
      vertex -0.02377641 0.00370820 0.00000000
      vertex -0.02022542 0.00705342 0.00000000
    endloop
  endfacet
  facet normal -0.94716470 0.31253365 -0.07212315
    outer loop
      vertex -0.02261271 0.00352671 -0.01606888
      vertex -0.02377641 0.00000000 -0.01606888
      vertex -0.02500000 0.00000000 0.00000000
    endloop
  endfacet
  facet normal -0.94716470 0.31253365 -0.07212315
    outer loop
      vertex -0.02261271 0.00352671 -0.01606888
      vertex -0.02500000 0.00000000 0.00000000
      vertex -0.02377641 0.00370820 0.00000000
    endloop
  endfacet
  facet normal -0.94716470 -0.31253365 -0.07212315
    outer loop
      vertex -0.02377641 0.00000000 -0.01606888
      vertex -0.02261271 -0.00352671 -0.01606888
      vertex -0.02377641 -0.00370820 0.00000000
    endloop
  endfacet
  facet normal -0.94716470 -0.31253365 -0.07212315
    outer loop
      vertex -0.02377641 0.00000000 -0.01606888
      vertex -0.02377641 -0.00370820 0.00000000
      vertex -0.02500000 0.00000000 0.00000000
    endloop
  endfacet
  facet normal -0.68455728 -0.72666532 -0.05778272
    outer loop
      vertex -0.02261271 -0.00352671 -0.01606888
      vertex -0.01923552 -0.00670820 -0.01606888
      vertex -0.02022542 -0.00705342 0.00000000
    endloop
  endfacet
  facet normal -0.68455728 -0.72666532 -0.05778272
    outer loop
      vertex -0.02261271 -0.00352671 -0.01606888
      vertex -0.02022542 -0.00705342 0.00000000
      vertex -0.02377641 -0.00370820 0.00000000
    endloop
  endfacet
  facet normal -0.43227345 -0.90056969 -0.04597722
    outer loop
      vertex -0.01923552 -0.00670820 -0.01606888
      vertex -0.01397542 -0.00923305 -0.01606888
      vertex -0.01469463 -0.00970820 0.00000000
    endloop
  endfacet
  facet normal -0.43227345 -0.90056969 -0.04597722
    outer loop
      vertex -0.01923552 -0.00670820 -0.01606888
      vertex -0.01469463 -0.00970820 0.00000000
      vertex -0.02022542 -0.00705342 0.00000000
    endloop
  endfacet
  facet normal -0.23738643 -0.97061896 -0.03932586
    outer loop
      vertex -0.01397542 -0.00923305 -0.01606888
      vertex -0.00734732 -0.01085410 -0.01606888
      vertex -0.00772542 -0.01141268 0.00000000
    endloop
  endfacet
  facet normal -0.23738643 -0.97061896 -0.03932586
    outer loop
      vertex -0.01397542 -0.00923305 -0.01606888
      vertex -0.00772542 -0.01141268 0.00000000
      vertex -0.01469463 -0.00970820 0.00000000
    endloop
  endfacet
  facet normal -0.07575548 -0.99646105 -0.03642091
    outer loop
      vertex -0.00734732 -0.01085410 -0.01606888
      vertex -0.00000000 -0.01141268 -0.01606888
      vertex -0.00000000 -0.01200000 0.00000000
    endloop
  endfacet
  facet normal -0.07575548 -0.99646105 -0.03642091
    outer loop
      vertex -0.00734732 -0.01085410 -0.01606888
      vertex -0.00000000 -0.01200000 0.00000000
      vertex -0.00772542 -0.01141268 0.00000000
    endloop
  endfacet
  facet normal 0.07575548 -0.99646105 -0.03642091
    outer loop
      vertex -0.00000000 -0.01141268 -0.01606888
      vertex 0.00734732 -0.01085410 -0.01606888
      vertex 0.00772542 -0.01141268 0.00000000
    endloop
  endfacet
  facet normal 0.07575548 -0.99646105 -0.03642091
    outer loop
      vertex -0.00000000 -0.01141268 -0.01606888
      vertex 0.00772542 -0.01141268 0.00000000
      vertex -0.00000000 -0.01200000 0.00000000
    endloop
  endfacet
  facet normal 0.23738643 -0.97061896 -0.03932586
    outer loop
      vertex 0.00734732 -0.01085410 -0.01606888
      vertex 0.01397542 -0.00923305 -0.01606888
      vertex 0.01469463 -0.00970820 0.00000000
    endloop
  endfacet
  facet normal 0.23738643 -0.97061896 -0.03932586
    outer loop
      vertex 0.00734732 -0.01085410 -0.01606888
      vertex 0.01469463 -0.00970820 0.00000000
      vertex 0.00772542 -0.01141268 0.00000000
    endloop
  endfacet
  facet normal 0.43227345 -0.90056969 -0.04597722
    outer loop
      vertex 0.01397542 -0.00923305 -0.01606888
      vertex 0.01923552 -0.00670820 -0.01606888
      vertex 0.02022542 -0.00705342 0.00000000
    endloop
  endfacet
  facet normal 0.43227345 -0.90056969 -0.04597722
    outer loop
      vertex 0.01397542 -0.00923305 -0.01606888
      vertex 0.02022542 -0.00705342 0.00000000
      vertex 0.01469463 -0.00970820 0.00000000
    endloop
  endfacet
  facet normal 0.68455728 -0.72666532 -0.05778272
    outer loop
      vertex 0.01923552 -0.00670820 -0.01606888
      vertex 0.02261271 -0.00352671 -0.01606888
      vertex 0.02377641 -0.00370820 0.00000000
    endloop
  endfacet
  facet normal 0.68455728 -0.72666532 -0.05778272
    outer loop
      vertex 0.01923552 -0.00670820 -0.01606888
      vertex 0.02377641 -0.00370820 0.00000000
      vertex 0.02022542 -0.00705342 0.00000000
    endloop
  endfacet
  facet normal 0.94716470 -0.31253365 -0.07212315
    outer loop
      vertex 0.02261271 -0.00352671 -0.01606888
      vertex 0.02377641 0.00000000 -0.01606888
      vertex 0.02500000 0.00000000 0.00000000
    endloop
  endfacet
  facet normal 0.94716470 -0.31253365 -0.07212315
    outer loop
      vertex 0.02261271 -0.00352671 -0.01606888
      vertex 0.02500000 0.00000000 0.00000000
      vertex 0.02377641 -0.00370820 0.00000000
    endloop
  endfacet
  facet normal 0.94716470 0.31253365 0.07212315
    outer loop
      vertex 0.02500000 0.00000000 0.00000000
      vertex 0.02377641 0.00370820 0.00000000
      vertex 0.02261271 0.00352671 0.01606888
    endloop
  endfacet
  facet normal 0.94716470 0.31253365 0.07212315
    outer loop
      vertex 0.02500000 0.00000000 0.00000000
      vertex 0.02261271 0.00352671 0.01606888
      vertex 0.02377641 0.00000000 0.01606888
    endloop
  endfacet
  facet normal 0.68455728 0.72666532 0.05778272
    outer loop
      vertex 0.02377641 0.00370820 0.00000000
      vertex 0.02022542 0.00705342 0.00000000
      vertex 0.01923552 0.00670820 0.01606888
    endloop
  endfacet
  facet normal 0.68455728 0.72666532 0.05778272
    outer loop
      vertex 0.02377641 0.00370820 0.00000000
      vertex 0.01923552 0.00670820 0.01606888
      vertex 0.02261271 0.00352671 0.01606888
    endloop
  endfacet
  facet normal 0.43227345 0.90056969 0.04597722
    outer loop
      vertex 0.02022542 0.00705342 0.00000000
      vertex 0.01469463 0.00970820 0.00000000
      vertex 0.01397542 0.00923305 0.01606888
    endloop
  endfacet
  facet normal 0.43227345 0.90056969 0.04597722
    outer loop
      vertex 0.02022542 0.00705342 0.00000000
      vertex 0.01397542 0.00923305 0.01606888
      vertex 0.01923552 0.00670820 0.01606888
    endloop
  endfacet
  facet normal 0.23738643 0.97061896 0.03932586
    outer loop
      vertex 0.01469463 0.00970820 0.00000000
      vertex 0.00772542 0.01141268 0.00000000
      vertex 0.00734732 0.01085410 0.01606888
    endloop
  endfacet
  facet normal 0.23738643 0.97061896 0.03932586
    outer loop
      vertex 0.01469463 0.00970820 0.00000000
      vertex 0.00734732 0.01085410 0.01606888
      vertex 0.01397542 0.00923305 0.01606888
    endloop
  endfacet
  facet normal 0.07575548 0.99646105 0.03642091
    outer loop
      vertex 0.00772542 0.01141268 0.00000000
      vertex 0.00000000 0.01200000 0.00000000
      vertex 0.00000000 0.01141268 0.01606888
    endloop
  endfacet
  facet normal 0.07575548 0.99646105 0.03642091
    outer loop
      vertex 0.00772542 0.01141268 0.00000000
      vertex 0.00000000 0.01141268 0.01606888
      vertex 0.00734732 0.01085410 0.01606888
    endloop
  endfacet
  facet normal -0.07575548 0.99646105 0.03642091
    outer loop
      vertex 0.00000000 0.01200000 0.00000000
      vertex -0.00772542 0.01141268 0.00000000
      vertex -0.00734732 0.01085410 0.01606888
    endloop
  endfacet
  facet normal -0.07575548 0.99646105 0.03642091
    outer loop
      vertex 0.00000000 0.01200000 0.00000000
      vertex -0.00734732 0.01085410 0.01606888
      vertex 0.00000000 0.01141268 0.01606888
    endloop
  endfacet
  facet normal -0.23738643 0.97061896 0.03932586
    outer loop
      vertex -0.00772542 0.01141268 0.00000000
      vertex -0.01469463 0.00970820 0.00000000
      vertex -0.01397542 0.00923305 0.01606888
    endloop
  endfacet
  facet normal -0.23738643 0.97061896 0.03932586
    outer loop
      vertex -0.00772542 0.01141268 0.00000000
      vertex -0.01397542 0.00923305 0.01606888
      vertex -0.00734732 0.01085410 0.01606888
    endloop
  endfacet
  facet normal -0.43227345 0.90056969 0.04597722
    outer loop
      vertex -0.01469463 0.00970820 0.00000000
      vertex -0.02022542 0.00705342 0.00000000
      vertex -0.01923552 0.00670820 0.01606888
    endloop
  endfacet
  facet normal -0.43227345 0.90056969 0.04597722
    outer loop
      vertex -0.01469463 0.00970820 0.00000000
      vertex -0.01923552 0.00670820 0.01606888
      vertex -0.01397542 0.00923305 0.01606888
    endloop
  endfacet
  facet normal -0.68455728 0.72666532 0.05778272
    outer loop
      vertex -0.02022542 0.00705342 0.00000000
      vertex -0.02377641 0.00370820 0.00000000
      vertex -0.02261271 0.00352671 0.01606888
    endloop
  endfacet
  facet normal -0.68455728 0.72666532 0.05778272
    outer loop
      vertex -0.02022542 0.00705342 0.00000000
      vertex -0.02261271 0.00352671 0.01606888
      vertex -0.01923552 0.00670820 0.01606888
    endloop
  endfacet
  facet normal -0.94716470 0.31253365 0.07212315
    outer loop
      vertex -0.02377641 0.00370820 0.00000000
      vertex -0.02500000 0.00000000 0.00000000
      vertex -0.02377641 0.00000000 0.01606888
    endloop
  endfacet
  facet normal -0.94716470 0.31253365 0.07212315
    outer loop
      vertex -0.02377641 0.00370820 0.00000000
      vertex -0.02377641 0.00000000 0.01606888
      vertex -0.02261271 0.00352671 0.01606888
    endloop
  endfacet
  facet normal -0.94716470 -0.31253365 0.07212315
    outer loop
      vertex -0.02500000 0.00000000 0.00000000
      vertex -0.02377641 -0.00370820 0.00000000
      vertex -0.02261271 -0.00352671 0.01606888
    endloop
  endfacet
  facet normal -0.94716470 -0.31253365 0.07212315
    outer loop
      vertex -0.02500000 0.00000000 0.00000000
      vertex -0.02261271 -0.00352671 0.01606888
      vertex -0.02377641 0.00000000 0.01606888
    endloop
  endfacet
  facet normal -0.68455728 -0.72666532 0.05778272
    outer loop
      vertex -0.02377641 -0.00370820 0.00000000
      vertex -0.02022542 -0.00705342 0.00000000
      vertex -0.01923552 -0.00670820 0.01606888
    endloop
  endfacet
  facet normal -0.68455728 -0.72666532 0.05778272
    outer loop
      vertex -0.02377641 -0.00370820 0.00000000
      vertex -0.01923552 -0.00670820 0.01606888
      vertex -0.02261271 -0.00352671 0.01606888
    endloop
  endfacet
  facet normal -0.43227345 -0.90056969 0.04597722
    outer loop
      vertex -0.02022542 -0.00705342 0.00000000
      vertex -0.01469463 -0.00970820 0.00000000
      vertex -0.01397542 -0.00923305 0.01606888
    endloop
  endfacet
  facet normal -0.43227345 -0.90056969 0.04597722
    outer loop
      vertex -0.02022542 -0.00705342 0.00000000
      vertex -0.01397542 -0.00923305 0.01606888
      vertex -0.01923552 -0.00670820 0.01606888
    endloop
  endfacet
  facet normal -0.23738643 -0.97061896 0.03932586
    outer loop
      vertex -0.01469463 -0.00970820 0.00000000
      vertex -0.00772542 -0.01141268 0.00000000
      vertex -0.00734732 -0.01085410 0.01606888
    endloop
  endfacet
  facet normal -0.23738643 -0.97061896 0.03932586
    outer loop
      vertex -0.01469463 -0.00970820 0.00000000
      vertex -0.00734732 -0.01085410 0.01606888
      vertex -0.01397542 -0.00923305 0.01606888
    endloop
  endfacet
  facet normal -0.07575548 -0.99646105 0.03642091
    outer loop
      vertex -0.00772542 -0.01141268 0.00000000
      vertex -0.00000000 -0.01200000 0.00000000
      vertex -0.00000000 -0.01141268 0.01606888
    endloop
  endfacet
  facet normal -0.07575548 -0.99646105 0.03642091
    outer loop
      vertex -0.00772542 -0.01141268 0.00000000
      vertex -0.00000000 -0.01141268 0.01606888
      vertex -0.00734732 -0.01085410 0.01606888
    endloop
  endfacet
  facet normal 0.07575548 -0.99646105 0.03642091
    outer loop
      vertex -0.00000000 -0.01200000 0.00000000
      vertex 0.00772542 -0.01141268 0.00000000
      vertex 0.00734732 -0.01085410 0.01606888
    endloop
  endfacet
  facet normal 0.07575548 -0.99646105 0.03642091
    outer loop
      vertex -0.00000000 -0.01200000 0.00000000
      vertex 0.00734732 -0.01085410 0.01606888
      vertex -0.00000000 -0.01141268 0.01606888
    endloop
  endfacet
  facet normal 0.23738643 -0.97061896 0.03932586
    outer loop
      vertex 0.00772542 -0.01141268 0.00000000
      vertex 0.01469463 -0.00970820 0.00000000
      vertex 0.01397542 -0.00923305 0.01606888
    endloop
  endfacet
  facet normal 0.23738643 -0.97061896 0.03932586
    outer loop
      vertex 0.00772542 -0.01141268 0.00000000
      vertex 0.01397542 -0.00923305 0.01606888
      vertex 0.00734732 -0.01085410 0.01606888
    endloop
  endfacet
  facet normal 0.43227345 -0.90056969 0.04597722
    outer loop
      vertex 0.01469463 -0.00970820 0.00000000
      vertex 0.02022542 -0.00705342 0.00000000
      vertex 0.01923552 -0.00670820 0.01606888
    endloop
  endfacet
  facet normal 0.43227345 -0.90056969 0.04597722
    outer loop
      vertex 0.01469463 -0.00970820 0.00000000
      vertex 0.01923552 -0.00670820 0.01606888
      vertex 0.01397542 -0.00923305 0.01606888
    endloop
  endfacet
  facet normal 0.68455728 -0.72666532 0.05778272
    outer loop
      vertex 0.02022542 -0.00705342 0.00000000
      vertex 0.02377641 -0.00370820 0.00000000
      vertex 0.02261271 -0.00352671 0.01606888
    endloop
  endfacet
  facet normal 0.68455728 -0.72666532 0.05778272
    outer loop
      vertex 0.02022542 -0.00705342 0.00000000
      vertex 0.02261271 -0.00352671 0.01606888
      vertex 0.01923552 -0.00670820 0.01606888
    endloop
  endfacet
  facet normal 0.94716470 -0.31253365 0.07212315
    outer loop
      vertex 0.02377641 -0.00370820 0.00000000
      vertex 0.02500000 0.00000000 0.00000000
      vertex 0.02377641 0.00000000 0.01606888
    endloop
  endfacet
  facet normal 0.94716470 -0.31253365 0.07212315
    outer loop
      vertex 0.02377641 -0.00370820 0.00000000
      vertex 0.02377641 0.00000000 0.01606888
      vertex 0.02261271 -0.00352671 0.01606888
    endloop
  endfacet
  facet normal 0.92494075 0.30520046 0.22657733
    outer loop
      vertex 0.02377641 0.00000000 0.01606888
      vertex 0.02261271 0.00352671 0.01606888
      vertex 0.01923552 0.00300000 0.03056483
    endloop
  endfacet
  facet normal 0.92494075 0.30520046 0.22657733
    outer loop
      vertex 0.02377641 0.00000000 0.01606888
      vertex 0.01923552 0.00300000 0.03056483
      vertex 0.02022542 0.00000000 0.03056483
    endloop
  endfacet
  facet normal 0.67411668 0.71558251 0.18305292
    outer loop
      vertex 0.02261271 0.00352671 0.01606888
      vertex 0.01923552 0.00670820 0.01606888
      vertex 0.01636271 0.00570634 0.03056483
    endloop
  endfacet
  facet normal 0.67411668 0.71558251 0.18305292
    outer loop
      vertex 0.02261271 0.00352671 0.01606888
      vertex 0.01636271 0.00570634 0.03056483
      vertex 0.01923552 0.00300000 0.03056483
    endloop
  endfacet
  facet normal 0.42806416 0.89180034 0.14646921
    outer loop
      vertex 0.01923552 0.00670820 0.01606888
      vertex 0.01397542 0.00923305 0.01606888
      vertex 0.01188821 0.00785410 0.03056483
    endloop
  endfacet
  facet normal 0.42806416 0.89180034 0.14646921
    outer loop
      vertex 0.01923552 0.00670820 0.01606888
      vertex 0.01188821 0.00785410 0.03056483
      vertex 0.01636271 0.00570634 0.03056483
    endloop
  endfacet
  facet normal 0.23568866 0.96367717 0.12560716
    outer loop
      vertex 0.01397542 0.00923305 0.01606888
      vertex 0.00734732 0.01085410 0.01606888
      vertex 0.00625000 0.00923305 0.03056483
    endloop
  endfacet
  facet normal 0.23568866 0.96367717 0.12560716
    outer loop
      vertex 0.01397542 0.00923305 0.01606888
      vertex 0.00625000 0.00923305 0.03056483
      vertex 0.01188821 0.00785410 0.03056483
    endloop
  endfacet
  facet normal 0.07529007 0.99033910 0.11644684
    outer loop
      vertex 0.00734732 0.01085410 0.01606888
      vertex 0.00000000 0.01141268 0.01606888
      vertex 0.00000000 0.00970820 0.03056483
    endloop
  endfacet
  facet normal 0.07529007 0.99033910 0.11644684
    outer loop
      vertex 0.00734732 0.01085410 0.01606888
      vertex 0.00000000 0.00970820 0.03056483
      vertex 0.00625000 0.00923305 0.03056483
    endloop
  endfacet
  facet normal -0.07529007 0.99033910 0.11644684
    outer loop
      vertex 0.00000000 0.01141268 0.01606888
      vertex -0.00734732 0.01085410 0.01606888
      vertex -0.00625000 0.00923305 0.03056483
    endloop
  endfacet
  facet normal -0.07529007 0.99033910 0.11644684
    outer loop
      vertex 0.00000000 0.01141268 0.01606888
      vertex -0.00625000 0.00923305 0.03056483
      vertex 0.00000000 0.00970820 0.03056483
    endloop
  endfacet
  facet normal -0.23568866 0.96367717 0.12560716
    outer loop
      vertex -0.00734732 0.01085410 0.01606888
      vertex -0.01397542 0.00923305 0.01606888
      vertex -0.01188821 0.00785410 0.03056483
    endloop
  endfacet
  facet normal -0.23568866 0.96367717 0.12560716
    outer loop
      vertex -0.00734732 0.01085410 0.01606888
      vertex -0.01188821 0.00785410 0.03056483
      vertex -0.00625000 0.00923305 0.03056483
    endloop
  endfacet
  facet normal -0.42806416 0.89180034 0.14646921
    outer loop
      vertex -0.01397542 0.00923305 0.01606888
      vertex -0.01923552 0.00670820 0.01606888
      vertex -0.01636271 0.00570634 0.03056483
    endloop
  endfacet
  facet normal -0.42806416 0.89180034 0.14646921
    outer loop
      vertex -0.01397542 0.00923305 0.01606888
      vertex -0.01636271 0.00570634 0.03056483
      vertex -0.01188821 0.00785410 0.03056483
    endloop
  endfacet
  facet normal -0.67411668 0.71558251 0.18305292
    outer loop
      vertex -0.01923552 0.00670820 0.01606888
      vertex -0.02261271 0.00352671 0.01606888
      vertex -0.01923552 0.00300000 0.03056483
    endloop
  endfacet
  facet normal -0.67411668 0.71558251 0.18305292
    outer loop
      vertex -0.01923552 0.00670820 0.01606888
      vertex -0.01923552 0.00300000 0.03056483
      vertex -0.01636271 0.00570634 0.03056483
    endloop
  endfacet
  facet normal -0.92494075 0.30520046 0.22657733
    outer loop
      vertex -0.02261271 0.00352671 0.01606888
      vertex -0.02377641 0.00000000 0.01606888
      vertex -0.02022542 0.00000000 0.03056483
    endloop
  endfacet
  facet normal -0.92494075 0.30520046 0.22657733
    outer loop
      vertex -0.02261271 0.00352671 0.01606888
      vertex -0.02022542 0.00000000 0.03056483
      vertex -0.01923552 0.00300000 0.03056483
    endloop
  endfacet
  facet normal -0.92494075 -0.30520046 0.22657733
    outer loop
      vertex -0.02377641 0.00000000 0.01606888
      vertex -0.02261271 -0.00352671 0.01606888
      vertex -0.01923552 -0.00300000 0.03056483
    endloop
  endfacet
  facet normal -0.92494075 -0.30520046 0.22657733
    outer loop
      vertex -0.02377641 0.00000000 0.01606888
      vertex -0.01923552 -0.00300000 0.03056483
      vertex -0.02022542 0.00000000 0.03056483
    endloop
  endfacet
  facet normal -0.67411668 -0.71558251 0.18305292
    outer loop
      vertex -0.02261271 -0.00352671 0.01606888
      vertex -0.01923552 -0.00670820 0.01606888
      vertex -0.01636271 -0.00570634 0.03056483
    endloop
  endfacet
  facet normal -0.67411668 -0.71558251 0.18305292
    outer loop
      vertex -0.02261271 -0.00352671 0.01606888
      vertex -0.01636271 -0.00570634 0.03056483
      vertex -0.01923552 -0.00300000 0.03056483
    endloop
  endfacet
  facet normal -0.42806416 -0.89180034 0.14646921
    outer loop
      vertex -0.01923552 -0.00670820 0.01606888
      vertex -0.01397542 -0.00923305 0.01606888
      vertex -0.01188821 -0.00785410 0.03056483
    endloop
  endfacet
  facet normal -0.42806416 -0.89180034 0.14646921
    outer loop
      vertex -0.01923552 -0.00670820 0.01606888
      vertex -0.01188821 -0.00785410 0.03056483
      vertex -0.01636271 -0.00570634 0.03056483
    endloop
  endfacet
  facet normal -0.23568866 -0.96367717 0.12560716
    outer loop
      vertex -0.01397542 -0.00923305 0.01606888
      vertex -0.00734732 -0.01085410 0.01606888
      vertex -0.00625000 -0.00923305 0.03056483
    endloop
  endfacet
  facet normal -0.23568866 -0.96367717 0.12560716
    outer loop
      vertex -0.01397542 -0.00923305 0.01606888
      vertex -0.00625000 -0.00923305 0.03056483
      vertex -0.01188821 -0.00785410 0.03056483
    endloop
  endfacet
  facet normal -0.07529007 -0.99033910 0.11644684
    outer loop
      vertex -0.00734732 -0.01085410 0.01606888
      vertex -0.00000000 -0.01141268 0.01606888
      vertex -0.00000000 -0.00970820 0.03056483
    endloop
  endfacet
  facet normal -0.07529007 -0.99033910 0.11644684
    outer loop
      vertex -0.00734732 -0.01085410 0.01606888
      vertex -0.00000000 -0.00970820 0.03056483
      vertex -0.00625000 -0.00923305 0.03056483
    endloop
  endfacet
  facet normal 0.07529007 -0.99033910 0.11644684
    outer loop
      vertex -0.00000000 -0.01141268 0.01606888
      vertex 0.00734732 -0.01085410 0.01606888
      vertex 0.00625000 -0.00923305 0.03056483
    endloop
  endfacet
  facet normal 0.07529007 -0.99033910 0.11644684
    outer loop
      vertex -0.00000000 -0.01141268 0.01606888
      vertex 0.00625000 -0.00923305 0.03056483
      vertex -0.00000000 -0.00970820 0.03056483
    endloop
  endfacet
  facet normal 0.23568866 -0.96367717 0.12560716
    outer loop
      vertex 0.00734732 -0.01085410 0.01606888
      vertex 0.01397542 -0.00923305 0.01606888
      vertex 0.01188821 -0.00785410 0.03056483
    endloop
  endfacet
  facet normal 0.23568866 -0.96367717 0.12560716
    outer loop
      vertex 0.00734732 -0.01085410 0.01606888
      vertex 0.01188821 -0.00785410 0.03056483
      vertex 0.00625000 -0.00923305 0.03056483
    endloop
  endfacet
  facet normal 0.42806416 -0.89180034 0.14646921
    outer loop
      vertex 0.01397542 -0.00923305 0.01606888
      vertex 0.01923552 -0.00670820 0.01606888
      vertex 0.01636271 -0.00570634 0.03056483
    endloop
  endfacet
  facet normal 0.42806416 -0.89180034 0.14646921
    outer loop
      vertex 0.01397542 -0.00923305 0.01606888
      vertex 0.01636271 -0.00570634 0.03056483
      vertex 0.01188821 -0.00785410 0.03056483
    endloop
  endfacet
  facet normal 0.67411668 -0.71558251 0.18305292
    outer loop
      vertex 0.01923552 -0.00670820 0.01606888
      vertex 0.02261271 -0.00352671 0.01606888
      vertex 0.01923552 -0.00300000 0.03056483
    endloop
  endfacet
  facet normal 0.67411668 -0.71558251 0.18305292
    outer loop
      vertex 0.01923552 -0.00670820 0.01606888
      vertex 0.01923552 -0.00300000 0.03056483
      vertex 0.01636271 -0.00570634 0.03056483
    endloop
  endfacet
  facet normal 0.92494075 -0.30520046 0.22657733
    outer loop
      vertex 0.02261271 -0.00352671 0.01606888
      vertex 0.02377641 0.00000000 0.01606888
      vertex 0.02022542 0.00000000 0.03056483
    endloop
  endfacet
  facet normal 0.92494075 -0.30520046 0.22657733
    outer loop
      vertex 0.02261271 -0.00352671 0.01606888
      vertex 0.02022542 0.00000000 0.03056483
      vertex 0.01923552 -0.00300000 0.03056483
    endloop
  endfacet
  facet normal 0.86386273 0.28504670 0.41531862
    outer loop
      vertex 0.02022542 0.00000000 0.03056483
      vertex 0.01923552 0.00300000 0.03056483
      vertex 0.01397542 0.00217963 0.04206888
    endloop
  endfacet
  facet normal 0.86386273 0.28504670 0.41531862
    outer loop
      vertex 0.02022542 0.00000000 0.03056483
      vertex 0.01397542 0.00217963 0.04206888
      vertex 0.01469463 0.00000000 0.04206888
    endloop
  endfacet
  facet normal 0.64404600 0.68366214 0.34323581
    outer loop
      vertex 0.01923552 0.00300000 0.03056483
      vertex 0.01636271 0.00570634 0.03056483
      vertex 0.01188821 0.00414590 0.04206888
    endloop
  endfacet
  facet normal 0.64404600 0.68366214 0.34323581
    outer loop
      vertex 0.01923552 0.00300000 0.03056483
      vertex 0.01188821 0.00414590 0.04206888
      vertex 0.01397542 0.00217963 0.04206888
    endloop
  endfacet
  facet normal 0.41554121 0.86571086 0.27905235
    outer loop
      vertex 0.01636271 0.00570634 0.03056483
      vertex 0.01188821 0.00785410 0.03056483
      vertex 0.00863729 0.00570634 0.04206888
    endloop
  endfacet
  facet normal 0.41554121 0.86571086 0.27905235
    outer loop
      vertex 0.01636271 0.00570634 0.03056483
      vertex 0.00863729 0.00570634 0.04206888
      vertex 0.01188821 0.00414590 0.04206888
    endloop
  endfacet
  facet normal 0.23055885 0.94270256 0.24115242
    outer loop
      vertex 0.01188821 0.00785410 0.03056483
      vertex 0.00625000 0.00923305 0.03056483
      vertex 0.00454089 0.00670820 0.04206888
    endloop
  endfacet
  facet normal 0.23055885 0.94270256 0.24115242
    outer loop
      vertex 0.01188821 0.00785410 0.03056483
      vertex 0.00454089 0.00670820 0.04206888
      vertex 0.00863729 0.00570634 0.04206888
    endloop
  endfacet
  facet normal 0.07387522 0.97172866 0.22424508
    outer loop
      vertex 0.00625000 0.00923305 0.03056483
      vertex 0.00000000 0.00970820 0.03056483
      vertex 0.00000000 0.00705342 0.04206888
    endloop
  endfacet
  facet normal 0.07387522 0.97172866 0.22424508
    outer loop
      vertex 0.00625000 0.00923305 0.03056483
      vertex 0.00000000 0.00705342 0.04206888
      vertex 0.00454089 0.00670820 0.04206888
    endloop
  endfacet
  facet normal -0.07387522 0.97172866 0.22424508
    outer loop
      vertex 0.00000000 0.00970820 0.03056483
      vertex -0.00625000 0.00923305 0.03056483
      vertex -0.00454089 0.00670820 0.04206888
    endloop
  endfacet
  facet normal -0.07387522 0.97172866 0.22424508
    outer loop
      vertex 0.00000000 0.00970820 0.03056483
      vertex -0.00454089 0.00670820 0.04206888
      vertex 0.00000000 0.00705342 0.04206888
    endloop
  endfacet
  facet normal -0.23055885 0.94270256 0.24115242
    outer loop
      vertex -0.00625000 0.00923305 0.03056483
      vertex -0.01188821 0.00785410 0.03056483
      vertex -0.00863729 0.00570634 0.04206888
    endloop
  endfacet
  facet normal -0.23055885 0.94270256 0.24115242
    outer loop
      vertex -0.00625000 0.00923305 0.03056483
      vertex -0.00863729 0.00570634 0.04206888
      vertex -0.00454089 0.00670820 0.04206888
    endloop
  endfacet
  facet normal -0.41554121 0.86571086 0.27905235
    outer loop
      vertex -0.01188821 0.00785410 0.03056483
      vertex -0.01636271 0.00570634 0.03056483
      vertex -0.01188821 0.00414590 0.04206888
    endloop
  endfacet
  facet normal -0.41554121 0.86571086 0.27905235
    outer loop
      vertex -0.01188821 0.00785410 0.03056483
      vertex -0.01188821 0.00414590 0.04206888
      vertex -0.00863729 0.00570634 0.04206888
    endloop
  endfacet
  facet normal -0.64404600 0.68366214 0.34323581
    outer loop
      vertex -0.01636271 0.00570634 0.03056483
      vertex -0.01923552 0.00300000 0.03056483
      vertex -0.01397542 0.00217963 0.04206888
    endloop
  endfacet
  facet normal -0.64404600 0.68366214 0.34323581
    outer loop
      vertex -0.01636271 0.00570634 0.03056483
      vertex -0.01397542 0.00217963 0.04206888
      vertex -0.01188821 0.00414590 0.04206888
    endloop
  endfacet
  facet normal -0.86386273 0.28504670 0.41531862
    outer loop
      vertex -0.01923552 0.00300000 0.03056483
      vertex -0.02022542 0.00000000 0.03056483
      vertex -0.01469463 0.00000000 0.04206888
    endloop
  endfacet
  facet normal -0.86386273 0.28504670 0.41531862
    outer loop
      vertex -0.01923552 0.00300000 0.03056483
      vertex -0.01469463 0.00000000 0.04206888
      vertex -0.01397542 0.00217963 0.04206888
    endloop
  endfacet
  facet normal -0.86386273 -0.28504670 0.41531862
    outer loop
      vertex -0.02022542 0.00000000 0.03056483
      vertex -0.01923552 -0.00300000 0.03056483
      vertex -0.01397542 -0.00217963 0.04206888
    endloop
  endfacet
  facet normal -0.86386273 -0.28504670 0.41531862
    outer loop
      vertex -0.02022542 0.00000000 0.03056483
      vertex -0.01397542 -0.00217963 0.04206888
      vertex -0.01469463 0.00000000 0.04206888
    endloop
  endfacet
  facet normal -0.64404600 -0.68366214 0.34323581
    outer loop
      vertex -0.01923552 -0.00300000 0.03056483
      vertex -0.01636271 -0.00570634 0.03056483
      vertex -0.01188821 -0.00414590 0.04206888
    endloop
  endfacet
  facet normal -0.64404600 -0.68366214 0.34323581
    outer loop
      vertex -0.01923552 -0.00300000 0.03056483
      vertex -0.01188821 -0.00414590 0.04206888
      vertex -0.01397542 -0.00217963 0.04206888
    endloop
  endfacet
  facet normal -0.41554121 -0.86571086 0.27905235
    outer loop
      vertex -0.01636271 -0.00570634 0.03056483
      vertex -0.01188821 -0.00785410 0.03056483
      vertex -0.00863729 -0.00570634 0.04206888
    endloop
  endfacet
  facet normal -0.41554121 -0.86571086 0.27905235
    outer loop
      vertex -0.01636271 -0.00570634 0.03056483
      vertex -0.00863729 -0.00570634 0.04206888
      vertex -0.01188821 -0.00414590 0.04206888
    endloop
  endfacet
  facet normal -0.23055885 -0.94270256 0.24115242
    outer loop
      vertex -0.01188821 -0.00785410 0.03056483
      vertex -0.00625000 -0.00923305 0.03056483
      vertex -0.00454089 -0.00670820 0.04206888
    endloop
  endfacet
  facet normal -0.23055885 -0.94270256 0.24115242
    outer loop
      vertex -0.01188821 -0.00785410 0.03056483
      vertex -0.00454089 -0.00670820 0.04206888
      vertex -0.00863729 -0.00570634 0.04206888
    endloop
  endfacet
  facet normal -0.07387522 -0.97172866 0.22424508
    outer loop
      vertex -0.00625000 -0.00923305 0.03056483
      vertex -0.00000000 -0.00970820 0.03056483
      vertex -0.00000000 -0.00705342 0.04206888
    endloop
  endfacet
  facet normal -0.07387522 -0.97172866 0.22424508
    outer loop
      vertex -0.00625000 -0.00923305 0.03056483
      vertex -0.00000000 -0.00705342 0.04206888
      vertex -0.00454089 -0.00670820 0.04206888
    endloop
  endfacet
  facet normal 0.07387522 -0.97172866 0.22424508
    outer loop
      vertex -0.00000000 -0.00970820 0.03056483
      vertex 0.00625000 -0.00923305 0.03056483
      vertex 0.00454089 -0.00670820 0.04206888
    endloop
  endfacet
  facet normal 0.07387522 -0.97172866 0.22424508
    outer loop
      vertex -0.00000000 -0.00970820 0.03056483
      vertex 0.00454089 -0.00670820 0.04206888
      vertex -0.00000000 -0.00705342 0.04206888
    endloop
  endfacet
  facet normal 0.23055885 -0.94270256 0.24115242
    outer loop
      vertex 0.00625000 -0.00923305 0.03056483
      vertex 0.01188821 -0.00785410 0.03056483
      vertex 0.00863729 -0.00570634 0.04206888
    endloop
  endfacet
  facet normal 0.23055885 -0.94270256 0.24115242
    outer loop
      vertex 0.00625000 -0.00923305 0.03056483
      vertex 0.00863729 -0.00570634 0.04206888
      vertex 0.00454089 -0.00670820 0.04206888
    endloop
  endfacet
  facet normal 0.41554121 -0.86571086 0.27905235
    outer loop
      vertex 0.01188821 -0.00785410 0.03056483
      vertex 0.01636271 -0.00570634 0.03056483
      vertex 0.01188821 -0.00414590 0.04206888
    endloop
  endfacet
  facet normal 0.41554121 -0.86571086 0.27905235
    outer loop
      vertex 0.01188821 -0.00785410 0.03056483
      vertex 0.01188821 -0.00414590 0.04206888
      vertex 0.00863729 -0.00570634 0.04206888
    endloop
  endfacet
  facet normal 0.64404600 -0.68366214 0.34323581
    outer loop
      vertex 0.01636271 -0.00570634 0.03056483
      vertex 0.01923552 -0.00300000 0.03056483
      vertex 0.01397542 -0.00217963 0.04206888
    endloop
  endfacet
  facet normal 0.64404600 -0.68366214 0.34323581
    outer loop
      vertex 0.01636271 -0.00570634 0.03056483
      vertex 0.01397542 -0.00217963 0.04206888
      vertex 0.01188821 -0.00414590 0.04206888
    endloop
  endfacet
  facet normal 0.86386273 -0.28504670 0.41531862
    outer loop
      vertex 0.01923552 -0.00300000 0.03056483
      vertex 0.02022542 0.00000000 0.03056483
      vertex 0.01469463 0.00000000 0.04206888
    endloop
  endfacet
  facet normal 0.86386273 -0.28504670 0.41531862
    outer loop
      vertex 0.01923552 -0.00300000 0.03056483
      vertex 0.01469463 0.00000000 0.04206888
      vertex 0.01397542 -0.00217963 0.04206888
    endloop
  endfacet
  facet normal 0.70725015 0.23336962 0.66733489
    outer loop
      vertex 0.01469463 0.00000000 0.04206888
      vertex 0.01397542 0.00217963 0.04206888
      vertex 0.00734732 0.00114590 0.04945494
    endloop
  endfacet
  facet normal 0.70725015 0.23336962 0.66733489
    outer loop
      vertex 0.01469463 0.00000000 0.04206888
      vertex 0.00734732 0.00114590 0.04945494
      vertex 0.00772542 0.00000000 0.04945494
    endloop
  endfacet
  facet normal 0.55720794 0.59148255 0.58281017
    outer loop
      vertex 0.01397542 0.00217963 0.04206888
      vertex 0.01188821 0.00414590 0.04206888
      vertex 0.00625000 0.00217963 0.04945494
    endloop
  endfacet
  facet normal 0.55720794 0.59148255 0.58281017
    outer loop
      vertex 0.01397542 0.00217963 0.04206888
      vertex 0.00625000 0.00217963 0.04945494
      vertex 0.00734732 0.00114590 0.04945494
    endloop
  endfacet
  facet normal 0.37589405 0.78311261 0.49541730
    outer loop
      vertex 0.01188821 0.00414590 0.04206888
      vertex 0.00863729 0.00570634 0.04206888
      vertex 0.00454089 0.00300000 0.04945494
    endloop
  endfacet
  facet normal 0.37589405 0.78311261 0.49541730
    outer loop
      vertex 0.01188821 0.00414590 0.04206888
      vertex 0.00454089 0.00300000 0.04945494
      vertex 0.00625000 0.00217963 0.04945494
    endloop
  endfacet
  facet normal 0.21353102 0.87307962 0.43833375
    outer loop
      vertex 0.00863729 0.00570634 0.04206888
      vertex 0.00454089 0.00670820 0.04206888
      vertex 0.00238729 0.00352671 0.04945494
    endloop
  endfacet
  facet normal 0.21353102 0.87307962 0.43833375
    outer loop
      vertex 0.00863729 0.00570634 0.04206888
      vertex 0.00238729 0.00352671 0.04945494
      vertex 0.00454089 0.00300000 0.04945494
    endloop
  endfacet
  facet normal 0.06908731 0.90875027 0.41158219
    outer loop
      vertex 0.00454089 0.00670820 0.04206888
      vertex 0.00000000 0.00705342 0.04206888
      vertex 0.00000000 0.00370820 0.04945494
    endloop
  endfacet
  facet normal 0.06908731 0.90875027 0.41158219
    outer loop
      vertex 0.00454089 0.00670820 0.04206888
      vertex 0.00000000 0.00370820 0.04945494
      vertex 0.00238729 0.00352671 0.04945494
    endloop
  endfacet
  facet normal -0.06908731 0.90875027 0.41158219
    outer loop
      vertex 0.00000000 0.00705342 0.04206888
      vertex -0.00454089 0.00670820 0.04206888
      vertex -0.00238729 0.00352671 0.04945494
    endloop
  endfacet
  facet normal -0.06908731 0.90875027 0.41158219
    outer loop
      vertex 0.00000000 0.00705342 0.04206888
      vertex -0.00238729 0.00352671 0.04945494
      vertex 0.00000000 0.00370820 0.04945494
    endloop
  endfacet
  facet normal -0.21353102 0.87307962 0.43833375
    outer loop
      vertex -0.00454089 0.00670820 0.04206888
      vertex -0.00863729 0.00570634 0.04206888
      vertex -0.00454089 0.00300000 0.04945494
    endloop
  endfacet
  facet normal -0.21353102 0.87307962 0.43833375
    outer loop
      vertex -0.00454089 0.00670820 0.04206888
      vertex -0.00454089 0.00300000 0.04945494
      vertex -0.00238729 0.00352671 0.04945494
    endloop
  endfacet
  facet normal -0.37589405 0.78311261 0.49541730
    outer loop
      vertex -0.00863729 0.00570634 0.04206888
      vertex -0.01188821 0.00414590 0.04206888
      vertex -0.00625000 0.00217963 0.04945494
    endloop
  endfacet
  facet normal -0.37589405 0.78311261 0.49541730
    outer loop
      vertex -0.00863729 0.00570634 0.04206888
      vertex -0.00625000 0.00217963 0.04945494
      vertex -0.00454089 0.00300000 0.04945494
    endloop
  endfacet
  facet normal -0.55720794 0.59148255 0.58281017
    outer loop
      vertex -0.01188821 0.00414590 0.04206888
      vertex -0.01397542 0.00217963 0.04206888
      vertex -0.00734732 0.00114590 0.04945494
    endloop
  endfacet
  facet normal -0.55720794 0.59148255 0.58281017
    outer loop
      vertex -0.01188821 0.00414590 0.04206888
      vertex -0.00734732 0.00114590 0.04945494
      vertex -0.00625000 0.00217963 0.04945494
    endloop
  endfacet
  facet normal -0.70725015 0.23336962 0.66733489
    outer loop
      vertex -0.01397542 0.00217963 0.04206888
      vertex -0.01469463 0.00000000 0.04206888
      vertex -0.00772542 0.00000000 0.04945494
    endloop
  endfacet
  facet normal -0.70725015 0.23336962 0.66733489
    outer loop
      vertex -0.01397542 0.00217963 0.04206888
      vertex -0.00772542 0.00000000 0.04945494
      vertex -0.00734732 0.00114590 0.04945494
    endloop
  endfacet
  facet normal -0.70725015 -0.23336962 0.66733489
    outer loop
      vertex -0.01469463 0.00000000 0.04206888
      vertex -0.01397542 -0.00217963 0.04206888
      vertex -0.00734732 -0.00114590 0.04945494
    endloop
  endfacet
  facet normal -0.70725015 -0.23336962 0.66733489
    outer loop
      vertex -0.01469463 0.00000000 0.04206888
      vertex -0.00734732 -0.00114590 0.04945494
      vertex -0.00772542 0.00000000 0.04945494
    endloop
  endfacet
  facet normal -0.55720794 -0.59148255 0.58281017
    outer loop
      vertex -0.01397542 -0.00217963 0.04206888
      vertex -0.01188821 -0.00414590 0.04206888
      vertex -0.00625000 -0.00217963 0.04945494
    endloop
  endfacet
  facet normal -0.55720794 -0.59148255 0.58281017
    outer loop
      vertex -0.01397542 -0.00217963 0.04206888
      vertex -0.00625000 -0.00217963 0.04945494
      vertex -0.00734732 -0.00114590 0.04945494
    endloop
  endfacet
  facet normal -0.37589405 -0.78311261 0.49541730
    outer loop
      vertex -0.01188821 -0.00414590 0.04206888
      vertex -0.00863729 -0.00570634 0.04206888
      vertex -0.00454089 -0.00300000 0.04945494
    endloop
  endfacet
  facet normal -0.37589405 -0.78311261 0.49541730
    outer loop
      vertex -0.01188821 -0.00414590 0.04206888
      vertex -0.00454089 -0.00300000 0.04945494
      vertex -0.00625000 -0.00217963 0.04945494
    endloop
  endfacet
  facet normal -0.21353102 -0.87307962 0.43833375
    outer loop
      vertex -0.00863729 -0.00570634 0.04206888
      vertex -0.00454089 -0.00670820 0.04206888
      vertex -0.00238729 -0.00352671 0.04945494
    endloop
  endfacet
  facet normal -0.21353102 -0.87307962 0.43833375
    outer loop
      vertex -0.00863729 -0.00570634 0.04206888
      vertex -0.00238729 -0.00352671 0.04945494
      vertex -0.00454089 -0.00300000 0.04945494
    endloop
  endfacet
  facet normal -0.06908731 -0.90875027 0.41158219
    outer loop
      vertex -0.00454089 -0.00670820 0.04206888
      vertex -0.00000000 -0.00705342 0.04206888
      vertex -0.00000000 -0.00370820 0.04945494
    endloop
  endfacet
  facet normal -0.06908731 -0.90875027 0.41158219
    outer loop
      vertex -0.00454089 -0.00670820 0.04206888
      vertex -0.00000000 -0.00370820 0.04945494
      vertex -0.00238729 -0.00352671 0.04945494
    endloop
  endfacet
  facet normal 0.06908731 -0.90875027 0.41158219
    outer loop
      vertex -0.00000000 -0.00705342 0.04206888
      vertex 0.00454089 -0.00670820 0.04206888
      vertex 0.00238729 -0.00352671 0.04945494
    endloop
  endfacet
  facet normal 0.06908731 -0.90875027 0.41158219
    outer loop
      vertex -0.00000000 -0.00705342 0.04206888
      vertex 0.00238729 -0.00352671 0.04945494
      vertex -0.00000000 -0.00370820 0.04945494
    endloop
  endfacet
  facet normal 0.21353102 -0.87307962 0.43833375
    outer loop
      vertex 0.00454089 -0.00670820 0.04206888
      vertex 0.00863729 -0.00570634 0.04206888
      vertex 0.00454089 -0.00300000 0.04945494
    endloop
  endfacet
  facet normal 0.21353102 -0.87307962 0.43833375
    outer loop
      vertex 0.00454089 -0.00670820 0.04206888
      vertex 0.00454089 -0.00300000 0.04945494
      vertex 0.00238729 -0.00352671 0.04945494
    endloop
  endfacet
  facet normal 0.37589405 -0.78311261 0.49541730
    outer loop
      vertex 0.00863729 -0.00570634 0.04206888
      vertex 0.01188821 -0.00414590 0.04206888
      vertex 0.00625000 -0.00217963 0.04945494
    endloop
  endfacet
  facet normal 0.37589405 -0.78311261 0.49541730
    outer loop
      vertex 0.00863729 -0.00570634 0.04206888
      vertex 0.00625000 -0.00217963 0.04945494
      vertex 0.00454089 -0.00300000 0.04945494
    endloop
  endfacet
  facet normal 0.55720794 -0.59148255 0.58281017
    outer loop
      vertex 0.01188821 -0.00414590 0.04206888
      vertex 0.01397542 -0.00217963 0.04206888
      vertex 0.00734732 -0.00114590 0.04945494
    endloop
  endfacet
  facet normal 0.55720794 -0.59148255 0.58281017
    outer loop
      vertex 0.01188821 -0.00414590 0.04206888
      vertex 0.00734732 -0.00114590 0.04945494
      vertex 0.00625000 -0.00217963 0.04945494
    endloop
  endfacet
  facet normal 0.70725015 -0.23336962 0.66733489
    outer loop
      vertex 0.01397542 -0.00217963 0.04206888
      vertex 0.01469463 0.00000000 0.04206888
      vertex 0.00772542 0.00000000 0.04945494
    endloop
  endfacet
  facet normal 0.70725015 -0.23336962 0.66733489
    outer loop
      vertex 0.01397542 -0.00217963 0.04206888
      vertex 0.00772542 0.00000000 0.04945494
      vertex 0.00734732 -0.00114590 0.04945494
    endloop
  endfacet
  facet normal 0.31124297 0.10270009 0.94476479
    outer loop
      vertex 0.00772542 0.00000000 0.04945494
      vertex 0.00734732 0.00114590 0.04945494
      vertex 0.00000000 0.00000000 0.05200000
    endloop
  endfacet
  facet normal 0.27268219 0.28945524 0.91752934
    outer loop
      vertex 0.00734732 0.00114590 0.04945494
      vertex 0.00625000 0.00217963 0.04945494
      vertex 0.00000000 0.00000000 0.05200000
    endloop
  endfacet
  facet normal 0.20709076 0.43143908 0.87805110
    outer loop
      vertex 0.00625000 0.00217963 0.04945494
      vertex 0.00454089 0.00300000 0.04945494
      vertex 0.00000000 0.00000000 0.05200000
    endloop
  endfacet
  facet normal 0.12769308 0.52210788 0.84326617
    outer loop
      vertex 0.00454089 0.00300000 0.04945494
      vertex 0.00238729 0.00352671 0.04945494
      vertex 0.00000000 0.00000000 0.05200000
    endloop
  endfacet
  facet normal 0.04298063 0.56535212 0.82372911
    outer loop
      vertex 0.00238729 0.00352671 0.04945494
      vertex 0.00000000 0.00370820 0.04945494
      vertex 0.00000000 0.00000000 0.05200000
    endloop
  endfacet
  facet normal -0.04298063 0.56535212 0.82372911
    outer loop
      vertex 0.00000000 0.00370820 0.04945494
      vertex -0.00238729 0.00352671 0.04945494
      vertex 0.00000000 0.00000000 0.05200000
    endloop
  endfacet
  facet normal -0.12769308 0.52210788 0.84326617
    outer loop
      vertex -0.00238729 0.00352671 0.04945494
      vertex -0.00454089 0.00300000 0.04945494
      vertex -0.00000000 0.00000000 0.05200000
    endloop
  endfacet
  facet normal -0.20709076 0.43143908 0.87805110
    outer loop
      vertex -0.00454089 0.00300000 0.04945494
      vertex -0.00625000 0.00217963 0.04945494
      vertex -0.00000000 0.00000000 0.05200000
    endloop
  endfacet
  facet normal -0.27268219 0.28945524 0.91752934
    outer loop
      vertex -0.00625000 0.00217963 0.04945494
      vertex -0.00734732 0.00114590 0.04945494
      vertex -0.00000000 0.00000000 0.05200000
    endloop
  endfacet
  facet normal -0.31124297 0.10270009 0.94476479
    outer loop
      vertex -0.00734732 0.00114590 0.04945494
      vertex -0.00772542 0.00000000 0.04945494
      vertex -0.00000000 0.00000000 0.05200000
    endloop
  endfacet
  facet normal -0.31124297 -0.10270009 0.94476479
    outer loop
      vertex -0.00772542 0.00000000 0.04945494
      vertex -0.00734732 -0.00114590 0.04945494
      vertex -0.00000000 0.00000000 0.05200000
    endloop
  endfacet
  facet normal -0.27268219 -0.28945524 0.91752934
    outer loop
      vertex -0.00734732 -0.00114590 0.04945494
      vertex -0.00625000 -0.00217963 0.04945494
      vertex -0.00000000 -0.00000000 0.05200000
    endloop
  endfacet
  facet normal -0.20709076 -0.43143908 0.87805110
    outer loop
      vertex -0.00625000 -0.00217963 0.04945494
      vertex -0.00454089 -0.00300000 0.04945494
      vertex -0.00000000 -0.00000000 0.05200000
    endloop
  endfacet
  facet normal -0.12769308 -0.52210788 0.84326617
    outer loop
      vertex -0.00454089 -0.00300000 0.04945494
      vertex -0.00238729 -0.00352671 0.04945494
      vertex -0.00000000 -0.00000000 0.05200000
    endloop
  endfacet
  facet normal -0.04298063 -0.56535212 0.82372911
    outer loop
      vertex -0.00238729 -0.00352671 0.04945494
      vertex -0.00000000 -0.00370820 0.04945494
      vertex -0.00000000 -0.00000000 0.05200000
    endloop
  endfacet
  facet normal 0.04298063 -0.56535212 0.82372911
    outer loop
      vertex -0.00000000 -0.00370820 0.04945494
      vertex 0.00238729 -0.00352671 0.04945494
      vertex -0.00000000 -0.00000000 0.05200000
    endloop
  endfacet
  facet normal 0.12769308 -0.52210788 0.84326617
    outer loop
      vertex 0.00238729 -0.00352671 0.04945494
      vertex 0.00454089 -0.00300000 0.04945494
      vertex 0.00000000 -0.00000000 0.05200000
    endloop
  endfacet
  facet normal 0.20709076 -0.43143908 0.87805110
    outer loop
      vertex 0.00454089 -0.00300000 0.04945494
      vertex 0.00625000 -0.00217963 0.04945494
      vertex 0.00000000 -0.00000000 0.05200000
    endloop
  endfacet
  facet normal 0.27268219 -0.28945524 0.91752934
    outer loop
      vertex 0.00625000 -0.00217963 0.04945494
      vertex 0.00734732 -0.00114590 0.04945494
      vertex 0.00000000 -0.00000000 0.05200000
    endloop
  endfacet
  facet normal 0.31124297 -0.10270009 0.94476479
    outer loop
      vertex 0.00734732 -0.00114590 0.04945494
      vertex 0.00772542 0.00000000 0.04945494
      vertex 0.00000000 -0.00000000 0.05200000
    endloop
  endfacet
endsolid side_fin
